<svg width="560" height="524" viewBox="0 0 560 524" fill="none" xmlns="http://www.w3.org/2000/svg">
<g clip-path="url(#clip0_199_15389)">
<path d="M243.918 11.348C243.918 13.964 242.046 15.5 238.518 15.5H232.494V0.379999H238.326C242.022 0.379999 243.486 2.012 243.486 4.364C243.486 6.14 242.214 7.364 240.582 7.652C242.478 7.964 243.918 9.188 243.918 11.348ZM238.638 8.276H233.958V14.228H238.638C241.11 14.228 242.454 13.148 242.454 11.276C242.454 9.38 241.11 8.276 238.638 8.276ZM233.958 1.652V7.052H238.566C240.966 7.052 241.998 6.044 241.998 4.364C241.998 2.732 240.966 1.652 238.566 1.652H233.958ZM256.856 14.228V15.5H246.392V0.379999H256.64V1.652H247.856V7.028H254.888V8.3H247.856V14.228H256.856ZM261.056 0.379999L269.984 12.836V0.379999H271.424V15.5H270.224L260.816 2.468V15.5H259.376V0.379999H261.056ZM285.004 14.228V15.5H274.54V0.379999H284.788V1.652H276.004V7.028H283.036V8.3H276.004V14.228H285.004ZM289.013 15.5H287.525V0.379999H297.533V1.652H289.013V7.268H295.781V8.54H289.013V15.5ZM299.689 0.379999H301.201V15.5H299.689V0.379999ZM310.354 15.5H308.842V1.652H303.25V0.379999H316.018V1.652H310.354V15.5ZM316.423 10.076L317.791 9.956C317.911 12.956 319.927 14.612 322.687 14.612C325.183 14.612 326.743 13.508 326.743 11.636C326.743 10.1 325.831 9.284 323.647 8.852L320.575 8.252C318.415 7.82 316.927 6.668 316.927 4.388C316.927 1.892 318.919 0.0919995 322.111 0.0919995C325.783 0.0919995 327.967 2.108 327.967 5.516L326.575 5.636C326.527 2.876 324.895 1.268 322.135 1.268C319.735 1.268 318.391 2.444 318.391 4.34C318.391 6.044 319.471 6.596 321.463 6.98L324.151 7.508C326.815 8.036 328.183 9.116 328.183 11.516C328.183 14.18 325.879 15.788 322.687 15.788C319.087 15.788 316.423 13.748 316.423 10.076Z" fill="#EAECF0"/>
<path d="M238.477 86.516V96.5H193.261V36.02H237.613V46.004H205.069V60.692H230.605V70.58H205.069V86.516H238.477ZM269.834 78.164V77.108L261.866 78.836C256.874 79.892 253.322 80.756 253.322 84.98C253.322 87.86 255.53 89.588 259.178 89.588C265.226 89.588 269.834 84.98 269.834 78.164ZM281.066 69.332V86.228C281.066 88.436 282.218 89.492 284.042 89.492C285.194 89.492 286.346 89.204 287.594 88.628V94.772C285.77 96.212 283.466 97.46 279.626 97.46C274.826 97.46 271.754 94.676 270.698 90.068C268.298 94.964 262.538 97.556 256.298 97.556C247.466 97.556 242.09 93.14 242.09 85.844C242.09 77.78 248.618 74.42 258.218 72.5L269.834 70.196V69.236C269.834 64.532 267.338 61.652 262.442 61.652C257.642 61.652 255.05 64.532 254.09 68.66L243.626 67.7C245.066 59.06 251.69 53.012 262.922 53.012C273.866 53.012 281.066 58.196 281.066 69.332ZM288.058 82.484L298.042 82.1C298.714 87.188 302.554 89.78 308.41 89.78C312.634 89.78 316.09 88.34 316.09 85.268C316.09 82.388 314.17 81.14 309.946 80.468L303.226 79.316C294.202 77.876 289.21 74.516 289.21 66.644C289.21 58.58 296.026 53.012 306.778 53.012C318.49 53.012 325.498 58.292 326.266 67.7L316.762 68.084C315.994 63.284 312.73 60.884 306.682 60.884C302.554 60.884 299.866 62.708 299.866 65.588C299.866 67.892 301.402 69.236 304.474 69.716L312.538 71.06C321.466 72.5 326.746 76.244 326.746 84.212C326.746 92.852 319.258 97.652 308.314 97.652C297.274 97.652 288.826 92.852 288.058 82.484ZM349.345 112.244H338.017L344.545 96.692L326.977 54.164H339.073L350.593 83.06H350.977L362.401 54.164H373.633L349.345 112.244ZM109.087 126.02H122.431L147.103 186.5H134.335L128.287 171.524H102.559L96.7026 186.5H84.6066L109.087 126.02ZM115.135 139.652L106.207 162.308H124.639L115.519 139.652H115.135ZM147.417 165.38C147.417 151.94 156.729 143.012 169.785 143.012C182.361 143.012 189.273 151.268 190.233 161.444L180.537 162.116C179.673 155.78 176.121 151.844 169.785 151.844C163.449 151.844 159.033 156.548 159.033 165.38C159.033 174.116 163.449 178.82 169.785 178.82C176.121 178.82 179.673 174.788 180.537 168.356L190.233 169.22C189.273 179.396 182.361 187.652 169.785 187.652C156.729 187.652 147.417 178.82 147.417 165.38ZM196.87 175.748V152.228H190.822V145.412L193.702 144.932C197.83 144.26 198.982 142.148 199.942 138.212L201.286 132.452H208.294V144.164H219.814V152.228H208.294V173.156C208.294 176.804 209.926 178.436 213.382 178.436C215.686 178.436 218.086 177.572 220.582 176.42V184.004C217.51 186.308 214.054 187.652 208.87 187.652C202.342 187.652 196.87 184.772 196.87 175.748ZM225.198 144.164H236.718V186.5H225.198V144.164ZM225.006 137.252V126.02H236.814V137.252H225.006ZM269.233 186.5H256.561L239.857 144.164H251.953L263.185 173.732H263.569L274.705 144.164H285.937L269.233 186.5ZM313.454 168.164V167.108L305.486 168.836C300.494 169.892 296.942 170.756 296.942 174.98C296.942 177.86 299.15 179.588 302.798 179.588C308.846 179.588 313.454 174.98 313.454 168.164ZM324.686 159.332V176.228C324.686 178.436 325.838 179.492 327.662 179.492C328.814 179.492 329.966 179.204 331.214 178.628V184.772C329.39 186.212 327.086 187.46 323.246 187.46C318.446 187.46 315.374 184.676 314.318 180.068C311.918 184.964 306.158 187.556 299.918 187.556C291.086 187.556 285.71 183.14 285.71 175.844C285.71 167.78 292.238 164.42 301.838 162.5L313.454 160.196V159.236C313.454 154.532 310.958 151.652 306.062 151.652C301.262 151.652 298.67 154.532 297.71 158.66L287.246 157.7C288.686 149.06 295.31 143.012 306.542 143.012C317.486 143.012 324.686 148.196 324.686 159.332ZM335.722 175.748V152.228H329.674V145.412L332.554 144.932C336.682 144.26 337.834 142.148 338.794 138.212L340.138 132.452H347.146V144.164H358.666V152.228H347.146V173.156C347.146 176.804 348.778 178.436 352.234 178.436C354.538 178.436 356.938 177.572 359.434 176.42V184.004C356.362 186.308 352.906 187.652 347.722 187.652C341.194 187.652 335.722 184.772 335.722 175.748ZM364.049 144.164H375.569V186.5H364.049V144.164ZM363.857 137.252V126.02H375.665V137.252H363.857ZM392.437 165.38C392.437 173.348 396.085 178.916 403.093 178.916C410.197 178.916 413.845 173.348 413.845 165.38C413.845 157.316 410.197 151.748 403.093 151.748C396.085 151.748 392.437 157.316 392.437 165.38ZM425.461 165.38C425.461 178.532 416.245 187.652 403.093 187.652C390.037 187.652 380.821 178.532 380.821 165.38C380.821 152.228 390.037 143.012 403.093 143.012C416.245 143.012 425.461 152.228 425.461 165.38ZM442.323 163.844V186.5H430.803V144.164H442.323V151.076C444.435 146.276 449.811 143.012 456.147 143.012C467.475 143.012 471.603 150.692 471.603 160.1V186.5H460.083V162.404C460.083 155.876 457.491 152.132 451.827 152.132C445.971 152.132 442.323 156.74 442.323 163.844Z" fill="#0D1320"/>
<path d="M123.697 235.34L133.233 248.78V235.34H136.945V255.5H133.745L123.441 241.292V255.5H119.729V235.34H123.697ZM143.391 248.46C143.391 251.116 144.607 252.972 146.943 252.972C149.311 252.972 150.527 251.116 150.527 248.46C150.527 245.772 149.311 243.916 146.943 243.916C144.607 243.916 143.391 245.772 143.391 248.46ZM154.399 248.46C154.399 252.844 151.327 255.884 146.943 255.884C142.591 255.884 139.519 252.844 139.519 248.46C139.519 244.076 142.591 241.004 146.943 241.004C151.327 241.004 154.399 244.076 154.399 248.46ZM175.37 243.916C176.138 242.252 177.833 241.004 180.138 241.004C183.946 241.004 185.162 243.628 185.162 246.7V255.5H181.322V247.468C181.322 245.292 180.65 244.044 178.762 244.044C176.906 244.044 175.786 245.58 175.786 247.948V255.5H171.946V247.468C171.946 245.292 171.242 244.044 169.385 244.044C167.53 244.044 166.41 245.58 166.41 247.948V255.5H162.57V241.388H166.41V243.692C167.114 242.092 168.714 241.004 170.858 241.004C173.354 241.004 174.762 242.188 175.37 243.916ZM196.706 249.388V249.036L194.05 249.612C192.386 249.964 191.202 250.252 191.202 251.66C191.202 252.62 191.938 253.196 193.154 253.196C195.17 253.196 196.706 251.66 196.706 249.388ZM200.45 246.444V252.076C200.45 252.812 200.834 253.164 201.442 253.164C201.826 253.164 202.21 253.068 202.626 252.876V254.924C202.018 255.404 201.25 255.82 199.97 255.82C198.37 255.82 197.346 254.892 196.994 253.356C196.194 254.988 194.274 255.852 192.194 255.852C189.25 255.852 187.458 254.38 187.458 251.948C187.458 249.26 189.634 248.14 192.834 247.5L196.706 246.732V246.412C196.706 244.844 195.874 243.884 194.242 243.884C192.642 243.884 191.778 244.844 191.458 246.22L187.97 245.9C188.45 243.02 190.658 241.004 194.402 241.004C198.05 241.004 200.45 242.732 200.45 246.444ZM204.768 251.916V244.076H202.752V241.804L203.712 241.644C205.088 241.42 205.472 240.716 205.792 239.404L206.24 237.484H208.576V241.388H212.416V244.076H208.576V251.052C208.576 252.268 209.12 252.812 210.272 252.812C211.04 252.812 211.84 252.524 212.672 252.14V254.668C211.648 255.436 210.496 255.884 208.768 255.884C206.592 255.884 204.768 254.924 204.768 251.916ZM215.331 251.916V244.076H213.315V241.804L214.275 241.644C215.651 241.42 216.035 240.716 216.355 239.404L216.803 237.484H219.139V241.388H222.979V244.076H219.139V251.052C219.139 252.268 219.683 252.812 220.835 252.812C221.603 252.812 222.403 252.524 223.235 252.14V254.668C222.211 255.436 221.059 255.884 219.331 255.884C217.155 255.884 215.331 254.924 215.331 251.916ZM235.687 250.572L238.791 250.892C238.055 254.028 235.623 255.884 232.007 255.884C227.655 255.884 224.519 253.1 224.519 248.652C224.519 244.204 227.687 241.004 231.911 241.004C236.519 241.004 238.887 244.204 238.887 248.044V249.42H228.295C228.423 251.5 230.055 252.972 232.135 252.972C234.023 252.972 235.143 252.172 235.687 250.572ZM228.359 247.02H235.143C235.015 245.388 234.023 243.82 231.879 243.82C229.767 243.82 228.711 245.26 228.359 247.02ZM251.111 241.58L250.823 245.164C250.087 244.748 249.447 244.556 248.519 244.556C246.535 244.556 245.191 245.964 245.191 248.524V255.5H241.351V241.388H245.191V244.076C245.703 242.476 247.175 241.004 249.127 241.004C249.991 241.004 250.695 241.228 251.111 241.58ZM269.671 241.388L272.263 250.796H272.391L275.303 241.388H278.791L274.311 255.5H270.599L268.039 246.188H267.911L265.351 255.5H261.607L257.127 241.388H260.935L263.879 250.796H264.007L266.567 241.388H269.671ZM284.347 247.948V255.5H280.507V235.34H284.347V243.692C285.051 242.092 286.843 241.004 288.955 241.004C292.731 241.004 294.107 243.564 294.107 246.7V255.5H290.267V247.468C290.267 245.292 289.403 244.044 287.515 244.044C285.563 244.044 284.347 245.58 284.347 247.948ZM307.531 250.572L310.635 250.892C309.899 254.028 307.467 255.884 303.851 255.884C299.499 255.884 296.363 253.1 296.363 248.652C296.363 244.204 299.531 241.004 303.755 241.004C308.363 241.004 310.731 244.204 310.731 248.044V249.42H300.139C300.266 251.5 301.899 252.972 303.979 252.972C305.867 252.972 306.987 252.172 307.531 250.572ZM300.203 247.02H306.987C306.859 245.388 305.867 243.82 303.723 243.82C301.611 243.82 300.555 245.26 300.203 247.02ZM322.955 241.58L322.667 245.164C321.931 244.748 321.291 244.556 320.363 244.556C318.379 244.556 317.035 245.964 317.035 248.524V255.5H313.195V241.388H317.035V244.076C317.547 242.476 319.019 241.004 320.97 241.004C321.835 241.004 322.539 241.228 322.955 241.58ZM334.749 250.572L337.853 250.892C337.117 254.028 334.685 255.884 331.069 255.884C326.717 255.884 323.581 253.1 323.581 248.652C323.581 244.204 326.749 241.004 330.973 241.004C335.581 241.004 337.949 244.204 337.949 248.044V249.42H327.357C327.485 251.5 329.117 252.972 331.197 252.972C333.085 252.972 334.205 252.172 334.749 250.572ZM327.421 247.02H334.205C334.077 245.388 333.085 243.82 330.941 243.82C328.829 243.82 327.773 245.26 327.421 247.02ZM352.083 260.748H348.307L350.483 255.564L344.627 241.388H348.659L352.499 251.02H352.627L356.435 241.388H360.179L352.083 260.748ZM364.547 248.46C364.547 251.116 365.763 252.972 368.099 252.972C370.467 252.972 371.683 251.116 371.683 248.46C371.683 245.772 370.467 243.916 368.099 243.916C365.763 243.916 364.547 245.772 364.547 248.46ZM375.555 248.46C375.555 252.844 372.483 255.884 368.099 255.884C363.747 255.884 360.675 252.844 360.675 248.46C360.675 244.076 363.747 241.004 368.099 241.004C372.483 241.004 375.555 244.076 375.555 248.46ZM387.384 248.94V241.388H391.224V255.5H387.384V253.196C386.648 254.828 384.984 255.884 382.84 255.884C379.096 255.884 377.816 253.356 377.816 250.22V241.388H381.656V249.452C381.656 251.596 382.456 252.876 384.344 252.876C386.232 252.876 387.384 251.34 387.384 248.94ZM408.706 249.388V249.036L406.05 249.612C404.386 249.964 403.202 250.252 403.202 251.66C403.202 252.62 403.938 253.196 405.154 253.196C407.17 253.196 408.706 251.66 408.706 249.388ZM412.45 246.444V252.076C412.45 252.812 412.834 253.164 413.442 253.164C413.826 253.164 414.21 253.068 414.626 252.876V254.924C414.018 255.404 413.25 255.82 411.97 255.82C410.37 255.82 409.346 254.892 408.994 253.356C408.194 254.988 406.274 255.852 404.194 255.852C401.25 255.852 399.458 254.38 399.458 251.948C399.458 249.26 401.634 248.14 404.834 247.5L408.706 246.732V246.412C408.706 244.844 407.874 243.884 406.242 243.884C404.642 243.884 403.778 244.844 403.458 246.22L399.97 245.9C400.45 243.02 402.658 241.004 406.402 241.004C410.05 241.004 412.45 242.732 412.45 246.444ZM426.205 241.58L425.917 245.164C425.181 244.748 424.541 244.556 423.613 244.556C421.629 244.556 420.285 245.964 420.285 248.524V255.5H416.445V241.388H420.285V244.076C420.797 242.476 422.269 241.004 424.22 241.004C425.085 241.004 425.789 241.228 426.205 241.58ZM437.999 250.572L441.103 250.892C440.367 254.028 437.935 255.884 434.319 255.884C429.967 255.884 426.831 253.1 426.831 248.652C426.831 244.204 429.999 241.004 434.223 241.004C438.831 241.004 441.199 244.204 441.199 248.044V249.42H430.607C430.735 251.5 432.367 252.972 434.447 252.972C436.335 252.972 437.455 252.172 437.999 250.572ZM430.671 247.02H437.455C437.327 245.388 436.335 243.82 434.191 243.82C432.079 243.82 431.023 245.26 430.671 247.02Z" fill="white"/>
<path d="M51.1736 279.38L60.1016 291.836V279.38H61.5416V294.5H60.3416L50.9336 281.468V294.5H49.4936V279.38H51.1736ZM65.3777 289.292C65.3777 291.836 66.7217 293.636 69.0497 293.636C71.4017 293.636 72.7457 291.836 72.7457 289.292C72.7457 286.748 71.4017 284.948 69.0497 284.948C66.7217 284.948 65.3777 286.748 65.3777 289.292ZM74.2817 289.292C74.2817 292.532 72.0257 294.788 69.0497 294.788C66.0977 294.788 63.8417 292.532 63.8417 289.292C63.8417 286.052 66.0977 283.796 69.0497 283.796C72.0257 283.796 74.2817 286.052 74.2817 289.292ZM82.2438 288.26V294.5H80.7798V284.084H82.2438V286.004C82.7478 284.732 84.1878 283.796 85.7478 283.796C88.4358 283.796 89.5638 285.548 89.5638 288.044V294.5H88.0998V287.996C88.0998 286.148 87.1398 284.948 85.3638 284.948C83.7078 284.948 82.2438 286.244 82.2438 288.26ZM100.447 290.78L101.695 290.948C101.191 293.324 99.4625 294.788 96.9185 294.788C93.8945 294.788 91.6385 292.652 91.6385 289.436C91.6385 286.148 93.8705 283.796 96.8225 283.796C100.087 283.796 101.719 286.148 101.719 288.98V289.652H93.1505C93.2465 291.956 94.8545 293.588 96.9185 293.588C98.8385 293.588 100.015 292.628 100.447 290.78ZM93.1745 288.62H100.159C100.111 286.7 99.0305 284.948 96.8225 284.948C94.7585 284.948 93.4145 286.676 93.1745 288.62ZM112.095 290.78L113.343 290.948C112.839 293.324 111.111 294.788 108.567 294.788C105.543 294.788 103.287 292.652 103.287 289.436C103.287 286.148 105.519 283.796 108.471 283.796C111.735 283.796 113.367 286.148 113.367 288.98V289.652H104.799C104.895 291.956 106.503 293.588 108.567 293.588C110.487 293.588 111.663 292.628 112.095 290.78ZM104.823 288.62H111.807C111.759 286.7 110.679 284.948 108.471 284.948C106.407 284.948 105.063 286.676 104.823 288.62ZM123.647 289.652V288.932C123.647 286.436 122.015 284.996 119.951 284.996C117.743 284.996 116.471 286.652 116.471 289.292C116.471 291.932 117.743 293.588 119.951 293.588C122.015 293.588 123.647 292.148 123.647 289.652ZM123.599 294.5V292.22C123.143 293.54 121.775 294.788 119.759 294.788C116.663 294.788 114.935 292.364 114.935 289.292C114.935 286.22 116.663 283.796 119.759 283.796C121.775 283.796 123.143 285.068 123.599 286.388V279.38H125.063V294.5H123.599ZM132.609 292.196V285.164H131.001V284.444L131.625 284.324C132.585 284.132 132.777 283.676 132.993 282.668L133.305 281.18H134.049V284.084H137.073V285.164H134.049V292.22C134.049 293.156 134.433 293.612 135.393 293.612C136.113 293.612 136.833 293.252 137.433 292.892V293.924C136.689 294.5 135.945 294.788 134.889 294.788C133.497 294.788 132.609 294.092 132.609 292.196ZM139.956 289.292C139.956 291.836 141.3 293.636 143.628 293.636C145.98 293.636 147.324 291.836 147.324 289.292C147.324 286.748 145.98 284.948 143.628 284.948C141.3 284.948 139.956 286.748 139.956 289.292ZM148.86 289.292C148.86 292.532 146.604 294.788 143.628 294.788C140.676 294.788 138.42 292.532 138.42 289.292C138.42 286.052 140.676 283.796 143.628 283.796C146.604 283.796 148.86 286.052 148.86 289.292ZM159.75 294.5H158.574L154.158 284.084H155.694L159.198 292.532H159.294L162.726 284.084H164.166L159.75 294.5ZM165.835 284.084H167.299V294.5H165.835V284.084ZM165.787 281.324V279.38H167.347V281.324H165.787ZM169.426 290.972L170.602 290.828C170.818 292.628 172.042 293.636 174.034 293.636C175.642 293.636 176.77 293.036 176.77 291.812C176.77 290.66 175.954 290.3 174.49 290.036L172.69 289.724C170.866 289.412 169.738 288.572 169.738 286.892C169.738 285.02 171.298 283.796 173.578 283.796C176.266 283.796 177.826 285.068 177.994 287.54L176.866 287.636C176.602 285.764 175.498 284.948 173.578 284.948C172.09 284.948 171.106 285.62 171.106 286.724C171.106 287.732 171.706 288.236 173.002 288.452L174.922 288.764C176.962 289.1 178.162 289.82 178.162 291.668C178.162 293.708 176.338 294.788 174.058 294.788C171.538 294.788 169.594 293.54 169.426 290.972ZM180.366 284.084H181.83V294.5H180.366V284.084ZM180.318 281.324V279.38H181.878V281.324H180.318ZM185.062 292.196V285.164H183.454V284.444L184.078 284.324C185.038 284.132 185.23 283.676 185.446 282.668L185.758 281.18H186.502V284.084H189.526V285.164H186.502V292.22C186.502 293.156 186.886 293.612 187.846 293.612C188.566 293.612 189.286 293.252 189.886 292.892V293.924C189.142 294.5 188.398 294.788 187.342 294.788C185.95 294.788 185.062 294.092 185.062 292.196ZM202.623 289.772V289.124L200.079 289.676C198.183 290.084 197.007 290.468 197.007 291.86C197.007 292.844 197.655 293.66 199.023 293.66C201.063 293.66 202.623 292.1 202.623 289.772ZM204.015 287.732V292.748C204.015 293.3 204.351 293.564 204.879 293.564C205.119 293.564 205.527 293.468 205.815 293.3V294.092C205.503 294.452 205.167 294.716 204.447 294.716C203.415 294.716 202.671 293.828 202.623 292.508C202.071 293.732 200.535 294.788 198.759 294.788C196.815 294.788 195.519 293.708 195.519 291.908C195.519 289.94 197.247 289.148 199.839 288.62L202.623 288.044V287.516C202.623 285.932 201.687 284.948 200.055 284.948C198.375 284.948 197.439 285.932 197.079 287.276L195.831 287.036C196.239 285.164 197.775 283.796 200.031 283.796C202.623 283.796 204.015 285.164 204.015 287.732ZM211.772 279.38H213.236V294.5H211.772V279.38ZM216.948 289.292C216.948 291.836 218.292 293.636 220.62 293.636C222.972 293.636 224.316 291.836 224.316 289.292C224.316 286.748 222.972 284.948 220.62 284.948C218.292 284.948 216.948 286.748 216.948 289.292ZM225.852 289.292C225.852 292.532 223.596 294.788 220.62 294.788C217.668 294.788 215.412 292.532 215.412 289.292C215.412 286.052 217.668 283.796 220.62 283.796C223.596 283.796 225.852 286.052 225.852 289.292ZM227.412 289.292C227.412 285.98 229.572 283.796 232.668 283.796C235.692 283.796 237.324 285.836 237.516 288.356L236.172 288.452C236.028 286.46 234.804 285.02 232.62 285.02C230.436 285.02 228.948 286.724 228.948 289.292C228.948 291.86 230.436 293.564 232.62 293.564C234.804 293.564 236.028 292.076 236.172 290.084L237.516 290.228C237.324 292.748 235.692 294.788 232.668 294.788C229.572 294.788 227.412 292.604 227.412 289.292ZM246.334 289.772V289.124L243.79 289.676C241.894 290.084 240.718 290.468 240.718 291.86C240.718 292.844 241.366 293.66 242.734 293.66C244.774 293.66 246.334 292.1 246.334 289.772ZM247.726 287.732V292.748C247.726 293.3 248.062 293.564 248.59 293.564C248.83 293.564 249.238 293.468 249.526 293.3V294.092C249.214 294.452 248.878 294.716 248.158 294.716C247.126 294.716 246.382 293.828 246.334 292.508C245.782 293.732 244.246 294.788 242.47 294.788C240.526 294.788 239.23 293.708 239.23 291.908C239.23 289.94 240.958 289.148 243.55 288.62L246.334 288.044V287.516C246.334 285.932 245.398 284.948 243.766 284.948C242.086 284.948 241.15 285.932 240.79 287.276L239.542 287.036C239.95 285.164 241.486 283.796 243.742 283.796C246.334 283.796 247.726 285.164 247.726 287.732ZM251.17 279.38H252.634V294.5H251.17V279.38ZM259.075 290.972L260.251 290.828C260.467 292.628 261.691 293.636 263.683 293.636C265.291 293.636 266.419 293.036 266.419 291.812C266.419 290.66 265.603 290.3 264.139 290.036L262.339 289.724C260.515 289.412 259.387 288.572 259.387 286.892C259.387 285.02 260.947 283.796 263.227 283.796C265.915 283.796 267.475 285.068 267.643 287.54L266.515 287.636C266.251 285.764 265.147 284.948 263.227 284.948C261.739 284.948 260.755 285.62 260.755 286.724C260.755 287.732 261.355 288.236 262.651 288.452L264.571 288.764C266.611 289.1 267.811 289.82 267.811 291.668C267.811 293.708 265.987 294.788 263.707 294.788C261.187 294.788 259.243 293.54 259.075 290.972ZM270.374 292.196V285.164H268.766V284.444L269.39 284.324C270.35 284.132 270.542 283.676 270.758 282.668L271.07 281.18H271.814V284.084H274.838V285.164H271.814V292.22C271.814 293.156 272.198 293.612 273.158 293.612C273.878 293.612 274.598 293.252 275.198 292.892V293.924C274.454 294.5 273.71 294.788 272.654 294.788C271.262 294.788 270.374 294.092 270.374 292.196ZM277.721 289.292C277.721 291.836 279.065 293.636 281.393 293.636C283.745 293.636 285.089 291.836 285.089 289.292C285.089 286.748 283.745 284.948 281.393 284.948C279.065 284.948 277.721 286.748 277.721 289.292ZM286.625 289.292C286.625 292.532 284.369 294.788 281.393 294.788C278.441 294.788 276.185 292.532 276.185 289.292C276.185 286.052 278.441 283.796 281.393 283.796C284.369 283.796 286.625 286.052 286.625 289.292ZM294.763 284.276L294.595 285.548C293.995 285.236 293.635 285.14 293.011 285.14C291.499 285.14 290.275 286.7 290.275 288.788V294.5H288.811V284.084H290.275V286.268C290.683 285.068 291.739 283.796 293.275 283.796C293.923 283.796 294.379 283.94 294.763 284.276ZM304.095 290.78L305.343 290.948C304.839 293.324 303.111 294.788 300.567 294.788C297.543 294.788 295.287 292.652 295.287 289.436C295.287 286.148 297.519 283.796 300.471 283.796C303.735 283.796 305.367 286.148 305.367 288.98V289.652H296.799C296.895 291.956 298.503 293.588 300.567 293.588C302.487 293.588 303.663 292.628 304.095 290.78ZM296.823 288.62H303.807C303.759 286.7 302.679 284.948 300.471 284.948C298.407 284.948 297.063 286.676 296.823 288.62ZM312.714 289.292C312.714 291.836 314.058 293.636 316.386 293.636C318.738 293.636 320.082 291.836 320.082 289.292C320.082 286.748 318.738 284.948 316.386 284.948C314.058 284.948 312.714 286.748 312.714 289.292ZM321.618 289.292C321.618 292.532 319.362 294.788 316.386 294.788C313.434 294.788 311.178 292.532 311.178 289.292C311.178 286.052 313.434 283.796 316.386 283.796C319.362 283.796 321.618 286.052 321.618 289.292ZM329.755 284.276L329.587 285.548C328.987 285.236 328.627 285.14 328.003 285.14C326.491 285.14 325.267 286.7 325.267 288.788V294.5H323.803V284.084H325.267V286.268C325.675 285.068 326.731 283.796 328.267 283.796C328.915 283.796 329.371 283.94 329.755 284.276ZM342.287 284.084L344.735 292.532H344.831L347.399 284.084H348.791L345.479 294.5H344.087L341.663 286.196H341.567L339.167 294.5H337.775L334.439 284.084H335.903L338.519 292.532H338.615L341.015 284.084H342.287ZM356.982 289.772V289.124L354.438 289.676C352.542 290.084 351.366 290.468 351.366 291.86C351.366 292.844 352.014 293.66 353.382 293.66C355.422 293.66 356.982 292.1 356.982 289.772ZM358.374 287.732V292.748C358.374 293.3 358.71 293.564 359.238 293.564C359.478 293.564 359.886 293.468 360.174 293.3V294.092C359.862 294.452 359.526 294.716 358.806 294.716C357.774 294.716 357.03 293.828 356.982 292.508C356.43 293.732 354.894 294.788 353.118 294.788C351.174 294.788 349.878 293.708 349.878 291.908C349.878 289.94 351.606 289.148 354.198 288.62L356.982 288.044V287.516C356.982 285.932 356.046 284.948 354.414 284.948C352.734 284.948 351.798 285.932 351.438 287.276L350.19 287.036C350.598 285.164 352.134 283.796 354.39 283.796C356.982 283.796 358.374 285.164 358.374 287.732ZM361.819 284.084H363.283V294.5H361.819V284.084ZM361.771 281.324V279.38H363.331V281.324H361.771ZM366.515 292.196V285.164H364.907V284.444L365.531 284.324C366.491 284.132 366.683 283.676 366.899 282.668L367.211 281.18H367.955V284.084H370.979V285.164H367.955V292.22C367.955 293.156 368.339 293.612 369.299 293.612C370.019 293.612 370.739 293.252 371.339 292.892V293.924C370.595 294.5 369.851 294.788 368.795 294.788C367.403 294.788 366.515 294.092 366.515 292.196ZM377.452 284.084H378.916V294.5H377.452V284.084ZM377.404 281.324V279.38H378.964V281.324H377.404ZM383.252 288.26V294.5H381.788V284.084H383.252V286.004C383.756 284.732 385.196 283.796 386.756 283.796C389.444 283.796 390.572 285.548 390.572 288.044V294.5H389.108V287.996C389.108 286.148 388.148 284.948 386.372 284.948C384.716 284.948 383.252 286.244 383.252 288.26ZM397.655 279.38H399.119V294.5H397.655V279.38ZM402.831 289.292C402.831 291.836 404.175 293.636 406.503 293.636C408.855 293.636 410.199 291.836 410.199 289.292C410.199 286.748 408.855 284.948 406.503 284.948C404.175 284.948 402.831 286.748 402.831 289.292ZM411.735 289.292C411.735 292.532 409.479 294.788 406.503 294.788C403.551 294.788 401.295 292.532 401.295 289.292C401.295 286.052 403.551 283.796 406.503 283.796C409.479 283.796 411.735 286.052 411.735 289.292ZM415.384 288.26V294.5H413.92V284.084H415.384V286.004C415.888 284.732 417.328 283.796 418.888 283.796C421.576 283.796 422.704 285.548 422.704 288.044V294.5H421.24V287.996C421.24 286.148 420.28 284.948 418.504 284.948C416.848 284.948 415.384 286.244 415.384 288.26ZM433.731 287.324C433.731 289.508 431.955 290.852 429.507 290.852C428.643 290.852 427.875 290.708 427.227 290.396C426.795 290.612 426.363 291.044 426.363 291.596C426.363 292.244 426.723 292.58 427.731 292.58H431.763C433.995 292.58 435.171 293.732 435.171 295.34C435.171 297.908 432.363 298.868 429.315 298.868C426.555 298.868 424.275 297.908 424.275 295.988C424.275 294.716 425.163 293.924 426.483 293.636C425.523 293.348 425.139 292.7 425.139 291.932C425.139 291.044 425.763 290.444 426.603 290.012C425.787 289.412 425.307 288.476 425.307 287.324C425.307 285.14 427.059 283.796 429.507 283.796C430.851 283.796 432.003 284.204 432.747 284.948C433.299 284.108 434.211 283.532 435.315 283.532V284.948C434.523 284.948 433.683 285.164 433.179 285.452C433.539 285.98 433.731 286.604 433.731 287.324ZM425.763 295.628C425.763 297.164 427.227 297.812 429.315 297.812C431.907 297.812 433.755 297.188 433.755 295.388C433.755 294.284 432.819 293.876 431.427 293.876H428.139C426.867 293.876 425.763 294.284 425.763 295.628ZM432.243 287.348C432.243 285.74 431.235 284.804 429.507 284.804C427.827 284.804 426.819 285.74 426.819 287.348C426.819 288.932 427.827 289.868 429.507 289.868C431.235 289.868 432.243 288.932 432.243 287.348ZM449.077 289.652V288.932C449.077 286.436 447.445 284.996 445.381 284.996C443.173 284.996 441.901 286.652 441.901 289.292C441.901 291.932 443.173 293.588 445.381 293.588C447.445 293.588 449.077 292.148 449.077 289.652ZM449.029 298.58V292.22C448.573 293.54 447.205 294.788 445.189 294.788C442.093 294.788 440.365 292.364 440.365 289.292C440.365 286.22 442.093 283.796 445.189 283.796C447.205 283.796 448.573 285.068 449.029 286.388V284.084H450.493V298.58H449.029ZM460.446 290.324V284.084H461.91V294.5H460.446V292.58C459.942 293.852 458.55 294.788 456.99 294.788C454.302 294.788 453.246 293.036 453.246 290.54V284.084H454.71V290.588C454.71 292.436 455.598 293.636 457.374 293.636C459.03 293.636 460.446 292.34 460.446 290.324ZM472.892 290.78L474.14 290.948C473.636 293.324 471.908 294.788 469.364 294.788C466.34 294.788 464.084 292.652 464.084 289.436C464.084 286.148 466.316 283.796 469.268 283.796C472.532 283.796 474.164 286.148 474.164 288.98V289.652H465.596C465.692 291.956 467.3 293.588 469.364 293.588C471.284 293.588 472.46 292.628 472.892 290.78ZM465.62 288.62H472.604C472.556 286.7 471.476 284.948 469.268 284.948C467.204 284.948 465.86 286.676 465.62 288.62ZM483.438 290.324V284.084H484.902V294.5H483.438V292.58C482.934 293.852 481.542 294.788 479.982 294.788C477.294 294.788 476.238 293.036 476.238 290.54V284.084H477.702V290.588C477.702 292.436 478.59 293.636 480.366 293.636C482.022 293.636 483.438 292.34 483.438 290.324ZM495.884 290.78L497.132 290.948C496.628 293.324 494.9 294.788 492.356 294.788C489.332 294.788 487.076 292.652 487.076 289.436C487.076 286.148 489.308 283.796 492.26 283.796C495.524 283.796 497.156 286.148 497.156 288.98V289.652H488.588C488.684 291.956 490.292 293.588 492.356 293.588C494.276 293.588 495.452 292.628 495.884 290.78ZM488.612 288.62H495.596C495.548 286.7 494.468 284.948 492.26 284.948C490.196 284.948 488.852 286.676 488.612 288.62ZM498.723 290.972L499.899 290.828C500.115 292.628 501.339 293.636 503.331 293.636C504.939 293.636 506.067 293.036 506.067 291.812C506.067 290.66 505.251 290.3 503.787 290.036L501.987 289.724C500.163 289.412 499.035 288.572 499.035 286.892C499.035 285.02 500.595 283.796 502.875 283.796C505.563 283.796 507.123 285.068 507.291 287.54L506.163 287.636C505.899 285.764 504.795 284.948 502.875 284.948C501.387 284.948 500.403 285.62 500.403 286.724C500.403 287.732 501.003 288.236 502.299 288.452L504.219 288.764C506.259 289.1 507.459 289.82 507.459 291.668C507.459 293.708 505.635 294.788 503.355 294.788C500.835 294.788 498.891 293.54 498.723 290.972ZM509.183 294.5V292.58H511.103V294.5H509.183ZM32.9705 306.38H34.6025L40.9865 321.5H39.3785L37.3385 316.628H30.1865L28.2425 321.5H26.7545L32.9705 306.38ZM33.6665 308.012L30.7145 315.356H36.8105L33.7625 308.012H33.6665ZM41.9745 316.292C41.9745 312.98 44.1345 310.796 47.2305 310.796C50.2545 310.796 51.8865 312.836 52.0785 315.356L50.7345 315.452C50.5905 313.46 49.3665 312.02 47.1825 312.02C44.9985 312.02 43.5105 313.724 43.5105 316.292C43.5105 318.86 44.9985 320.564 47.1825 320.564C49.3665 320.564 50.5905 319.076 50.7345 317.084L52.0785 317.228C51.8865 319.748 50.2545 321.788 47.2305 321.788C44.1345 321.788 41.9745 319.604 41.9745 316.292ZM54.632 319.196V312.164H53.024V311.444L53.648 311.324C54.608 311.132 54.8 310.676 55.016 309.668L55.328 308.18H56.072V311.084H59.096V312.164H56.072V319.22C56.072 320.156 56.456 320.612 57.416 320.612C58.136 320.612 58.856 320.252 59.456 319.892V320.924C58.712 321.5 57.968 321.788 56.912 321.788C55.52 321.788 54.632 321.092 54.632 319.196ZM61.2564 311.084H62.7204V321.5H61.2564V311.084ZM61.2084 308.324V306.38H62.7684V308.324H61.2084ZM69.9843 321.5H68.8083L64.3923 311.084H65.9283L69.4323 319.532H69.5283L72.9603 311.084H74.4003L69.9843 321.5ZM82.4585 316.772V316.124L79.9145 316.676C78.0185 317.084 76.8425 317.468 76.8425 318.86C76.8425 319.844 77.4905 320.66 78.8585 320.66C80.8985 320.66 82.4585 319.1 82.4585 316.772ZM83.8505 314.732V319.748C83.8505 320.3 84.1865 320.564 84.7145 320.564C84.9545 320.564 85.3625 320.468 85.6505 320.3V321.092C85.3385 321.452 85.0025 321.716 84.2825 321.716C83.2505 321.716 82.5065 320.828 82.4585 319.508C81.9065 320.732 80.3705 321.788 78.5945 321.788C76.6505 321.788 75.3545 320.708 75.3545 318.908C75.3545 316.94 77.0825 316.148 79.6745 315.62L82.4585 315.044V314.516C82.4585 312.932 81.5225 311.948 79.8905 311.948C78.2105 311.948 77.2745 312.932 76.9145 314.276L75.6665 314.036C76.0745 312.164 77.6105 310.796 79.8665 310.796C82.4585 310.796 83.8505 312.164 83.8505 314.732ZM87.5383 319.196V312.164H85.9303V311.444L86.5543 311.324C87.5143 311.132 87.7063 310.676 87.9223 309.668L88.2343 308.18H88.9783V311.084H92.0023V312.164H88.9783V319.22C88.9783 320.156 89.3623 320.612 90.3223 320.612C91.0423 320.612 91.7623 320.252 92.3623 319.892V320.924C91.6183 321.5 90.8743 321.788 89.8183 321.788C88.4263 321.788 87.5383 321.092 87.5383 319.196ZM102.157 317.78L103.405 317.948C102.901 320.324 101.173 321.788 98.6295 321.788C95.6055 321.788 93.3495 319.652 93.3495 316.436C93.3495 313.148 95.5815 310.796 98.5335 310.796C101.797 310.796 103.429 313.148 103.429 315.98V316.652H94.8615C94.9575 318.956 96.5655 320.588 98.6295 320.588C100.549 320.588 101.725 319.628 102.157 317.78ZM94.8855 315.62H101.869C101.821 313.7 100.741 311.948 98.5335 311.948C96.4695 311.948 95.1255 313.676 94.8855 315.62ZM112.84 325.58H111.4L113.152 321.428L108.736 311.084H110.272L113.848 319.652H113.944L117.4 311.084H118.84L112.84 325.58ZM121.135 316.292C121.135 318.836 122.479 320.636 124.807 320.636C127.159 320.636 128.503 318.836 128.503 316.292C128.503 313.748 127.159 311.948 124.807 311.948C122.479 311.948 121.135 313.748 121.135 316.292ZM130.039 316.292C130.039 319.532 127.783 321.788 124.807 321.788C121.855 321.788 119.599 319.532 119.599 316.292C119.599 313.052 121.855 310.796 124.807 310.796C127.783 310.796 130.039 313.052 130.039 316.292ZM139.305 317.324V311.084H140.769V321.5H139.305V319.58C138.801 320.852 137.409 321.788 135.849 321.788C133.161 321.788 132.105 320.036 132.105 317.54V311.084H133.569V317.588C133.569 319.436 134.457 320.636 136.233 320.636C137.889 320.636 139.305 319.34 139.305 317.324ZM149.591 311.276L149.423 312.548C148.823 312.236 148.463 312.14 147.839 312.14C146.327 312.14 145.103 313.7 145.103 315.788V321.5H143.639V311.084H145.103V313.268C145.511 312.068 146.567 310.796 148.103 310.796C148.751 310.796 149.207 310.94 149.591 311.276ZM163.587 317.78L164.835 317.948C164.331 320.324 162.603 321.788 160.059 321.788C157.035 321.788 154.779 319.652 154.779 316.436C154.779 313.148 157.011 310.796 159.963 310.796C163.227 310.796 164.859 313.148 164.859 315.98V316.652H156.291C156.387 318.956 157.995 320.588 160.059 320.588C161.979 320.588 163.155 319.628 163.587 317.78ZM156.315 315.62H163.299C163.251 313.7 162.171 311.948 159.963 311.948C157.899 311.948 156.555 313.676 156.315 315.62ZM166.141 316.076L167.509 315.956C167.629 318.956 169.645 320.612 172.405 320.612C174.901 320.612 176.461 319.508 176.461 317.636C176.461 316.1 175.549 315.284 173.365 314.852L170.293 314.252C168.133 313.82 166.645 312.668 166.645 310.388C166.645 307.892 168.637 306.092 171.829 306.092C175.501 306.092 177.685 308.108 177.685 311.516L176.293 311.636C176.245 308.876 174.613 307.268 171.853 307.268C169.453 307.268 168.109 308.444 168.109 310.34C168.109 312.044 169.189 312.596 171.181 312.98L173.869 313.508C176.533 314.036 177.901 315.116 177.901 317.516C177.901 320.18 175.597 321.788 172.405 321.788C168.805 321.788 166.141 319.748 166.141 316.076ZM180.345 306.38H181.857V321.5H180.345V306.38ZM192.882 321.5H191.61L186.522 307.82H186.426V321.5H184.986V306.38H187.482L192.306 319.46H192.378L196.938 306.38H199.41V321.5H197.874V307.82H197.778L192.882 321.5ZM213.381 311.084L215.829 319.532H215.925L218.493 311.084H219.885L216.573 321.5H215.181L212.757 313.196H212.661L210.261 321.5H208.869L205.533 311.084H206.997L209.613 319.532H209.709L212.109 311.084H213.381ZM221.569 311.084H223.033V321.5H221.569V311.084ZM221.521 308.324V306.38H223.081V308.324H221.521ZM226.265 319.196V312.164H224.657V311.444L225.281 311.324C226.241 311.132 226.433 310.676 226.649 309.668L226.961 308.18H227.705V311.084H230.729V312.164H227.705V319.22C227.705 320.156 228.089 320.612 229.049 320.612C229.769 320.612 230.489 320.252 231.089 319.892V320.924C230.345 321.5 229.601 321.788 228.545 321.788C227.153 321.788 226.265 321.092 226.265 319.196ZM234.353 315.26V321.5H232.889V306.38H234.353V313.004C234.857 311.732 236.297 310.796 237.857 310.796C240.545 310.796 241.673 312.548 241.673 315.044V321.5H240.209V314.996C240.209 313.148 239.249 311.948 237.473 311.948C235.817 311.948 234.353 313.244 234.353 315.26ZM250.22 311.084V323.252C250.22 324.86 249.452 325.868 247.772 325.868C246.956 325.868 246.14 325.532 245.636 325.1L246.092 324.14C246.644 324.5 247.076 324.692 247.748 324.692C248.396 324.692 248.756 324.308 248.756 323.492V311.084H250.22ZM248.708 308.324V306.38H250.268V308.324H248.708ZM260.172 317.324V311.084H261.636V321.5H260.172V319.58C259.668 320.852 258.276 321.788 256.716 321.788C254.028 321.788 252.972 320.036 252.972 317.54V311.084H254.436V317.588C254.436 319.436 255.324 320.636 257.1 320.636C258.756 320.636 260.172 319.34 260.172 317.324ZM263.762 317.972L264.938 317.828C265.154 319.628 266.378 320.636 268.37 320.636C269.978 320.636 271.106 320.036 271.106 318.812C271.106 317.66 270.29 317.3 268.826 317.036L267.026 316.724C265.202 316.412 264.074 315.572 264.074 313.892C264.074 312.02 265.634 310.796 267.914 310.796C270.602 310.796 272.162 312.068 272.33 314.54L271.202 314.636C270.938 312.764 269.834 311.948 267.914 311.948C266.426 311.948 265.442 312.62 265.442 313.724C265.442 314.732 266.042 315.236 267.338 315.452L269.258 315.764C271.298 316.1 272.498 316.82 272.498 318.668C272.498 320.708 270.674 321.788 268.394 321.788C265.874 321.788 263.93 320.54 263.762 317.972ZM275.062 319.196V312.164H273.454V311.444L274.078 311.324C275.038 311.132 275.23 310.676 275.446 309.668L275.758 308.18H276.502V311.084H279.526V312.164H276.502V319.22C276.502 320.156 276.886 320.612 277.846 320.612C278.566 320.612 279.286 320.252 279.886 319.892V320.924C279.142 321.5 278.398 321.788 277.342 321.788C275.95 321.788 275.062 321.092 275.062 319.196ZM292.623 316.772V316.124L290.079 316.676C288.183 317.084 287.007 317.468 287.007 318.86C287.007 319.844 287.655 320.66 289.023 320.66C291.063 320.66 292.623 319.1 292.623 316.772ZM294.015 314.732V319.748C294.015 320.3 294.351 320.564 294.879 320.564C295.119 320.564 295.527 320.468 295.815 320.3V321.092C295.503 321.452 295.167 321.716 294.447 321.716C293.415 321.716 292.671 320.828 292.623 319.508C292.071 320.732 290.535 321.788 288.759 321.788C286.815 321.788 285.519 320.708 285.519 318.908C285.519 316.94 287.247 316.148 289.839 315.62L292.623 315.044V314.516C292.623 312.932 291.687 311.948 290.055 311.948C288.375 311.948 287.439 312.932 287.079 314.276L285.831 314.036C286.239 312.164 287.775 310.796 290.031 310.796C292.623 310.796 294.015 312.164 294.015 314.732ZM302.18 312.164H300.572V311.084H302.18V309.62C302.18 307.556 303.332 306.092 305.444 306.092C307.196 306.092 308.084 306.86 308.564 308.396L307.484 308.804C307.22 307.868 306.524 307.172 305.444 307.172C304.22 307.172 303.644 308.012 303.644 309.428V311.084H306.644V312.164H303.644V321.5H302.18V312.164ZM316.212 317.78L317.46 317.948C316.956 320.324 315.228 321.788 312.684 321.788C309.66 321.788 307.404 319.652 307.404 316.436C307.404 313.148 309.636 310.796 312.588 310.796C315.852 310.796 317.484 313.148 317.484 315.98V316.652H308.916C309.012 318.956 310.62 320.588 312.684 320.588C314.604 320.588 315.78 319.628 316.212 317.78ZM308.94 315.62H315.924C315.876 313.7 314.796 311.948 312.588 311.948C310.524 311.948 309.18 313.676 308.94 315.62ZM326.326 311.084L328.774 319.532H328.87L331.438 311.084H332.83L329.518 321.5H328.126L325.702 313.196H325.606L323.206 321.5H321.814L318.478 311.084H319.942L322.558 319.532H322.654L325.054 311.084H326.326ZM338.131 316.292C338.131 312.98 340.291 310.796 343.387 310.796C346.411 310.796 348.043 312.836 348.235 315.356L346.891 315.452C346.747 313.46 345.523 312.02 343.339 312.02C341.155 312.02 339.667 313.724 339.667 316.292C339.667 318.86 341.155 320.564 343.339 320.564C345.523 320.564 346.747 319.076 346.891 317.084L348.235 317.228C348.043 319.748 346.411 321.788 343.387 321.788C340.291 321.788 338.131 319.604 338.131 316.292ZM350.428 306.38H351.892V321.5H350.428V306.38ZM354.764 311.084H356.228V321.5H354.764V311.084ZM354.716 308.324V306.38H356.276V308.324H354.716ZM358.404 316.292C358.404 312.98 360.564 310.796 363.66 310.796C366.684 310.796 368.316 312.836 368.508 315.356L367.164 315.452C367.02 313.46 365.796 312.02 363.612 312.02C361.428 312.02 359.94 313.724 359.94 316.292C359.94 318.86 361.428 320.564 363.612 320.564C365.796 320.564 367.02 319.076 367.164 317.084L368.508 317.228C368.316 319.748 366.684 321.788 363.66 321.788C360.564 321.788 358.404 319.604 358.404 316.292ZM372.166 317.588V321.5H370.702V306.38H372.166V316.124L377.902 311.084H379.822L374.878 315.404L380.062 321.5H378.286L373.798 316.22L372.166 317.588ZM380.762 317.972L381.938 317.828C382.154 319.628 383.378 320.636 385.37 320.636C386.978 320.636 388.106 320.036 388.106 318.812C388.106 317.66 387.29 317.3 385.826 317.036L384.026 316.724C382.202 316.412 381.074 315.572 381.074 313.892C381.074 312.02 382.634 310.796 384.914 310.796C387.602 310.796 389.162 312.068 389.33 314.54L388.202 314.636C387.938 312.764 386.834 311.948 384.914 311.948C383.426 311.948 382.442 312.62 382.442 313.724C382.442 314.732 383.042 315.236 384.338 315.452L386.258 315.764C388.298 316.1 389.498 316.82 389.498 318.668C389.498 320.708 387.674 321.788 385.394 321.788C382.874 321.788 380.93 320.54 380.762 317.972ZM391.222 321.5V319.58H393.142V321.524C393.142 323.012 392.95 323.948 391.222 323.948V322.964C392.062 322.892 392.158 322.58 392.158 321.5H391.222ZM406.482 316.772V316.124L403.938 316.676C402.042 317.084 400.866 317.468 400.866 318.86C400.866 319.844 401.514 320.66 402.882 320.66C404.922 320.66 406.482 319.1 406.482 316.772ZM407.874 314.732V319.748C407.874 320.3 408.21 320.564 408.738 320.564C408.978 320.564 409.386 320.468 409.674 320.3V321.092C409.362 321.452 409.026 321.716 408.306 321.716C407.274 321.716 406.53 320.828 406.482 319.508C405.93 320.732 404.394 321.788 402.618 321.788C400.674 321.788 399.378 320.708 399.378 318.908C399.378 316.94 401.106 316.148 403.698 315.62L406.482 315.044V314.516C406.482 312.932 405.546 311.948 403.914 311.948C402.234 311.948 401.298 312.932 400.938 314.276L399.69 314.036C400.098 312.164 401.634 310.796 403.89 310.796C406.482 310.796 407.874 312.164 407.874 314.732ZM411.319 306.38H412.783V321.5H411.319V306.38ZM415.655 306.38H417.119V321.5H415.655V306.38ZM420.831 316.292C420.831 318.836 422.175 320.636 424.503 320.636C426.855 320.636 428.199 318.836 428.199 316.292C428.199 313.748 426.855 311.948 424.503 311.948C422.175 311.948 420.831 313.748 420.831 316.292ZM429.735 316.292C429.735 319.532 427.479 321.788 424.503 321.788C421.551 321.788 419.295 319.532 419.295 316.292C419.295 313.052 421.551 310.796 424.503 310.796C427.479 310.796 429.735 313.052 429.735 316.292ZM438.568 311.084L441.016 319.532H441.112L443.68 311.084H445.072L441.76 321.5H440.368L437.944 313.196H437.848L435.448 321.5H434.056L430.72 311.084H432.184L434.8 319.532H434.896L437.296 311.084H438.568ZM446.756 311.084H448.22V321.5H446.756V311.084ZM446.708 308.324V306.38H448.268V308.324H446.708ZM452.556 315.26V321.5H451.092V311.084H452.556V313.004C453.06 311.732 454.5 310.796 456.06 310.796C458.748 310.796 459.876 312.548 459.876 315.044V321.5H458.412V314.996C458.412 313.148 457.452 311.948 455.676 311.948C454.02 311.948 452.556 313.244 452.556 315.26ZM470.903 314.324C470.903 316.508 469.127 317.852 466.679 317.852C465.815 317.852 465.047 317.708 464.399 317.396C463.967 317.612 463.535 318.044 463.535 318.596C463.535 319.244 463.895 319.58 464.903 319.58H468.935C471.167 319.58 472.343 320.732 472.343 322.34C472.343 324.908 469.535 325.868 466.487 325.868C463.727 325.868 461.447 324.908 461.447 322.988C461.447 321.716 462.335 320.924 463.655 320.636C462.695 320.348 462.311 319.7 462.311 318.932C462.311 318.044 462.935 317.444 463.775 317.012C462.959 316.412 462.479 315.476 462.479 314.324C462.479 312.14 464.231 310.796 466.679 310.796C468.023 310.796 469.175 311.204 469.919 311.948C470.471 311.108 471.383 310.532 472.487 310.532V311.948C471.695 311.948 470.855 312.164 470.351 312.452C470.711 312.98 470.903 313.604 470.903 314.324ZM462.935 322.628C462.935 324.164 464.399 324.812 466.487 324.812C469.079 324.812 470.927 324.188 470.927 322.388C470.927 321.284 469.991 320.876 468.599 320.876H465.311C464.039 320.876 462.935 321.284 462.935 322.628ZM469.415 314.348C469.415 312.74 468.407 311.804 466.679 311.804C464.999 311.804 463.991 312.74 463.991 314.348C463.991 315.932 464.999 316.868 466.679 316.868C468.407 316.868 469.415 315.932 469.415 314.348ZM481.137 325.58H479.697L481.449 321.428L477.033 311.084H478.569L482.145 319.652H482.241L485.697 311.084H487.137L481.137 325.58ZM489.432 316.292C489.432 318.836 490.776 320.636 493.104 320.636C495.456 320.636 496.8 318.836 496.8 316.292C496.8 313.748 495.456 311.948 493.104 311.948C490.776 311.948 489.432 313.748 489.432 316.292ZM498.336 316.292C498.336 319.532 496.08 321.788 493.104 321.788C490.152 321.788 487.896 319.532 487.896 316.292C487.896 313.052 490.152 310.796 493.104 310.796C496.08 310.796 498.336 313.052 498.336 316.292ZM507.602 317.324V311.084H509.066V321.5H507.602V319.58C507.098 320.852 505.706 321.788 504.146 321.788C501.458 321.788 500.402 320.036 500.402 317.54V311.084H501.866V317.588C501.866 319.436 502.754 320.636 504.53 320.636C506.186 320.636 507.602 319.34 507.602 317.324ZM516.609 319.196V312.164H515.001V311.444L515.625 311.324C516.585 311.132 516.777 310.676 516.993 309.668L517.305 308.18H518.049V311.084H521.073V312.164H518.049V319.22C518.049 320.156 518.433 320.612 519.393 320.612C520.113 320.612 520.833 320.252 521.433 319.892V320.924C520.689 321.5 519.945 321.788 518.889 321.788C517.497 321.788 516.609 321.092 516.609 319.196ZM523.956 316.292C523.956 318.836 525.3 320.636 527.628 320.636C529.98 320.636 531.324 318.836 531.324 316.292C531.324 313.748 529.98 311.948 527.628 311.948C525.3 311.948 523.956 313.748 523.956 316.292ZM532.86 316.292C532.86 319.532 530.604 321.788 527.628 321.788C524.676 321.788 522.42 319.532 522.42 316.292C522.42 313.052 524.676 310.796 527.628 310.796C530.604 310.796 532.86 313.052 532.86 316.292ZM160.227 344.972L161.403 344.828C161.619 346.628 162.843 347.636 164.835 347.636C166.443 347.636 167.571 347.036 167.571 345.812C167.571 344.66 166.755 344.3 165.291 344.036L163.491 343.724C161.667 343.412 160.539 342.572 160.539 340.892C160.539 339.02 162.099 337.796 164.379 337.796C167.067 337.796 168.627 339.068 168.795 341.54L167.667 341.636C167.403 339.764 166.299 338.948 164.379 338.948C162.891 338.948 161.907 339.62 161.907 340.724C161.907 341.732 162.507 342.236 163.803 342.452L165.723 342.764C167.763 343.1 168.963 343.82 168.963 345.668C168.963 347.708 167.139 348.788 164.859 348.788C162.339 348.788 160.395 347.54 160.227 344.972ZM171.527 346.196V339.164H169.919V338.444L170.543 338.324C171.503 338.132 171.695 337.676 171.911 336.668L172.223 335.18H172.967V338.084H175.991V339.164H172.967V346.22C172.967 347.156 173.351 347.612 174.311 347.612C175.031 347.612 175.751 347.252 176.351 346.892V347.924C175.607 348.5 174.863 348.788 173.807 348.788C172.415 348.788 171.527 348.092 171.527 346.196ZM184.775 343.772V343.124L182.231 343.676C180.335 344.084 179.159 344.468 179.159 345.86C179.159 346.844 179.807 347.66 181.175 347.66C183.215 347.66 184.775 346.1 184.775 343.772ZM186.167 341.732V346.748C186.167 347.3 186.503 347.564 187.031 347.564C187.271 347.564 187.679 347.468 187.967 347.3V348.092C187.655 348.452 187.319 348.716 186.599 348.716C185.567 348.716 184.823 347.828 184.775 346.508C184.223 347.732 182.687 348.788 180.911 348.788C178.967 348.788 177.671 347.708 177.671 345.908C177.671 343.94 179.399 343.148 181.991 342.62L184.775 342.044V341.516C184.775 339.932 183.839 338.948 182.207 338.948C180.527 338.948 179.591 339.932 179.231 341.276L177.983 341.036C178.391 339.164 179.927 337.796 182.183 337.796C184.775 337.796 186.167 339.164 186.167 341.732ZM195.564 338.276L195.396 339.548C194.796 339.236 194.436 339.14 193.812 339.14C192.3 339.14 191.076 340.7 191.076 342.788V348.5H189.612V338.084H191.076V340.268C191.484 339.068 192.54 337.796 194.076 337.796C194.724 337.796 195.18 337.94 195.564 338.276ZM197.73 346.196V339.164H196.122V338.444L196.746 338.324C197.706 338.132 197.898 337.676 198.114 336.668L198.426 335.18H199.17V338.084H202.194V339.164H199.17V346.22C199.17 347.156 199.554 347.612 200.514 347.612C201.234 347.612 201.954 347.252 202.554 346.892V347.924C201.81 348.5 201.066 348.788 200.01 348.788C198.618 348.788 197.73 348.092 197.73 346.196ZM215.747 344.324V338.084H217.211V348.5H215.747V346.58C215.243 347.852 213.851 348.788 212.291 348.788C209.603 348.788 208.547 347.036 208.547 344.54V338.084H210.011V344.588C210.011 346.436 210.899 347.636 212.675 347.636C214.331 347.636 215.747 346.34 215.747 344.324ZM219.337 344.972L220.513 344.828C220.729 346.628 221.953 347.636 223.945 347.636C225.553 347.636 226.681 347.036 226.681 345.812C226.681 344.66 225.865 344.3 224.401 344.036L222.601 343.724C220.777 343.412 219.649 342.572 219.649 340.892C219.649 339.02 221.209 337.796 223.489 337.796C226.177 337.796 227.737 339.068 227.905 341.54L226.777 341.636C226.513 339.764 225.409 338.948 223.489 338.948C222.001 338.948 221.017 339.62 221.017 340.724C221.017 341.732 221.617 342.236 222.913 342.452L224.833 342.764C226.873 343.1 228.073 343.82 228.073 345.668C228.073 347.708 226.249 348.788 223.969 348.788C221.449 348.788 219.505 347.54 219.337 344.972ZM230.276 338.084H231.74V348.5H230.276V338.084ZM230.228 335.324V333.38H231.788V335.324H230.228ZM236.076 342.26V348.5H234.612V338.084H236.076V340.004C236.58 338.732 238.02 337.796 239.58 337.796C242.268 337.796 243.396 339.548 243.396 342.044V348.5H241.932V341.996C241.932 340.148 240.972 338.948 239.196 338.948C237.54 338.948 236.076 340.244 236.076 342.26ZM254.423 341.324C254.423 343.508 252.647 344.852 250.199 344.852C249.335 344.852 248.567 344.708 247.919 344.396C247.487 344.612 247.055 345.044 247.055 345.596C247.055 346.244 247.415 346.58 248.423 346.58H252.455C254.687 346.58 255.863 347.732 255.863 349.34C255.863 351.908 253.055 352.868 250.007 352.868C247.247 352.868 244.967 351.908 244.967 349.988C244.967 348.716 245.855 347.924 247.175 347.636C246.215 347.348 245.831 346.7 245.831 345.932C245.831 345.044 246.455 344.444 247.295 344.012C246.479 343.412 245.999 342.476 245.999 341.324C245.999 339.14 247.751 337.796 250.199 337.796C251.543 337.796 252.695 338.204 253.439 338.948C253.991 338.108 254.903 337.532 256.007 337.532V338.948C255.215 338.948 254.375 339.164 253.871 339.452C254.231 339.98 254.423 340.604 254.423 341.324ZM246.455 349.628C246.455 351.164 247.919 351.812 250.007 351.812C252.599 351.812 254.447 351.188 254.447 349.388C254.447 348.284 253.511 347.876 252.119 347.876H248.831C247.559 347.876 246.455 348.284 246.455 349.628ZM252.935 341.348C252.935 339.74 251.927 338.804 250.199 338.804C248.519 338.804 247.511 339.74 247.511 341.348C247.511 342.932 248.519 343.868 250.199 343.868C251.927 343.868 252.935 342.932 252.935 341.348ZM269.769 343.652V342.932C269.769 340.436 268.137 338.996 266.073 338.996C263.865 338.996 262.593 340.652 262.593 343.292C262.593 345.932 263.865 347.588 266.073 347.588C268.137 347.588 269.769 346.148 269.769 343.652ZM269.721 348.5V346.22C269.265 347.54 267.897 348.788 265.881 348.788C262.785 348.788 261.057 346.364 261.057 343.292C261.057 340.22 262.785 337.796 265.881 337.796C267.897 337.796 269.265 339.068 269.721 340.388V333.38H271.185V348.5H269.721ZM280.681 343.772V343.124L278.137 343.676C276.241 344.084 275.065 344.468 275.065 345.86C275.065 346.844 275.713 347.66 277.081 347.66C279.121 347.66 280.681 346.1 280.681 343.772ZM282.073 341.732V346.748C282.073 347.3 282.409 347.564 282.937 347.564C283.177 347.564 283.585 347.468 283.873 347.3V348.092C283.561 348.452 283.225 348.716 282.505 348.716C281.473 348.716 280.729 347.828 280.681 346.508C280.129 347.732 278.593 348.788 276.817 348.788C274.873 348.788 273.577 347.708 273.577 345.908C273.577 343.94 275.305 343.148 277.897 342.62L280.681 342.044V341.516C280.681 339.932 279.745 338.948 278.113 338.948C276.433 338.948 275.497 339.932 275.137 341.276L273.889 341.036C274.297 339.164 275.833 337.796 278.089 337.796C280.681 337.796 282.073 339.164 282.073 341.732ZM285.761 346.196V339.164H284.153V338.444L284.777 338.324C285.737 338.132 285.929 337.676 286.145 336.668L286.457 335.18H287.201V338.084H290.225V339.164H287.201V346.22C287.201 347.156 287.585 347.612 288.545 347.612C289.265 347.612 289.985 347.252 290.585 346.892V347.924C289.841 348.5 289.097 348.788 288.041 348.788C286.649 348.788 285.761 348.092 285.761 346.196ZM299.009 343.772V343.124L296.465 343.676C294.569 344.084 293.393 344.468 293.393 345.86C293.393 346.844 294.041 347.66 295.409 347.66C297.449 347.66 299.009 346.1 299.009 343.772ZM300.401 341.732V346.748C300.401 347.3 300.737 347.564 301.265 347.564C301.505 347.564 301.913 347.468 302.201 347.3V348.092C301.889 348.452 301.553 348.716 300.833 348.716C299.801 348.716 299.057 347.828 299.009 346.508C298.457 347.732 296.921 348.788 295.145 348.788C293.201 348.788 291.905 347.708 291.905 345.908C291.905 343.94 293.633 343.148 296.225 342.62L299.009 342.044V341.516C299.009 339.932 298.073 338.948 296.441 338.948C294.761 338.948 293.825 339.932 293.465 341.276L292.217 341.036C292.625 339.164 294.161 337.796 296.417 337.796C299.009 337.796 300.401 339.164 300.401 341.732ZM314.111 338.276L313.943 339.548C313.343 339.236 312.983 339.14 312.359 339.14C310.847 339.14 309.623 340.7 309.623 342.788V348.5H308.159V338.084H309.623V340.268C310.031 339.068 311.087 337.796 312.623 337.796C313.271 337.796 313.727 337.94 314.111 338.276ZM315.682 338.084H317.146V348.5H315.682V338.084ZM315.634 335.324V333.38H317.194V335.324H315.634ZM328.274 341.324C328.274 343.508 326.498 344.852 324.05 344.852C323.186 344.852 322.418 344.708 321.77 344.396C321.338 344.612 320.906 345.044 320.906 345.596C320.906 346.244 321.266 346.58 322.274 346.58H326.306C328.538 346.58 329.714 347.732 329.714 349.34C329.714 351.908 326.906 352.868 323.858 352.868C321.098 352.868 318.818 351.908 318.818 349.988C318.818 348.716 319.706 347.924 321.026 347.636C320.066 347.348 319.682 346.7 319.682 345.932C319.682 345.044 320.306 344.444 321.146 344.012C320.33 343.412 319.85 342.476 319.85 341.324C319.85 339.14 321.602 337.796 324.05 337.796C325.394 337.796 326.546 338.204 327.29 338.948C327.842 338.108 328.754 337.532 329.858 337.532V338.948C329.066 338.948 328.226 339.164 327.722 339.452C328.082 339.98 328.274 340.604 328.274 341.324ZM320.306 349.628C320.306 351.164 321.77 351.812 323.858 351.812C326.45 351.812 328.298 351.188 328.298 349.388C328.298 348.284 327.362 347.876 325.97 347.876H322.682C321.41 347.876 320.306 348.284 320.306 349.628ZM326.786 341.348C326.786 339.74 325.778 338.804 324.05 338.804C322.37 338.804 321.362 339.74 321.362 341.348C321.362 342.932 322.37 343.868 324.05 343.868C325.778 343.868 326.786 342.932 326.786 341.348ZM332.756 342.26V348.5H331.292V333.38H332.756V340.004C333.26 338.732 334.7 337.796 336.26 337.796C338.948 337.796 340.076 339.548 340.076 342.044V348.5H338.612V341.996C338.612 340.148 337.652 338.948 335.876 338.948C334.22 338.948 332.756 340.244 332.756 342.26ZM343.206 346.196V339.164H341.598V338.444L342.222 338.324C343.182 338.132 343.374 337.676 343.59 336.668L343.902 335.18H344.646V338.084H347.67V339.164H344.646V346.22C344.646 347.156 345.03 347.612 345.99 347.612C346.71 347.612 347.43 347.252 348.03 346.892V347.924C347.286 348.5 346.542 348.788 345.486 348.788C344.094 348.788 343.206 348.092 343.206 346.196ZM360.767 343.772V343.124L358.223 343.676C356.327 344.084 355.151 344.468 355.151 345.86C355.151 346.844 355.799 347.66 357.167 347.66C359.207 347.66 360.767 346.1 360.767 343.772ZM362.159 341.732V346.748C362.159 347.3 362.495 347.564 363.023 347.564C363.263 347.564 363.671 347.468 363.959 347.3V348.092C363.647 348.452 363.311 348.716 362.591 348.716C361.559 348.716 360.815 347.828 360.767 346.508C360.215 347.732 358.679 348.788 356.903 348.788C354.959 348.788 353.663 347.708 353.663 345.908C353.663 343.94 355.391 343.148 357.983 342.62L360.767 342.044V341.516C360.767 339.932 359.831 338.948 358.199 338.948C356.519 338.948 355.583 339.932 355.223 341.276L353.975 341.036C354.383 339.164 355.919 337.796 358.175 337.796C360.767 337.796 362.159 339.164 362.159 341.732ZM372.135 338.084L374.583 346.532H374.679L377.247 338.084H378.639L375.327 348.5H373.935L371.511 340.196H371.415L369.015 348.5H367.623L364.287 338.084H365.751L368.367 346.532H368.463L370.863 338.084H372.135ZM386.83 343.772V343.124L384.286 343.676C382.39 344.084 381.214 344.468 381.214 345.86C381.214 346.844 381.862 347.66 383.23 347.66C385.27 347.66 386.83 346.1 386.83 343.772ZM388.222 341.732V346.748C388.222 347.3 388.558 347.564 389.086 347.564C389.326 347.564 389.734 347.468 390.022 347.3V348.092C389.71 348.452 389.374 348.716 388.654 348.716C387.622 348.716 386.878 347.828 386.83 346.508C386.278 347.732 384.742 348.788 382.966 348.788C381.022 348.788 379.726 347.708 379.726 345.908C379.726 343.94 381.454 343.148 384.046 342.62L386.83 342.044V341.516C386.83 339.932 385.894 338.948 384.262 338.948C382.582 338.948 381.646 339.932 381.286 341.276L380.038 341.036C380.446 339.164 381.982 337.796 384.238 337.796C386.83 337.796 388.222 339.164 388.222 341.732ZM394.219 352.58H392.779L394.531 348.428L390.115 338.084H391.651L395.227 346.652H395.323L398.779 338.084H400.219L394.219 352.58Z" fill="#D0D5DD"/>
<g clip-path="url(#clip1_199_15389)">
<rect x="180" y="421.5" width="200" height="50" rx="25" fill="#101828"/>
<path d="M237.828 451.692C235.012 451.692 232.916 449.58 232.916 446.46C232.916 443.356 235.14 441.228 237.972 441.228C240.884 441.228 242.564 442.828 242.772 445.372L240.82 445.452C240.692 443.964 239.7 442.988 238.02 442.988C236.18 442.988 234.996 444.348 234.996 446.46C234.996 448.62 236.212 449.996 238.18 449.996C239.604 449.996 240.644 449.18 240.932 447.9H238.26V446.412H242.804V451.5H241.028V450.012C240.532 451.132 239.268 451.692 237.828 451.692ZM249.593 449.036L251.145 449.196C250.777 450.764 249.561 451.692 247.753 451.692C245.577 451.692 244.009 450.3 244.009 448.076C244.009 445.852 245.593 444.252 247.705 444.252C250.009 444.252 251.193 445.852 251.193 447.772V448.46H245.897C245.961 449.5 246.777 450.236 247.817 450.236C248.761 450.236 249.321 449.836 249.593 449.036ZM245.929 447.26H249.321C249.257 446.444 248.761 445.66 247.689 445.66C246.633 445.66 246.105 446.38 245.929 447.26ZM252.665 449.708V445.788H251.657V444.652L252.137 444.572C252.825 444.46 253.017 444.108 253.177 443.452L253.401 442.492H254.569V444.444H256.489V445.788H254.569V449.276C254.569 449.884 254.841 450.156 255.417 450.156C255.801 450.156 256.201 450.012 256.617 449.82V451.084C256.105 451.468 255.529 451.692 254.665 451.692C253.577 451.692 252.665 451.212 252.665 449.708ZM264.822 445.692L267.462 441.42H269.622L265.718 447.612V451.5H263.766V447.612L259.862 441.42H262.086L264.822 445.692ZM270.633 447.98C270.633 449.308 271.241 450.236 272.409 450.236C273.593 450.236 274.201 449.308 274.201 447.98C274.201 446.636 273.593 445.708 272.409 445.708C271.241 445.708 270.633 446.636 270.633 447.98ZM276.137 447.98C276.137 450.172 274.601 451.692 272.409 451.692C270.233 451.692 268.697 450.172 268.697 447.98C268.697 445.788 270.233 444.252 272.409 444.252C274.601 444.252 276.137 445.788 276.137 447.98ZM282.051 448.22V444.444H283.971V451.5H282.051V450.348C281.683 451.164 280.851 451.692 279.779 451.692C277.907 451.692 277.267 450.428 277.267 448.86V444.444H279.187V448.476C279.187 449.548 279.587 450.188 280.531 450.188C281.475 450.188 282.051 449.42 282.051 448.22ZM290.477 444.54L290.333 446.332C289.965 446.124 289.645 446.028 289.181 446.028C288.189 446.028 287.517 446.732 287.517 448.012V451.5H285.597V444.444H287.517V445.788C287.773 444.988 288.509 444.252 289.485 444.252C289.917 444.252 290.269 444.364 290.477 444.54ZM299.422 449.036L300.974 449.196C300.606 450.764 299.39 451.692 297.582 451.692C295.406 451.692 293.838 450.3 293.838 448.076C293.838 445.852 295.422 444.252 297.534 444.252C299.838 444.252 301.022 445.852 301.022 447.772V448.46H295.726C295.789 449.5 296.606 450.236 297.646 450.236C298.59 450.236 299.15 449.836 299.422 449.036ZM295.758 447.26H299.15C299.086 446.444 298.59 445.66 297.518 445.66C296.462 445.66 295.934 446.38 295.758 447.26ZM301.774 447.916L303.614 447.836C303.694 449.404 304.83 450.108 306.238 450.108C307.486 450.108 308.286 449.612 308.286 448.764C308.286 447.996 307.678 447.708 306.622 447.5L304.702 447.148C303.134 446.86 302.046 445.996 302.046 444.332C302.046 442.444 303.534 441.228 305.886 441.228C308.526 441.228 310.014 442.588 310.046 444.828L308.206 444.892C308.142 443.516 307.246 442.796 305.87 442.796C304.686 442.796 304.014 443.324 304.014 444.188C304.014 444.924 304.542 445.18 305.454 445.356L307.31 445.692C309.294 446.06 310.222 447.004 310.222 448.636C310.222 450.62 308.51 451.692 306.238 451.692C303.646 451.692 301.774 450.348 301.774 447.916ZM311.472 444.444H313.392V451.5H311.472V444.444ZM311.44 443.292V441.42H313.408V443.292H311.44ZM321.404 445.708C321.788 444.876 322.635 444.252 323.788 444.252C325.692 444.252 326.3 445.564 326.3 447.1V451.5H324.38V447.484C324.38 446.396 324.044 445.772 323.1 445.772C322.172 445.772 321.612 446.54 321.612 447.724V451.5H319.692V447.484C319.692 446.396 319.34 445.772 318.411 445.772C317.484 445.772 316.924 446.54 316.924 447.724V451.5H315.004V444.444H316.924V445.596C317.276 444.796 318.076 444.252 319.148 444.252C320.396 444.252 321.1 444.844 321.404 445.708Z" fill="white"/>
</g>
<circle cx="264" cy="519.5" r="4" fill="#475467"/>
<circle cx="280" cy="519.5" r="4" fill="#475467"/>
<circle cx="296" cy="519.5" r="4" fill="#0D1320"/>
</g>
<defs>
<clipPath id="clip0_199_15389">
<rect width="560" height="523" fill="white" transform="translate(0 0.5)"/>
</clipPath>
<clipPath id="clip1_199_15389">
<rect x="180" y="421.5" width="200" height="50" rx="25" fill="white"/>
</clipPath>
</defs>
</svg>
