<svg width="560" height="524" viewBox="0 0 560 524" fill="none" xmlns="http://www.w3.org/2000/svg">
<g clip-path="url(#clip0_199_15358)">
<path d="M243.918 11.348C243.918 13.964 242.046 15.5 238.518 15.5H232.494V0.379999H238.326C242.022 0.379999 243.486 2.012 243.486 4.364C243.486 6.14 242.214 7.364 240.582 7.652C242.478 7.964 243.918 9.188 243.918 11.348ZM238.638 8.276H233.958V14.228H238.638C241.11 14.228 242.454 13.148 242.454 11.276C242.454 9.38 241.11 8.276 238.638 8.276ZM233.958 1.652V7.052H238.566C240.966 7.052 241.998 6.044 241.998 4.364C241.998 2.732 240.966 1.652 238.566 1.652H233.958ZM256.856 14.228V15.5H246.392V0.379999H256.64V1.652H247.856V7.028H254.888V8.3H247.856V14.228H256.856ZM261.056 0.379999L269.984 12.836V0.379999H271.424V15.5H270.224L260.816 2.468V15.5H259.376V0.379999H261.056ZM285.004 14.228V15.5H274.54V0.379999H284.788V1.652H276.004V7.028H283.036V8.3H276.004V14.228H285.004ZM289.013 15.5H287.525V0.379999H297.533V1.652H289.013V7.268H295.781V8.54H289.013V15.5ZM299.689 0.379999H301.201V15.5H299.689V0.379999ZM310.354 15.5H308.842V1.652H303.25V0.379999H316.018V1.652H310.354V15.5ZM316.423 10.076L317.791 9.956C317.911 12.956 319.927 14.612 322.687 14.612C325.183 14.612 326.743 13.508 326.743 11.636C326.743 10.1 325.831 9.284 323.647 8.852L320.575 8.252C318.415 7.82 316.927 6.668 316.927 4.388C316.927 1.892 318.919 0.0919995 322.111 0.0919995C325.783 0.0919995 327.967 2.108 327.967 5.516L326.575 5.636C326.527 2.876 324.895 1.268 322.135 1.268C319.735 1.268 318.391 2.444 318.391 4.34C318.391 6.044 319.471 6.596 321.463 6.98L324.151 7.508C326.815 8.036 328.183 9.116 328.183 11.516C328.183 14.18 325.879 15.788 322.687 15.788C319.087 15.788 316.423 13.748 316.423 10.076Z" fill="#EAECF0"/>
<path d="M18.7581 96.5H6.75812V36.02H50.0541V46.004H18.7581V62.132H42.9501V71.924H18.7581V96.5ZM76.1129 78.164V77.108L68.1449 78.836C63.1529 79.892 59.6009 80.756 59.6009 84.98C59.6009 87.86 61.8089 89.588 65.4569 89.588C71.5049 89.588 76.1129 84.98 76.1129 78.164ZM87.3449 69.332V86.228C87.3449 88.436 88.4969 89.492 90.3209 89.492C91.4729 89.492 92.6249 89.204 93.8729 88.628V94.772C92.0489 96.212 89.7449 97.46 85.9049 97.46C81.1049 97.46 78.0329 94.676 76.9769 90.068C74.5769 94.964 68.8169 97.556 62.5769 97.556C53.7449 97.556 48.3689 93.14 48.3689 85.844C48.3689 77.78 54.8969 74.42 64.4969 72.5L76.1129 70.196V69.236C76.1129 64.532 73.6169 61.652 68.7209 61.652C63.9209 61.652 61.3289 64.532 60.3689 68.66L49.9049 67.7C51.3449 59.06 57.9689 53.012 69.2009 53.012C80.1449 53.012 87.3449 58.196 87.3449 69.332ZM94.3371 82.484L104.321 82.1C104.993 87.188 108.833 89.78 114.689 89.78C118.913 89.78 122.369 88.34 122.369 85.268C122.369 82.388 120.449 81.14 116.225 80.468L109.505 79.316C100.481 77.876 95.4891 74.516 95.4891 66.644C95.4891 58.58 102.305 53.012 113.057 53.012C124.769 53.012 131.777 58.292 132.545 67.7L123.041 68.084C122.273 63.284 119.009 60.884 112.961 60.884C108.833 60.884 106.145 62.708 106.145 65.588C106.145 67.892 107.681 69.236 110.753 69.716L118.817 71.06C127.745 72.5 133.025 76.244 133.025 84.212C133.025 92.852 125.537 97.652 114.593 97.652C103.553 97.652 95.1051 92.852 94.3371 82.484ZM139.773 85.748V62.228H133.725V55.412L136.605 54.932C140.733 54.26 141.885 52.148 142.845 48.212L144.189 42.452H151.197V54.164H162.717V62.228H151.197V83.156C151.197 86.804 152.829 88.436 156.285 88.436C158.589 88.436 160.989 87.572 163.485 86.42V94.004C160.413 96.308 156.957 97.652 151.773 97.652C145.245 97.652 139.773 94.772 139.773 85.748ZM226.63 65.492L236.806 65.972C234.982 72.404 231.814 79.028 227.302 84.5C229.894 87.188 231.91 88.724 235.366 88.724C236.902 88.724 238.246 88.532 240.262 88.052V95.252C238.438 96.404 235.558 97.268 232.102 97.268C228.454 97.268 224.71 96.212 219.622 91.796C214.534 95.444 208.486 97.652 201.574 97.652C189.67 97.652 180.55 91.7 180.55 80.756C180.55 72.98 185.158 68.276 193.318 63.956C189.67 59.828 187.27 56.084 187.27 50.516C187.27 40.82 195.238 34.868 205.318 34.868C216.166 34.868 222.022 40.916 222.022 48.884C222.022 56.756 217.798 60.788 209.062 65.3L220.966 77.78C223.462 74.228 225.382 70.004 226.63 65.492ZM202.054 88.628C206.182 88.628 210.022 87.476 213.286 85.364L199.078 70.196C194.854 72.692 192.166 75.38 192.166 80.276C192.166 85.652 196.39 88.628 202.054 88.628ZM198.214 50.228C198.214 53.78 200.71 56.468 203.302 59.348C209.734 56.276 211.846 53.972 211.846 49.556C211.846 46.196 209.734 43.124 205.318 43.124C201.286 43.124 198.214 45.812 198.214 50.228ZM310.738 96.5H298.45C297.202 94.868 296.434 90.74 295.954 84.02C295.474 77.204 292.402 74.132 285.49 74.132H271.282V96.5H259.474V36.02H286.834C302.29 36.02 309.874 43.22 309.874 54.452C309.874 63.572 303.922 68.852 296.53 69.812C303.442 71.156 306.994 75.188 307.666 82.292C308.434 91.22 308.722 94.292 310.738 96.5ZM271.282 64.724H285.202C293.938 64.724 297.97 61.844 297.97 55.316C297.97 49.268 293.938 45.716 285.202 45.716H271.282V64.724ZM347.147 81.716L356.459 82.676C354.251 92.084 346.955 97.652 336.107 97.652C323.051 97.652 313.643 89.3 313.643 75.956C313.643 62.612 323.147 53.012 335.819 53.012C349.643 53.012 356.747 62.612 356.747 74.132V78.26H324.971C325.355 84.5 330.251 88.916 336.491 88.916C342.155 88.916 345.515 86.516 347.147 81.716ZM325.163 71.06H345.515C345.131 66.164 342.155 61.46 335.723 61.46C329.387 61.46 326.219 65.78 325.163 71.06ZM362.219 36.02H373.739V96.5H362.219V36.02ZM381.487 54.164H393.007V96.5H381.487V54.164ZM381.295 47.252V36.02H393.103V47.252H381.295ZM426.194 78.164V77.108L418.226 78.836C413.234 79.892 409.682 80.756 409.682 84.98C409.682 87.86 411.89 89.588 415.538 89.588C421.586 89.588 426.194 84.98 426.194 78.164ZM437.426 69.332V86.228C437.426 88.436 438.578 89.492 440.402 89.492C441.554 89.492 442.706 89.204 443.954 88.628V94.772C442.13 96.212 439.826 97.46 435.986 97.46C431.186 97.46 428.114 94.676 427.058 90.068C424.658 94.964 418.898 97.556 412.658 97.556C403.826 97.556 398.45 93.14 398.45 85.844C398.45 77.78 404.978 74.42 414.578 72.5L426.194 70.196V69.236C426.194 64.532 423.698 61.652 418.802 61.652C414.002 61.652 411.41 64.532 410.45 68.66L399.986 67.7C401.426 59.06 408.05 53.012 419.282 53.012C430.226 53.012 437.426 58.196 437.426 69.332ZM458.914 74.516V76.148C458.914 83.924 463.522 88.628 470.05 88.628C477.346 88.628 481.09 83.348 481.09 75.38C481.09 67.316 477.346 62.036 470.05 62.036C463.522 62.036 458.914 66.836 458.914 74.516ZM458.434 88.34L456.322 96.5H447.49V36.02H459.01V62.324C460.93 57.14 466.018 53.012 473.602 53.012C486.082 53.012 492.706 62.9 492.706 75.38C492.706 87.86 486.082 97.652 473.41 97.652C466.018 97.652 460.642 93.62 458.434 88.34ZM498.07 36.02H509.59V96.5H498.07V36.02ZM548.346 81.716L557.658 82.676C555.45 92.084 548.154 97.652 537.306 97.652C524.25 97.652 514.842 89.3 514.842 75.956C514.842 62.612 524.346 53.012 537.018 53.012C550.842 53.012 557.946 62.612 557.946 74.132V78.26H526.17C526.554 84.5 531.45 88.916 537.69 88.916C543.354 88.916 546.714 86.516 548.346 81.716ZM526.362 71.06H546.714C546.33 66.164 543.354 61.46 536.922 61.46C530.586 61.46 527.418 65.78 526.362 71.06ZM60.136 156.26C60.136 137.636 73.288 124.868 90.472 124.868C108.328 124.868 118.216 136.1 119.272 151.364L107.752 151.844C106.888 142.82 101.512 135.428 90.472 135.428C79.72 135.428 72.616 143.492 72.616 156.26C72.616 169.028 79.72 177.092 90.472 177.092C101.512 177.092 106.888 169.7 107.752 160.676L119.272 161.156C118.216 176.516 108.328 187.652 90.472 187.652C73.288 187.652 60.136 174.884 60.136 156.26ZM134.049 165.38C134.049 173.348 137.697 178.916 144.705 178.916C151.809 178.916 155.457 173.348 155.457 165.38C155.457 157.316 151.809 151.748 144.705 151.748C137.697 151.748 134.049 157.316 134.049 165.38ZM167.073 165.38C167.073 178.532 157.857 187.652 144.705 187.652C131.649 187.652 122.433 178.532 122.433 165.38C122.433 152.228 131.649 143.012 144.705 143.012C157.857 143.012 167.073 152.228 167.073 165.38ZM183.935 163.844V186.5H172.415V144.164H183.935V151.076C186.047 146.276 191.423 143.012 197.759 143.012C209.087 143.012 213.215 150.692 213.215 160.1V186.5H201.695V162.404C201.695 155.876 199.103 152.132 193.439 152.132C187.583 152.132 183.935 156.74 183.935 163.844ZM232.077 163.844V186.5H220.557V144.164H232.077V151.076C234.189 146.276 239.565 143.012 245.901 143.012C257.229 143.012 261.357 150.692 261.357 160.1V186.5H249.837V162.404C249.837 155.876 247.245 152.132 241.581 152.132C235.725 152.132 232.077 156.74 232.077 163.844ZM299.708 171.716L309.02 172.676C306.812 182.084 299.516 187.652 288.668 187.652C275.612 187.652 266.204 179.3 266.204 165.956C266.204 152.612 275.708 143.012 288.38 143.012C302.204 143.012 309.308 152.612 309.308 164.132V168.26H277.532C277.916 174.5 282.812 178.916 289.052 178.916C294.716 178.916 298.076 176.516 299.708 171.716ZM277.724 161.06H298.076C297.692 156.164 294.716 151.46 288.284 151.46C281.948 151.46 278.78 155.78 277.724 161.06ZM312.659 165.38C312.659 151.94 321.971 143.012 335.027 143.012C347.603 143.012 354.515 151.268 355.475 161.444L345.779 162.116C344.915 155.78 341.363 151.844 335.027 151.844C328.691 151.844 324.275 156.548 324.275 165.38C324.275 174.116 328.691 178.82 335.027 178.82C341.363 178.82 344.915 174.788 345.779 168.356L355.475 169.22C354.515 179.396 347.603 187.652 335.027 187.652C321.971 187.652 312.659 178.82 312.659 165.38ZM362.112 175.748V152.228H356.064V145.412L358.944 144.932C363.072 144.26 364.224 142.148 365.184 138.212L366.528 132.452H373.536V144.164H385.056V152.228H373.536V173.156C373.536 176.804 375.168 178.436 378.624 178.436C380.928 178.436 383.328 177.572 385.824 176.42V184.004C382.752 186.308 379.296 187.652 374.112 187.652C367.584 187.652 362.112 184.772 362.112 175.748ZM390.44 144.164H401.96V186.5H390.44V144.164ZM390.248 137.252V126.02H402.056V137.252H390.248ZM418.827 165.38C418.827 173.348 422.475 178.916 429.483 178.916C436.587 178.916 440.235 173.348 440.235 165.38C440.235 157.316 436.587 151.748 429.483 151.748C422.475 151.748 418.827 157.316 418.827 165.38ZM451.851 165.38C451.851 178.532 442.635 187.652 429.483 187.652C416.427 187.652 407.211 178.532 407.211 165.38C407.211 152.228 416.427 143.012 429.483 143.012C442.635 143.012 451.851 152.228 451.851 165.38ZM468.713 163.844V186.5H457.193V144.164H468.713V151.076C470.825 146.276 476.201 143.012 482.537 143.012C493.865 143.012 497.993 150.692 497.993 160.1V186.5H486.473V162.404C486.473 155.876 483.881 152.132 478.217 152.132C472.361 152.132 468.713 156.74 468.713 163.844Z" fill="#0D1320"/>
<path d="M123.697 235.34L133.233 248.78V235.34H136.945V255.5H133.745L123.441 241.292V255.5H119.729V235.34H123.697ZM143.391 248.46C143.391 251.116 144.607 252.972 146.943 252.972C149.311 252.972 150.527 251.116 150.527 248.46C150.527 245.772 149.311 243.916 146.943 243.916C144.607 243.916 143.391 245.772 143.391 248.46ZM154.399 248.46C154.399 252.844 151.327 255.884 146.943 255.884C142.591 255.884 139.519 252.844 139.519 248.46C139.519 244.076 142.591 241.004 146.943 241.004C151.327 241.004 154.399 244.076 154.399 248.46ZM175.37 243.916C176.138 242.252 177.833 241.004 180.138 241.004C183.946 241.004 185.162 243.628 185.162 246.7V255.5H181.322V247.468C181.322 245.292 180.65 244.044 178.762 244.044C176.906 244.044 175.786 245.58 175.786 247.948V255.5H171.946V247.468C171.946 245.292 171.242 244.044 169.385 244.044C167.53 244.044 166.41 245.58 166.41 247.948V255.5H162.57V241.388H166.41V243.692C167.114 242.092 168.714 241.004 170.858 241.004C173.354 241.004 174.762 242.188 175.37 243.916ZM196.706 249.388V249.036L194.05 249.612C192.386 249.964 191.202 250.252 191.202 251.66C191.202 252.62 191.938 253.196 193.154 253.196C195.17 253.196 196.706 251.66 196.706 249.388ZM200.45 246.444V252.076C200.45 252.812 200.834 253.164 201.442 253.164C201.826 253.164 202.21 253.068 202.626 252.876V254.924C202.018 255.404 201.25 255.82 199.97 255.82C198.37 255.82 197.346 254.892 196.994 253.356C196.194 254.988 194.274 255.852 192.194 255.852C189.25 255.852 187.458 254.38 187.458 251.948C187.458 249.26 189.634 248.14 192.834 247.5L196.706 246.732V246.412C196.706 244.844 195.874 243.884 194.242 243.884C192.642 243.884 191.778 244.844 191.458 246.22L187.97 245.9C188.45 243.02 190.658 241.004 194.402 241.004C198.05 241.004 200.45 242.732 200.45 246.444ZM204.768 251.916V244.076H202.752V241.804L203.712 241.644C205.088 241.42 205.472 240.716 205.792 239.404L206.24 237.484H208.576V241.388H212.416V244.076H208.576V251.052C208.576 252.268 209.12 252.812 210.272 252.812C211.04 252.812 211.84 252.524 212.672 252.14V254.668C211.648 255.436 210.496 255.884 208.768 255.884C206.592 255.884 204.768 254.924 204.768 251.916ZM215.331 251.916V244.076H213.315V241.804L214.275 241.644C215.651 241.42 216.035 240.716 216.355 239.404L216.803 237.484H219.139V241.388H222.979V244.076H219.139V251.052C219.139 252.268 219.683 252.812 220.835 252.812C221.603 252.812 222.403 252.524 223.235 252.14V254.668C222.211 255.436 221.059 255.884 219.331 255.884C217.155 255.884 215.331 254.924 215.331 251.916ZM235.687 250.572L238.791 250.892C238.055 254.028 235.623 255.884 232.007 255.884C227.655 255.884 224.519 253.1 224.519 248.652C224.519 244.204 227.687 241.004 231.911 241.004C236.519 241.004 238.887 244.204 238.887 248.044V249.42H228.295C228.423 251.5 230.055 252.972 232.135 252.972C234.023 252.972 235.143 252.172 235.687 250.572ZM228.359 247.02H235.143C235.015 245.388 234.023 243.82 231.879 243.82C229.767 243.82 228.711 245.26 228.359 247.02ZM251.111 241.58L250.823 245.164C250.087 244.748 249.447 244.556 248.519 244.556C246.535 244.556 245.191 245.964 245.191 248.524V255.5H241.351V241.388H245.191V244.076C245.703 242.476 247.175 241.004 249.127 241.004C249.991 241.004 250.695 241.228 251.111 241.58ZM269.671 241.388L272.263 250.796H272.391L275.303 241.388H278.791L274.311 255.5H270.599L268.039 246.188H267.911L265.351 255.5H261.607L257.127 241.388H260.935L263.879 250.796H264.007L266.567 241.388H269.671ZM284.347 247.948V255.5H280.507V235.34H284.347V243.692C285.051 242.092 286.843 241.004 288.955 241.004C292.731 241.004 294.107 243.564 294.107 246.7V255.5H290.267V247.468C290.267 245.292 289.403 244.044 287.515 244.044C285.563 244.044 284.347 245.58 284.347 247.948ZM307.531 250.572L310.635 250.892C309.899 254.028 307.467 255.884 303.851 255.884C299.499 255.884 296.363 253.1 296.363 248.652C296.363 244.204 299.531 241.004 303.755 241.004C308.363 241.004 310.731 244.204 310.731 248.044V249.42H300.139C300.266 251.5 301.899 252.972 303.979 252.972C305.867 252.972 306.987 252.172 307.531 250.572ZM300.203 247.02H306.987C306.859 245.388 305.867 243.82 303.723 243.82C301.611 243.82 300.555 245.26 300.203 247.02ZM322.955 241.58L322.667 245.164C321.931 244.748 321.291 244.556 320.363 244.556C318.379 244.556 317.035 245.964 317.035 248.524V255.5H313.195V241.388H317.035V244.076C317.547 242.476 319.019 241.004 320.97 241.004C321.835 241.004 322.539 241.228 322.955 241.58ZM334.749 250.572L337.853 250.892C337.117 254.028 334.685 255.884 331.069 255.884C326.717 255.884 323.581 253.1 323.581 248.652C323.581 244.204 326.749 241.004 330.973 241.004C335.581 241.004 337.949 244.204 337.949 248.044V249.42H327.357C327.485 251.5 329.117 252.972 331.197 252.972C333.085 252.972 334.205 252.172 334.749 250.572ZM327.421 247.02H334.205C334.077 245.388 333.085 243.82 330.941 243.82C328.829 243.82 327.773 245.26 327.421 247.02ZM352.083 260.748H348.307L350.483 255.564L344.627 241.388H348.659L352.499 251.02H352.627L356.435 241.388H360.179L352.083 260.748ZM364.547 248.46C364.547 251.116 365.763 252.972 368.099 252.972C370.467 252.972 371.683 251.116 371.683 248.46C371.683 245.772 370.467 243.916 368.099 243.916C365.763 243.916 364.547 245.772 364.547 248.46ZM375.555 248.46C375.555 252.844 372.483 255.884 368.099 255.884C363.747 255.884 360.675 252.844 360.675 248.46C360.675 244.076 363.747 241.004 368.099 241.004C372.483 241.004 375.555 244.076 375.555 248.46ZM387.384 248.94V241.388H391.224V255.5H387.384V253.196C386.648 254.828 384.984 255.884 382.84 255.884C379.096 255.884 377.816 253.356 377.816 250.22V241.388H381.656V249.452C381.656 251.596 382.456 252.876 384.344 252.876C386.232 252.876 387.384 251.34 387.384 248.94ZM408.706 249.388V249.036L406.05 249.612C404.386 249.964 403.202 250.252 403.202 251.66C403.202 252.62 403.938 253.196 405.154 253.196C407.17 253.196 408.706 251.66 408.706 249.388ZM412.45 246.444V252.076C412.45 252.812 412.834 253.164 413.442 253.164C413.826 253.164 414.21 253.068 414.626 252.876V254.924C414.018 255.404 413.25 255.82 411.97 255.82C410.37 255.82 409.346 254.892 408.994 253.356C408.194 254.988 406.274 255.852 404.194 255.852C401.25 255.852 399.458 254.38 399.458 251.948C399.458 249.26 401.634 248.14 404.834 247.5L408.706 246.732V246.412C408.706 244.844 407.874 243.884 406.242 243.884C404.642 243.884 403.778 244.844 403.458 246.22L399.97 245.9C400.45 243.02 402.658 241.004 406.402 241.004C410.05 241.004 412.45 242.732 412.45 246.444ZM426.205 241.58L425.917 245.164C425.181 244.748 424.541 244.556 423.613 244.556C421.629 244.556 420.285 245.964 420.285 248.524V255.5H416.445V241.388H420.285V244.076C420.797 242.476 422.269 241.004 424.22 241.004C425.085 241.004 425.789 241.228 426.205 241.58ZM437.999 250.572L441.103 250.892C440.367 254.028 437.935 255.884 434.319 255.884C429.967 255.884 426.831 253.1 426.831 248.652C426.831 244.204 429.999 241.004 434.223 241.004C438.831 241.004 441.199 244.204 441.199 248.044V249.42H430.607C430.735 251.5 432.367 252.972 434.447 252.972C436.335 252.972 437.455 252.172 437.999 250.572ZM430.671 247.02H437.455C437.327 245.388 436.335 243.82 434.191 243.82C432.079 243.82 431.023 245.26 430.671 247.02Z" fill="white"/>
<path d="M66.416 294.5H64.904V280.652H59.312V279.38H72.08V280.652H66.416V294.5ZM78.5287 284.276L78.3607 285.548C77.7607 285.236 77.4007 285.14 76.7767 285.14C75.2647 285.14 74.0407 286.7 74.0407 288.788V294.5H72.5767V284.084H74.0407V286.268C74.4487 285.068 75.5047 283.796 77.0407 283.796C77.6887 283.796 78.1447 283.94 78.5287 284.276ZM80.1002 284.084H81.5642V294.5H80.1002V284.084ZM80.0522 281.324V279.38H81.6122V281.324H80.0522ZM85.8521 288.932V289.652C85.8521 292.148 87.4841 293.588 89.5481 293.588C91.7561 293.588 93.0281 291.932 93.0281 289.292C93.0281 286.652 91.7561 284.996 89.5481 284.996C87.4841 284.996 85.8521 286.436 85.8521 288.932ZM85.9001 292.22V298.58H84.4361V284.084H85.9001V286.388C86.3561 285.068 87.7241 283.796 89.7401 283.796C92.8361 283.796 94.5641 286.22 94.5641 289.292C94.5641 292.364 92.8361 294.788 89.7401 294.788C87.7241 294.788 86.3561 293.54 85.9001 292.22ZM96.1151 289.292C96.1151 285.98 98.2751 283.796 101.371 283.796C104.395 283.796 106.027 285.836 106.219 288.356L104.875 288.452C104.731 286.46 103.507 285.02 101.323 285.02C99.1391 285.02 97.6511 286.724 97.6511 289.292C97.6511 291.86 99.1391 293.564 101.323 293.564C103.507 293.564 104.731 292.076 104.875 290.084L106.219 290.228C106.027 292.748 104.395 294.788 101.371 294.788C98.2751 294.788 96.1151 292.604 96.1151 289.292ZM116.595 290.78L117.843 290.948C117.339 293.324 115.611 294.788 113.067 294.788C110.043 294.788 107.787 292.652 107.787 289.436C107.787 286.148 110.019 283.796 112.971 283.796C116.235 283.796 117.867 286.148 117.867 288.98V289.652H109.299C109.395 291.956 111.003 293.588 113.067 293.588C114.987 293.588 116.163 292.628 116.595 290.78ZM109.323 288.62H116.307C116.259 286.7 115.179 284.948 112.971 284.948C110.907 284.948 109.563 286.676 109.323 288.62ZM120.061 279.38H121.525V294.5H120.061V279.38ZM136.822 290.78L138.07 290.948C137.566 293.324 135.838 294.788 133.294 294.788C130.27 294.788 128.014 292.652 128.014 289.436C128.014 286.148 130.246 283.796 133.198 283.796C136.462 283.796 138.094 286.148 138.094 288.98V289.652H129.526C129.622 291.956 131.23 293.588 133.294 293.588C135.214 293.588 136.39 292.628 136.822 290.78ZM129.55 288.62H136.534C136.486 286.7 135.406 284.948 133.198 284.948C131.134 284.948 129.79 286.676 129.55 288.62ZM139.376 289.076L140.744 288.956C140.864 291.956 142.88 293.612 145.64 293.612C148.136 293.612 149.696 292.508 149.696 290.636C149.696 289.1 148.784 288.284 146.6 287.852L143.528 287.252C141.368 286.82 139.88 285.668 139.88 283.388C139.88 280.892 141.872 279.092 145.064 279.092C148.736 279.092 150.92 281.108 150.92 284.516L149.528 284.636C149.48 281.876 147.848 280.268 145.088 280.268C142.688 280.268 141.344 281.444 141.344 283.34C141.344 285.044 142.424 285.596 144.416 285.98L147.104 286.508C149.768 287.036 151.136 288.116 151.136 290.516C151.136 293.18 148.832 294.788 145.64 294.788C142.04 294.788 139.376 292.748 139.376 289.076ZM153.58 279.38H155.092V294.5H153.58V279.38ZM166.116 294.5H164.844L159.756 280.82H159.66V294.5H158.22V279.38H160.716L165.54 292.46H165.612L170.172 279.38H172.644V294.5H171.108V280.82H171.012L166.116 294.5ZM181.383 288.932V289.652C181.383 292.148 183.015 293.588 185.079 293.588C187.287 293.588 188.559 291.932 188.559 289.292C188.559 286.652 187.287 284.996 185.079 284.996C183.015 284.996 181.383 286.436 181.383 288.932ZM181.431 292.22V298.58H179.967V284.084H181.431V286.388C181.887 285.068 183.255 283.796 185.271 283.796C188.367 283.796 190.095 286.22 190.095 289.292C190.095 292.364 188.367 294.788 185.271 294.788C183.255 294.788 181.887 293.54 181.431 292.22ZM198.224 284.276L198.056 285.548C197.456 285.236 197.096 285.14 196.472 285.14C194.96 285.14 193.736 286.7 193.736 288.788V294.5H192.272V284.084H193.736V286.268C194.144 285.068 195.2 283.796 196.736 283.796C197.384 283.796 197.84 283.94 198.224 284.276ZM200.284 289.292C200.284 291.836 201.628 293.636 203.956 293.636C206.308 293.636 207.652 291.836 207.652 289.292C207.652 286.748 206.308 284.948 203.956 284.948C201.628 284.948 200.284 286.748 200.284 289.292ZM209.188 289.292C209.188 292.532 206.932 294.788 203.956 294.788C201.004 294.788 198.748 292.532 198.748 289.292C198.748 286.052 201.004 283.796 203.956 283.796C206.932 283.796 209.188 286.052 209.188 289.292ZM215.602 294.5H214.426L210.01 284.084H211.546L215.05 292.532H215.146L218.578 284.084H220.018L215.602 294.5ZM221.686 284.084H223.15V294.5H221.686V284.084ZM221.638 281.324V279.38H223.198V281.324H221.638ZM234.038 289.652V288.932C234.038 286.436 232.406 284.996 230.342 284.996C228.134 284.996 226.862 286.652 226.862 289.292C226.862 291.932 228.134 293.588 230.342 293.588C232.406 293.588 234.038 292.148 234.038 289.652ZM233.99 294.5V292.22C233.534 293.54 232.166 294.788 230.15 294.788C227.054 294.788 225.326 292.364 225.326 289.292C225.326 286.22 227.054 283.796 230.15 283.796C232.166 283.796 233.534 285.068 233.99 286.388V279.38H235.454V294.5H233.99ZM246.439 290.78L247.687 290.948C247.183 293.324 245.455 294.788 242.911 294.788C239.887 294.788 237.631 292.652 237.631 289.436C237.631 286.148 239.863 283.796 242.815 283.796C246.079 283.796 247.711 286.148 247.711 288.98V289.652H239.143C239.239 291.956 240.847 293.588 242.911 293.588C244.831 293.588 246.007 292.628 246.439 290.78ZM239.167 288.62H246.151C246.103 286.7 245.023 284.948 242.815 284.948C240.751 284.948 239.407 286.676 239.167 288.62ZM249.278 290.972L250.454 290.828C250.67 292.628 251.894 293.636 253.886 293.636C255.494 293.636 256.622 293.036 256.622 291.812C256.622 290.66 255.806 290.3 254.342 290.036L252.542 289.724C250.718 289.412 249.59 288.572 249.59 286.892C249.59 285.02 251.15 283.796 253.43 283.796C256.118 283.796 257.678 285.068 257.846 287.54L256.718 287.636C256.454 285.764 255.35 284.948 253.43 284.948C251.942 284.948 250.958 285.62 250.958 286.724C250.958 287.732 251.558 288.236 252.854 288.452L254.774 288.764C256.814 289.1 258.014 289.82 258.014 291.668C258.014 293.708 256.19 294.788 253.91 294.788C251.39 294.788 249.446 293.54 249.278 290.972ZM271.154 289.772V289.124L268.61 289.676C266.714 290.084 265.538 290.468 265.538 291.86C265.538 292.844 266.186 293.66 267.554 293.66C269.594 293.66 271.154 292.1 271.154 289.772ZM272.546 287.732V292.748C272.546 293.3 272.882 293.564 273.41 293.564C273.65 293.564 274.058 293.468 274.346 293.3V294.092C274.034 294.452 273.698 294.716 272.978 294.716C271.946 294.716 271.202 293.828 271.154 292.508C270.602 293.732 269.066 294.788 267.29 294.788C265.346 294.788 264.05 293.708 264.05 291.908C264.05 289.94 265.778 289.148 268.37 288.62L271.154 288.044V287.516C271.154 285.932 270.218 284.948 268.586 284.948C266.906 284.948 265.97 285.932 265.61 287.276L264.362 287.036C264.77 285.164 266.306 283.796 268.562 283.796C271.154 283.796 272.546 285.164 272.546 287.732ZM280.711 285.164H279.103V284.084H280.711V282.62C280.711 280.556 281.863 279.092 283.975 279.092C285.727 279.092 286.615 279.86 287.095 281.396L286.015 281.804C285.751 280.868 285.055 280.172 283.975 280.172C282.751 280.172 282.175 281.012 282.175 282.428V284.084H285.175V285.164H282.175V294.5H280.711V285.164ZM293.255 289.772V289.124L290.711 289.676C288.815 290.084 287.639 290.468 287.639 291.86C287.639 292.844 288.287 293.66 289.655 293.66C291.695 293.66 293.255 292.1 293.255 289.772ZM294.647 287.732V292.748C294.647 293.3 294.983 293.564 295.511 293.564C295.751 293.564 296.159 293.468 296.447 293.3V294.092C296.135 294.452 295.799 294.716 295.079 294.716C294.047 294.716 293.303 293.828 293.255 292.508C292.703 293.732 291.167 294.788 289.391 294.788C287.447 294.788 286.151 293.708 286.151 291.908C286.151 289.94 287.879 289.148 290.471 288.62L293.255 288.044V287.516C293.255 285.932 292.319 284.948 290.687 284.948C289.007 284.948 288.071 285.932 287.711 287.276L286.463 287.036C286.871 285.164 288.407 283.796 290.663 283.796C293.255 283.796 294.647 285.164 294.647 287.732ZM297.348 290.972L298.524 290.828C298.74 292.628 299.964 293.636 301.956 293.636C303.564 293.636 304.692 293.036 304.692 291.812C304.692 290.66 303.876 290.3 302.412 290.036L300.612 289.724C298.788 289.412 297.66 288.572 297.66 286.892C297.66 285.02 299.22 283.796 301.5 283.796C304.188 283.796 305.748 285.068 305.916 287.54L304.788 287.636C304.524 285.764 303.42 284.948 301.5 284.948C300.012 284.948 299.028 285.62 299.028 286.724C299.028 287.732 299.628 288.236 300.924 288.452L302.844 288.764C304.884 289.1 306.084 289.82 306.084 291.668C306.084 293.708 304.26 294.788 301.98 294.788C299.46 294.788 297.516 293.54 297.348 290.972ZM308.648 292.196V285.164H307.04V284.444L307.664 284.324C308.624 284.132 308.816 283.676 309.032 282.668L309.344 281.18H310.088V284.084H313.112V285.164H310.088V292.22C310.088 293.156 310.472 293.612 311.432 293.612C312.152 293.612 312.872 293.252 313.472 292.892V293.924C312.728 294.5 311.984 294.788 310.928 294.788C309.536 294.788 308.648 294.092 308.648 292.196ZM326.209 289.772V289.124L323.665 289.676C321.769 290.084 320.593 290.468 320.593 291.86C320.593 292.844 321.241 293.66 322.609 293.66C324.649 293.66 326.209 292.1 326.209 289.772ZM327.601 287.732V292.748C327.601 293.3 327.937 293.564 328.465 293.564C328.705 293.564 329.113 293.468 329.401 293.3V294.092C329.089 294.452 328.753 294.716 328.033 294.716C327.001 294.716 326.257 293.828 326.209 292.508C325.657 293.732 324.121 294.788 322.345 294.788C320.401 294.788 319.105 293.708 319.105 291.908C319.105 289.94 320.833 289.148 323.425 288.62L326.209 288.044V287.516C326.209 285.932 325.273 284.948 323.641 284.948C321.961 284.948 321.025 285.932 320.665 287.276L319.417 287.036C319.825 285.164 321.361 283.796 323.617 283.796C326.209 283.796 327.601 285.164 327.601 287.732ZM332.509 288.26V294.5H331.045V284.084H332.509V286.004C333.013 284.732 334.453 283.796 336.013 283.796C338.701 283.796 339.829 285.548 339.829 288.044V294.5H338.365V287.996C338.365 286.148 337.405 284.948 335.629 284.948C333.973 284.948 332.509 286.244 332.509 288.26ZM350.616 289.652V288.932C350.616 286.436 348.984 284.996 346.92 284.996C344.712 284.996 343.44 286.652 343.44 289.292C343.44 291.932 344.712 293.588 346.92 293.588C348.984 293.588 350.616 292.148 350.616 289.652ZM350.568 294.5V292.22C350.112 293.54 348.744 294.788 346.728 294.788C343.632 294.788 341.904 292.364 341.904 289.292C341.904 286.22 343.632 283.796 346.728 283.796C348.744 283.796 350.112 285.068 350.568 286.388V279.38H352.032V294.5H350.568ZM365.169 284.276L365.001 285.548C364.401 285.236 364.041 285.14 363.417 285.14C361.905 285.14 360.681 286.7 360.681 288.788V294.5H359.217V284.084H360.681V286.268C361.089 285.068 362.145 283.796 363.681 283.796C364.329 283.796 364.785 283.94 365.169 284.276ZM374.501 290.78L375.749 290.948C375.245 293.324 373.517 294.788 370.973 294.788C367.949 294.788 365.693 292.652 365.693 289.436C365.693 286.148 367.925 283.796 370.877 283.796C374.141 283.796 375.773 286.148 375.773 288.98V289.652H367.205C367.301 291.956 368.909 293.588 370.973 293.588C372.893 293.588 374.069 292.628 374.501 290.78ZM367.229 288.62H374.213C374.165 286.7 373.085 284.948 370.877 284.948C368.813 284.948 367.469 286.676 367.229 288.62ZM377.967 279.38H379.431V294.5H377.967V279.38ZM382.303 284.084H383.767V294.5H382.303V284.084ZM382.255 281.324V279.38H383.815V281.324H382.255ZM393.263 289.772V289.124L390.719 289.676C388.823 290.084 387.647 290.468 387.647 291.86C387.647 292.844 388.295 293.66 389.663 293.66C391.703 293.66 393.263 292.1 393.263 289.772ZM394.655 287.732V292.748C394.655 293.3 394.991 293.564 395.519 293.564C395.759 293.564 396.167 293.468 396.455 293.3V294.092C396.143 294.452 395.807 294.716 395.087 294.716C394.055 294.716 393.311 293.828 393.263 292.508C392.711 293.732 391.175 294.788 389.399 294.788C387.455 294.788 386.159 293.708 386.159 291.908C386.159 289.94 387.887 289.148 390.479 288.62L393.263 288.044V287.516C393.263 285.932 392.327 284.948 390.695 284.948C389.015 284.948 388.079 285.932 387.719 287.276L386.471 287.036C386.879 285.164 388.415 283.796 390.671 283.796C393.263 283.796 394.655 285.164 394.655 287.732ZM399.516 288.932V289.652C399.516 292.148 401.148 293.588 403.212 293.588C405.42 293.588 406.692 291.932 406.692 289.292C406.692 286.652 405.42 284.996 403.212 284.996C401.148 284.996 399.516 286.436 399.516 288.932ZM399.564 292.22L399.204 294.5H398.1V279.38H399.564V286.388C400.02 285.068 401.388 283.796 403.404 283.796C406.5 283.796 408.228 286.22 408.228 289.292C408.228 292.364 406.5 294.788 403.404 294.788C401.388 294.788 400.02 293.54 399.564 292.22ZM410.405 279.38H411.869V294.5H410.405V279.38ZM422.853 290.78L424.101 290.948C423.597 293.324 421.869 294.788 419.325 294.788C416.301 294.788 414.045 292.652 414.045 289.436C414.045 286.148 416.277 283.796 419.229 283.796C422.493 283.796 424.125 286.148 424.125 288.98V289.652H415.557C415.653 291.956 417.261 293.588 419.325 293.588C421.245 293.588 422.421 292.628 422.853 290.78ZM415.581 288.62H422.565C422.517 286.7 421.437 284.948 419.229 284.948C417.165 284.948 415.821 286.676 415.581 288.62ZM430.631 284.084H432.095V294.5H430.631V284.084ZM430.583 281.324V279.38H432.143V281.324H430.583ZM436.431 288.26V294.5H434.967V284.084H436.431V286.004C436.935 284.732 438.375 283.796 439.935 283.796C442.623 283.796 443.751 285.548 443.751 288.044V294.5H442.287V287.996C442.287 286.148 441.327 284.948 439.551 284.948C437.895 284.948 436.431 286.244 436.431 288.26ZM446.882 292.196V285.164H445.274V284.444L445.898 284.324C446.858 284.132 447.05 283.676 447.266 282.668L447.578 281.18H448.322V284.084H451.346V285.164H448.322V292.22C448.322 293.156 448.706 293.612 449.666 293.612C450.386 293.612 451.106 293.252 451.706 292.892V293.924C450.962 294.5 450.218 294.788 449.162 294.788C447.77 294.788 446.882 294.092 446.882 292.196ZM461.501 290.78L462.749 290.948C462.245 293.324 460.517 294.788 457.973 294.788C454.949 294.788 452.693 292.652 452.693 289.436C452.693 286.148 454.925 283.796 457.877 283.796C461.141 283.796 462.773 286.148 462.773 288.98V289.652H454.205C454.301 291.956 455.909 293.588 457.973 293.588C459.893 293.588 461.069 292.628 461.501 290.78ZM454.229 288.62H461.213C461.165 286.7 460.085 284.948 457.877 284.948C455.813 284.948 454.469 286.676 454.229 288.62ZM470.919 284.276L470.751 285.548C470.151 285.236 469.791 285.14 469.167 285.14C467.655 285.14 466.431 286.7 466.431 288.788V294.5H464.967V284.084H466.431V286.268C466.839 285.068 467.895 283.796 469.431 283.796C470.079 283.796 470.535 283.94 470.919 284.276ZM473.955 288.26V294.5H472.491V284.084H473.955V286.004C474.459 284.732 475.899 283.796 477.459 283.796C480.147 283.796 481.275 285.548 481.275 288.044V294.5H479.811V287.996C479.811 286.148 478.851 284.948 477.075 284.948C475.419 284.948 473.955 286.244 473.955 288.26ZM492.157 290.78L493.405 290.948C492.901 293.324 491.173 294.788 488.629 294.788C485.605 294.788 483.349 292.652 483.349 289.436C483.349 286.148 485.581 283.796 488.533 283.796C491.797 283.796 493.429 286.148 493.429 288.98V289.652H484.861C484.957 291.956 486.565 293.588 488.629 293.588C490.549 293.588 491.725 292.628 492.157 290.78ZM484.885 288.62H491.869C491.821 286.7 490.741 284.948 488.533 284.948C486.469 284.948 485.125 286.676 484.885 288.62ZM495.984 292.196V285.164H494.376V284.444L495 284.324C495.96 284.132 496.152 283.676 496.368 282.668L496.68 281.18H497.424V284.084H500.448V285.164H497.424V292.22C497.424 293.156 497.808 293.612 498.768 293.612C499.488 293.612 500.208 293.252 500.808 292.892V293.924C500.064 294.5 499.32 294.788 498.264 294.788C496.872 294.788 495.984 294.092 495.984 292.196ZM57.326 316.292C57.326 312.98 59.486 310.796 62.582 310.796C65.606 310.796 67.238 312.836 67.43 315.356L66.086 315.452C65.942 313.46 64.718 312.02 62.534 312.02C60.35 312.02 58.862 313.724 58.862 316.292C58.862 318.86 60.35 320.564 62.534 320.564C64.718 320.564 65.942 319.076 66.086 317.084L67.43 317.228C67.238 319.748 65.606 321.788 62.582 321.788C59.486 321.788 57.326 319.604 57.326 316.292ZM70.5339 316.292C70.5339 318.836 71.8779 320.636 74.2059 320.636C76.5579 320.636 77.9019 318.836 77.9019 316.292C77.9019 313.748 76.5579 311.948 74.2059 311.948C71.8779 311.948 70.5339 313.748 70.5339 316.292ZM79.4379 316.292C79.4379 319.532 77.1819 321.788 74.2059 321.788C71.2539 321.788 68.9979 319.532 68.9979 316.292C68.9979 313.052 71.2539 310.796 74.2059 310.796C77.1819 310.796 79.4379 313.052 79.4379 316.292ZM83.0876 315.26V321.5H81.6236V311.084H83.0876V313.004C83.5916 311.732 85.0316 310.796 86.5916 310.796C89.2796 310.796 90.4076 312.548 90.4076 315.044V321.5H88.9436V314.996C88.9436 313.148 87.9836 311.948 86.2076 311.948C84.5516 311.948 83.0876 313.244 83.0876 315.26ZM94.6423 315.26V321.5H93.1783V311.084H94.6423V313.004C95.1463 311.732 96.5863 310.796 98.1463 310.796C100.834 310.796 101.962 312.548 101.962 315.044V321.5H100.498V314.996C100.498 313.148 99.5383 311.948 97.7623 311.948C96.1063 311.948 94.6423 313.244 94.6423 315.26ZM112.845 317.78L114.093 317.948C113.589 320.324 111.861 321.788 109.317 321.788C106.293 321.788 104.037 319.652 104.037 316.436C104.037 313.148 106.269 310.796 109.221 310.796C112.485 310.796 114.117 313.148 114.117 315.98V316.652H105.549C105.645 318.956 107.253 320.588 109.317 320.588C111.237 320.588 112.413 319.628 112.845 317.78ZM105.573 315.62H112.557C112.509 313.7 111.429 311.948 109.221 311.948C107.157 311.948 105.813 313.676 105.573 315.62ZM115.685 316.292C115.685 312.98 117.845 310.796 120.941 310.796C123.965 310.796 125.597 312.836 125.789 315.356L124.445 315.452C124.301 313.46 123.077 312.02 120.893 312.02C118.709 312.02 117.221 313.724 117.221 316.292C117.221 318.86 118.709 320.564 120.893 320.564C123.077 320.564 124.301 319.076 124.445 317.084L125.789 317.228C125.597 319.748 123.965 321.788 120.941 321.788C117.845 321.788 115.685 319.604 115.685 316.292ZM128.343 319.196V312.164H126.735V311.444L127.359 311.324C128.319 311.132 128.511 310.676 128.727 309.668L129.039 308.18H129.783V311.084H132.807V312.164H129.783V319.22C129.783 320.156 130.167 320.612 131.127 320.612C131.847 320.612 132.567 320.252 133.167 319.892V320.924C132.423 321.5 131.679 321.788 130.623 321.788C129.231 321.788 128.343 321.092 128.343 319.196ZM134.967 311.084H136.431V321.5H134.967V311.084ZM134.919 308.324V306.38H136.479V308.324H134.919ZM140.143 316.292C140.143 318.836 141.487 320.636 143.815 320.636C146.167 320.636 147.511 318.836 147.511 316.292C147.511 313.748 146.167 311.948 143.815 311.948C141.487 311.948 140.143 313.748 140.143 316.292ZM149.047 316.292C149.047 319.532 146.791 321.788 143.815 321.788C140.863 321.788 138.607 319.532 138.607 316.292C138.607 313.052 140.863 310.796 143.815 310.796C146.791 310.796 149.047 313.052 149.047 316.292ZM152.697 315.26V321.5H151.233V311.084H152.697V313.004C153.201 311.732 154.641 310.796 156.201 310.796C158.889 310.796 160.017 312.548 160.017 315.044V321.5H158.553V314.996C158.553 313.148 157.593 311.948 155.817 311.948C154.161 311.948 152.697 313.244 152.697 315.26ZM162.308 321.5V319.58H164.228V321.524C164.228 323.012 164.036 323.948 162.308 323.948V322.964C163.148 322.892 163.244 322.58 163.244 321.5H162.308ZM179.056 317.78L180.304 317.948C179.8 320.324 178.072 321.788 175.528 321.788C172.504 321.788 170.248 319.652 170.248 316.436C170.248 313.148 172.48 310.796 175.432 310.796C178.696 310.796 180.328 313.148 180.328 315.98V316.652H171.76C171.856 318.956 173.464 320.588 175.528 320.588C177.448 320.588 178.624 319.628 179.056 317.78ZM171.784 315.62H178.768C178.72 313.7 177.64 311.948 175.432 311.948C173.368 311.948 172.024 313.676 171.784 315.62ZM183.986 315.26V321.5H182.522V311.084H183.986V313.004C184.49 311.732 185.93 310.796 187.49 310.796C190.178 310.796 191.306 312.548 191.306 315.044V321.5H189.842V314.996C189.842 313.148 188.882 311.948 187.106 311.948C185.45 311.948 183.986 313.244 183.986 315.26ZM193.333 317.972L194.509 317.828C194.725 319.628 195.949 320.636 197.941 320.636C199.549 320.636 200.677 320.036 200.677 318.812C200.677 317.66 199.861 317.3 198.397 317.036L196.597 316.724C194.773 316.412 193.645 315.572 193.645 313.892C193.645 312.02 195.205 310.796 197.485 310.796C200.173 310.796 201.733 312.068 201.901 314.54L200.773 314.636C200.509 312.764 199.405 311.948 197.485 311.948C195.997 311.948 195.013 312.62 195.013 313.724C195.013 314.732 195.613 315.236 196.909 315.452L198.829 315.764C200.869 316.1 202.069 316.82 202.069 318.668C202.069 320.708 200.245 321.788 197.965 321.788C195.445 321.788 193.501 320.54 193.333 317.972ZM211.352 317.324V311.084H212.816V321.5H211.352V319.58C210.848 320.852 209.456 321.788 207.896 321.788C205.208 321.788 204.152 320.036 204.152 317.54V311.084H205.616V317.588C205.616 319.436 206.504 320.636 208.28 320.636C209.936 320.636 211.352 319.34 211.352 317.324ZM221.638 311.276L221.47 312.548C220.87 312.236 220.51 312.14 219.886 312.14C218.374 312.14 217.15 313.7 217.15 315.788V321.5H215.686V311.084H217.15V313.268C217.558 312.068 218.614 310.796 220.15 310.796C220.798 310.796 221.254 310.94 221.638 311.276ZM223.21 311.084H224.674V321.5H223.21V311.084ZM223.162 308.324V306.38H224.722V308.324H223.162ZM229.009 315.26V321.5H227.545V311.084H229.009V313.004C229.513 311.732 230.953 310.796 232.513 310.796C235.201 310.796 236.329 312.548 236.329 315.044V321.5H234.865V314.996C234.865 313.148 233.905 311.948 232.129 311.948C230.473 311.948 229.009 313.244 229.009 315.26ZM247.356 314.324C247.356 316.508 245.58 317.852 243.132 317.852C242.268 317.852 241.5 317.708 240.852 317.396C240.42 317.612 239.988 318.044 239.988 318.596C239.988 319.244 240.348 319.58 241.356 319.58H245.388C247.62 319.58 248.796 320.732 248.796 322.34C248.796 324.908 245.988 325.868 242.94 325.868C240.18 325.868 237.9 324.908 237.9 322.988C237.9 321.716 238.788 320.924 240.108 320.636C239.148 320.348 238.764 319.7 238.764 318.932C238.764 318.044 239.388 317.444 240.228 317.012C239.412 316.412 238.932 315.476 238.932 314.324C238.932 312.14 240.684 310.796 243.132 310.796C244.476 310.796 245.628 311.204 246.372 311.948C246.924 311.108 247.836 310.532 248.94 310.532V311.948C248.148 311.948 247.308 312.164 246.804 312.452C247.164 312.98 247.356 313.604 247.356 314.324ZM239.388 322.628C239.388 324.164 240.852 324.812 242.94 324.812C245.532 324.812 247.38 324.188 247.38 322.388C247.38 321.284 246.444 320.876 245.052 320.876H241.764C240.492 320.876 239.388 321.284 239.388 322.628ZM245.868 314.348C245.868 312.74 244.86 311.804 243.132 311.804C241.452 311.804 240.444 312.74 240.444 314.348C240.444 315.932 241.452 316.868 243.132 316.868C244.86 316.868 245.868 315.932 245.868 314.348ZM257.59 325.58H256.15L257.902 321.428L253.486 311.084H255.022L258.598 319.652H258.694L262.15 311.084H263.59L257.59 325.58ZM265.885 316.292C265.885 318.836 267.229 320.636 269.557 320.636C271.909 320.636 273.253 318.836 273.253 316.292C273.253 313.748 271.909 311.948 269.557 311.948C267.229 311.948 265.885 313.748 265.885 316.292ZM274.789 316.292C274.789 319.532 272.533 321.788 269.557 321.788C266.605 321.788 264.349 319.532 264.349 316.292C264.349 313.052 266.605 310.796 269.557 310.796C272.533 310.796 274.789 313.052 274.789 316.292ZM284.055 317.324V311.084H285.519V321.5H284.055V319.58C283.551 320.852 282.159 321.788 280.599 321.788C277.911 321.788 276.855 320.036 276.855 317.54V311.084H278.319V317.588C278.319 319.436 279.207 320.636 280.983 320.636C282.639 320.636 284.055 319.34 284.055 317.324ZM294.166 315.26V321.5H292.702V306.38H294.166V313.004C294.67 311.732 296.11 310.796 297.67 310.796C300.358 310.796 301.486 312.548 301.486 315.044V321.5H300.022V314.996C300.022 313.148 299.062 311.948 297.286 311.948C295.63 311.948 294.166 313.244 294.166 315.26ZM310.88 316.772V316.124L308.336 316.676C306.44 317.084 305.264 317.468 305.264 318.86C305.264 319.844 305.912 320.66 307.28 320.66C309.32 320.66 310.88 319.1 310.88 316.772ZM312.272 314.732V319.748C312.272 320.3 312.608 320.564 313.136 320.564C313.376 320.564 313.784 320.468 314.072 320.3V321.092C313.76 321.452 313.424 321.716 312.704 321.716C311.672 321.716 310.928 320.828 310.88 319.508C310.328 320.732 308.792 321.788 307.016 321.788C305.072 321.788 303.776 320.708 303.776 318.908C303.776 316.94 305.504 316.148 308.096 315.62L310.88 315.044V314.516C310.88 312.932 309.944 311.948 308.312 311.948C306.632 311.948 305.696 312.932 305.336 314.276L304.088 314.036C304.496 312.164 306.032 310.796 308.288 310.796C310.88 310.796 312.272 312.164 312.272 314.732ZM319.758 321.5H318.582L314.166 311.084H315.702L319.206 319.532H319.302L322.734 311.084H324.174L319.758 321.5ZM333.79 317.78L335.038 317.948C334.534 320.324 332.806 321.788 330.262 321.788C327.238 321.788 324.982 319.652 324.982 316.436C324.982 313.148 327.214 310.796 330.166 310.796C333.43 310.796 335.062 313.148 335.062 315.98V316.652H326.494C326.59 318.956 328.198 320.588 330.262 320.588C332.182 320.588 333.358 319.628 333.79 317.78ZM326.518 315.62H333.502C333.454 313.7 332.374 311.948 330.166 311.948C328.102 311.948 326.758 313.676 326.518 315.62ZM348.193 316.772V316.124L345.649 316.676C343.753 317.084 342.577 317.468 342.577 318.86C342.577 319.844 343.225 320.66 344.593 320.66C346.633 320.66 348.193 319.1 348.193 316.772ZM349.585 314.732V319.748C349.585 320.3 349.921 320.564 350.449 320.564C350.689 320.564 351.097 320.468 351.385 320.3V321.092C351.073 321.452 350.737 321.716 350.017 321.716C348.985 321.716 348.241 320.828 348.193 319.508C347.641 320.732 346.105 321.788 344.329 321.788C342.385 321.788 341.089 320.708 341.089 318.908C341.089 316.94 342.817 316.148 345.409 315.62L348.193 315.044V314.516C348.193 312.932 347.257 311.948 345.625 311.948C343.945 311.948 343.009 312.932 342.649 314.276L341.401 314.036C341.809 312.164 343.345 310.796 345.601 310.796C348.193 310.796 349.585 312.164 349.585 314.732ZM356.598 317.972L357.774 317.828C357.99 319.628 359.214 320.636 361.206 320.636C362.814 320.636 363.942 320.036 363.942 318.812C363.942 317.66 363.126 317.3 361.662 317.036L359.862 316.724C358.038 316.412 356.91 315.572 356.91 313.892C356.91 312.02 358.47 310.796 360.75 310.796C363.438 310.796 364.998 312.068 365.166 314.54L364.038 314.636C363.774 312.764 362.67 311.948 360.75 311.948C359.262 311.948 358.278 312.62 358.278 313.724C358.278 314.732 358.878 315.236 360.174 315.452L362.094 315.764C364.134 316.1 365.334 316.82 365.334 318.668C365.334 320.708 363.51 321.788 361.23 321.788C358.71 321.788 356.766 320.54 356.598 317.972ZM375.72 317.78L376.968 317.948C376.464 320.324 374.736 321.788 372.192 321.788C369.168 321.788 366.912 319.652 366.912 316.436C366.912 313.148 369.144 310.796 372.096 310.796C375.36 310.796 376.992 313.148 376.992 315.98V316.652H368.424C368.52 318.956 370.128 320.588 372.192 320.588C374.112 320.588 375.288 319.628 375.72 317.78ZM368.448 315.62H375.432C375.384 313.7 374.304 311.948 372.096 311.948C370.032 311.948 368.688 313.676 368.448 315.62ZM385.81 316.772V316.124L383.266 316.676C381.37 317.084 380.194 317.468 380.194 318.86C380.194 319.844 380.842 320.66 382.21 320.66C384.25 320.66 385.81 319.1 385.81 316.772ZM387.202 314.732V319.748C387.202 320.3 387.538 320.564 388.066 320.564C388.306 320.564 388.714 320.468 389.002 320.3V321.092C388.69 321.452 388.354 321.716 387.634 321.716C386.602 321.716 385.858 320.828 385.81 319.508C385.258 320.732 383.722 321.788 381.946 321.788C380.002 321.788 378.706 320.708 378.706 318.908C378.706 316.94 380.434 316.148 383.026 315.62L385.81 315.044V314.516C385.81 312.932 384.874 311.948 383.242 311.948C381.562 311.948 380.626 312.932 380.266 314.276L379.018 314.036C379.426 312.164 380.962 310.796 383.218 310.796C385.81 310.796 387.202 312.164 387.202 314.732ZM398.927 313.1C399.479 311.78 400.775 310.796 402.407 310.796C405.095 310.796 406.079 312.644 406.079 315.044V321.5H404.615V314.996C404.615 313.148 403.775 311.948 402.047 311.948C400.487 311.948 399.095 313.244 399.095 315.26V321.5H397.631V314.996C397.631 313.148 396.791 311.948 395.063 311.948C393.503 311.948 392.111 313.244 392.111 315.26V321.5H390.647V311.084H392.111V313.004C392.615 311.732 393.863 310.796 395.471 310.796C397.319 310.796 398.471 311.708 398.927 313.1ZM408.835 306.38H410.299V321.5H408.835V306.38ZM421.282 317.78L422.53 317.948C422.026 320.324 420.298 321.788 417.754 321.788C414.73 321.788 412.474 319.652 412.474 316.436C412.474 313.148 414.706 310.796 417.658 310.796C420.922 310.796 422.554 313.148 422.554 315.98V316.652H413.986C414.082 318.956 415.69 320.588 417.754 320.588C419.674 320.588 420.85 319.628 421.282 317.78ZM414.01 315.62H420.994C420.946 313.7 419.866 311.948 417.658 311.948C415.594 311.948 414.25 313.676 414.01 315.62ZM424.122 317.972L425.298 317.828C425.514 319.628 426.738 320.636 428.73 320.636C430.338 320.636 431.466 320.036 431.466 318.812C431.466 317.66 430.65 317.3 429.186 317.036L427.386 316.724C425.562 316.412 424.434 315.572 424.434 313.892C424.434 312.02 425.994 310.796 428.274 310.796C430.962 310.796 432.522 312.068 432.69 314.54L431.562 314.636C431.298 312.764 430.194 311.948 428.274 311.948C426.786 311.948 425.802 312.62 425.802 313.724C425.802 314.732 426.402 315.236 427.698 315.452L429.618 315.764C431.658 316.1 432.858 316.82 432.858 318.668C432.858 320.708 431.034 321.788 428.754 321.788C426.234 321.788 424.29 320.54 424.122 317.972ZM434.317 317.972L435.493 317.828C435.709 319.628 436.933 320.636 438.925 320.636C440.533 320.636 441.661 320.036 441.661 318.812C441.661 317.66 440.845 317.3 439.381 317.036L437.581 316.724C435.757 316.412 434.629 315.572 434.629 313.892C434.629 312.02 436.189 310.796 438.469 310.796C441.157 310.796 442.717 312.068 442.885 314.54L441.757 314.636C441.493 312.764 440.389 311.948 438.469 311.948C436.981 311.948 435.997 312.62 435.997 313.724C435.997 314.732 436.597 315.236 437.893 315.452L439.813 315.764C441.853 316.1 443.053 316.82 443.053 318.668C443.053 320.708 441.229 321.788 438.949 321.788C436.429 321.788 434.485 320.54 434.317 317.972ZM450.409 316.292C450.409 318.836 451.753 320.636 454.081 320.636C456.433 320.636 457.777 318.836 457.777 316.292C457.777 313.748 456.433 311.948 454.081 311.948C451.753 311.948 450.409 313.748 450.409 316.292ZM459.313 316.292C459.313 319.532 457.057 321.788 454.081 321.788C451.129 321.788 448.873 319.532 448.873 316.292C448.873 313.052 451.129 310.796 454.081 310.796C457.057 310.796 459.313 313.052 459.313 316.292ZM462.963 315.26V321.5H461.499V311.084H462.963V313.004C463.467 311.732 464.907 310.796 466.467 310.796C469.155 310.796 470.283 312.548 470.283 315.044V321.5H468.819V314.996C468.819 313.148 467.859 311.948 466.083 311.948C464.427 311.948 462.963 313.244 462.963 315.26ZM473.053 306.38H474.517V321.5H473.053V306.38ZM477.389 311.084H478.853V321.5H477.389V311.084ZM477.341 308.324V306.38H478.901V308.324H477.341ZM483.189 315.26V321.5H481.725V311.084H483.189V313.004C483.693 311.732 485.133 310.796 486.693 310.796C489.381 310.796 490.509 312.548 490.509 315.044V321.5H489.045V314.996C489.045 313.148 488.085 311.948 486.309 311.948C484.653 311.948 483.189 313.244 483.189 315.26ZM501.392 317.78L502.64 317.948C502.136 320.324 500.408 321.788 497.864 321.788C494.84 321.788 492.584 319.652 492.584 316.436C492.584 313.148 494.816 310.796 497.768 310.796C501.032 310.796 502.664 313.148 502.664 315.98V316.652H494.096C494.192 318.956 495.8 320.588 497.864 320.588C499.784 320.588 500.96 319.628 501.392 317.78ZM494.12 315.62H501.104C501.056 313.7 499.976 311.948 497.768 311.948C495.704 311.948 494.36 313.676 494.12 315.62ZM40.6106 344.78L41.8586 344.948C41.3546 347.324 39.6266 348.788 37.0826 348.788C34.0586 348.788 31.8026 346.652 31.8026 343.436C31.8026 340.148 34.0346 337.796 36.9866 337.796C40.2506 337.796 41.8826 340.148 41.8826 342.98V343.652H33.3146C33.4106 345.956 35.0186 347.588 37.0826 347.588C39.0026 347.588 40.1786 346.628 40.6106 344.78ZM33.3386 342.62H40.3226C40.2746 340.7 39.1946 338.948 36.9866 338.948C34.9226 338.948 33.5786 340.676 33.3386 342.62ZM52.4583 338.084L48.5943 343.028L53.0103 348.5H51.2343L47.7303 344.084L44.2743 348.5H42.6423L46.9383 343.1L42.9543 338.084H44.7303L47.8023 341.996L50.8263 338.084H52.4583ZM56.1099 342.932V343.652C56.1099 346.148 57.7419 347.588 59.8059 347.588C62.0139 347.588 63.2859 345.932 63.2859 343.292C63.2859 340.652 62.0139 338.996 59.8059 338.996C57.7419 338.996 56.1099 340.436 56.1099 342.932ZM56.1579 346.22V352.58H54.6939V338.084H56.1579V340.388C56.6139 339.068 57.9819 337.796 59.9979 337.796C63.0939 337.796 64.8219 340.22 64.8219 343.292C64.8219 346.364 63.0939 348.788 59.9979 348.788C57.9819 348.788 56.6139 347.54 56.1579 346.22ZM75.1809 344.78L76.4289 344.948C75.9249 347.324 74.1969 348.788 71.6529 348.788C68.6289 348.788 66.3729 346.652 66.3729 343.436C66.3729 340.148 68.6049 337.796 71.5569 337.796C74.8209 337.796 76.4529 340.148 76.4529 342.98V343.652H67.8849C67.9809 345.956 69.5889 347.588 71.6529 347.588C73.5729 347.588 74.7489 346.628 75.1809 344.78ZM67.9089 342.62H74.8929C74.8449 340.7 73.7649 338.948 71.5569 338.948C69.4929 338.948 68.1489 340.676 67.9089 342.62ZM84.599 338.276L84.431 339.548C83.831 339.236 83.471 339.14 82.847 339.14C81.335 339.14 80.111 340.7 80.111 342.788V348.5H78.647V338.084H80.111V340.268C80.519 339.068 81.575 337.796 83.111 337.796C83.759 337.796 84.215 337.94 84.599 338.276ZM86.1705 338.084H87.6345V348.5H86.1705V338.084ZM86.1225 335.324V333.38H87.6825V335.324H86.1225ZM98.6184 344.78L99.8664 344.948C99.3624 347.324 97.6344 348.788 95.0904 348.788C92.0664 348.788 89.8104 346.652 89.8104 343.436C89.8104 340.148 92.0424 337.796 94.9944 337.796C98.2584 337.796 99.8904 340.148 99.8904 342.98V343.652H91.3224C91.4184 345.956 93.0264 347.588 95.0904 347.588C97.0104 347.588 98.1864 346.628 98.6184 344.78ZM91.3464 342.62H98.3304C98.2824 340.7 97.2024 338.948 94.9944 338.948C92.9304 338.948 91.5864 340.676 91.3464 342.62ZM103.549 342.26V348.5H102.085V338.084H103.549V340.004C104.053 338.732 105.493 337.796 107.053 337.796C109.741 337.796 110.869 339.548 110.869 342.044V348.5H109.405V341.996C109.405 340.148 108.445 338.948 106.669 338.948C105.013 338.948 103.549 340.244 103.549 342.26ZM112.943 343.292C112.943 339.98 115.103 337.796 118.199 337.796C121.223 337.796 122.855 339.836 123.047 342.356L121.703 342.452C121.559 340.46 120.335 339.02 118.151 339.02C115.967 339.02 114.479 340.724 114.479 343.292C114.479 345.86 115.967 347.564 118.151 347.564C120.335 347.564 121.559 346.076 121.703 344.084L123.047 344.228C122.855 346.748 121.223 348.788 118.199 348.788C115.103 348.788 112.943 346.604 112.943 343.292ZM133.423 344.78L134.671 344.948C134.167 347.324 132.439 348.788 129.895 348.788C126.871 348.788 124.615 346.652 124.615 343.436C124.615 340.148 126.847 337.796 129.799 337.796C133.063 337.796 134.695 340.148 134.695 342.98V343.652H126.127C126.223 345.956 127.831 347.588 129.895 347.588C131.815 347.588 132.991 346.628 133.423 344.78ZM126.151 342.62H133.135C133.087 340.7 132.007 338.948 129.799 338.948C127.735 338.948 126.391 340.676 126.151 342.62ZM147.85 338.084L150.298 346.532H150.394L152.962 338.084H154.354L151.042 348.5H149.65L147.226 340.196H147.13L144.73 348.5H143.338L140.002 338.084H141.466L144.082 346.532H144.178L146.578 338.084H147.85ZM157.502 342.26V348.5H156.038V333.38H157.502V340.004C158.006 338.732 159.446 337.796 161.006 337.796C163.694 337.796 164.822 339.548 164.822 342.044V348.5H163.358V341.996C163.358 340.148 162.398 338.948 160.622 338.948C158.966 338.948 157.502 340.244 157.502 342.26ZM175.704 344.78L176.952 344.948C176.448 347.324 174.72 348.788 172.176 348.788C169.152 348.788 166.896 346.652 166.896 343.436C166.896 340.148 169.128 337.796 172.08 337.796C175.344 337.796 176.976 340.148 176.976 342.98V343.652H168.408C168.504 345.956 170.112 347.588 172.176 347.588C174.096 347.588 175.272 346.628 175.704 344.78ZM168.432 342.62H175.416C175.368 340.7 174.288 338.948 172.08 338.948C170.016 338.948 168.672 340.676 168.432 342.62ZM185.122 338.276L184.954 339.548C184.354 339.236 183.994 339.14 183.37 339.14C181.858 339.14 180.634 340.7 180.634 342.788V348.5H179.17V338.084H180.634V340.268C181.042 339.068 182.098 337.796 183.634 337.796C184.282 337.796 184.738 337.94 185.122 338.276ZM194.454 344.78L195.702 344.948C195.198 347.324 193.47 348.788 190.926 348.788C187.902 348.788 185.646 346.652 185.646 343.436C185.646 340.148 187.878 337.796 190.83 337.796C194.094 337.796 195.726 340.148 195.726 342.98V343.652H187.158C187.254 345.956 188.862 347.588 190.926 347.588C192.846 347.588 194.022 346.628 194.454 344.78ZM187.182 342.62H194.166C194.118 340.7 193.038 338.948 190.83 338.948C188.766 338.948 187.422 340.676 187.182 342.62ZM202.195 348.5H201.019L196.603 338.084H198.139L201.643 346.532H201.739L205.171 338.084H206.611L202.195 348.5ZM216.228 344.78L217.476 344.948C216.972 347.324 215.244 348.788 212.7 348.788C209.676 348.788 207.42 346.652 207.42 343.436C207.42 340.148 209.652 337.796 212.604 337.796C215.868 337.796 217.5 340.148 217.5 342.98V343.652H208.932C209.028 345.956 210.636 347.588 212.7 347.588C214.62 347.588 215.796 346.628 216.228 344.78ZM208.956 342.62H215.94C215.892 340.7 214.812 338.948 212.604 338.948C210.54 338.948 209.196 340.676 208.956 342.62ZM225.646 338.276L225.478 339.548C224.878 339.236 224.518 339.14 223.894 339.14C222.382 339.14 221.158 340.7 221.158 342.788V348.5H219.694V338.084H221.158V340.268C221.566 339.068 222.622 337.796 224.158 337.796C224.806 337.796 225.262 337.94 225.646 338.276ZM234.434 352.58H232.994L234.746 348.428L230.33 338.084H231.866L235.442 346.652H235.538L238.994 338.084H240.434L234.434 352.58ZM242.729 343.292C242.729 345.836 244.073 347.636 246.401 347.636C248.753 347.636 250.097 345.836 250.097 343.292C250.097 340.748 248.753 338.948 246.401 338.948C244.073 338.948 242.729 340.748 242.729 343.292ZM251.633 343.292C251.633 346.532 249.377 348.788 246.401 348.788C243.449 348.788 241.193 346.532 241.193 343.292C241.193 340.052 243.449 337.796 246.401 337.796C249.377 337.796 251.633 340.052 251.633 343.292ZM260.899 344.324V338.084H262.363V348.5H260.899V346.58C260.395 347.852 259.003 348.788 257.443 348.788C254.755 348.788 253.699 347.036 253.699 344.54V338.084H255.163V344.588C255.163 346.436 256.051 347.636 257.827 347.636C259.483 347.636 260.899 346.34 260.899 344.324ZM271.185 338.276L271.017 339.548C270.417 339.236 270.057 339.14 269.433 339.14C267.921 339.14 266.697 340.7 266.697 342.788V348.5H265.233V338.084H266.697V340.268C267.105 339.068 268.161 337.796 269.697 337.796C270.345 337.796 270.801 337.94 271.185 338.276ZM278.533 338.084V350.252C278.533 351.86 277.765 352.868 276.085 352.868C275.269 352.868 274.453 352.532 273.949 352.1L274.405 351.14C274.957 351.5 275.389 351.692 276.061 351.692C276.709 351.692 277.069 351.308 277.069 350.492V338.084H278.533ZM277.021 335.324V333.38H278.581V335.324H277.021ZM282.245 343.292C282.245 345.836 283.589 347.636 285.917 347.636C288.269 347.636 289.613 345.836 289.613 343.292C289.613 340.748 288.269 338.948 285.917 338.948C283.589 338.948 282.245 340.748 282.245 343.292ZM291.149 343.292C291.149 346.532 288.893 348.788 285.917 348.788C282.965 348.788 280.709 346.532 280.709 343.292C280.709 340.052 282.965 337.796 285.917 337.796C288.893 337.796 291.149 340.052 291.149 343.292ZM300.415 344.324V338.084H301.879V348.5H300.415V346.58C299.911 347.852 298.519 348.788 296.959 348.788C294.271 348.788 293.215 347.036 293.215 344.54V338.084H294.679V344.588C294.679 346.436 295.567 347.636 297.343 347.636C298.999 347.636 300.415 346.34 300.415 344.324ZM310.701 338.276L310.533 339.548C309.933 339.236 309.573 339.14 308.949 339.14C307.437 339.14 306.213 340.7 306.213 342.788V348.5H304.749V338.084H306.213V340.268C306.621 339.068 307.677 337.796 309.213 337.796C309.861 337.796 310.317 337.94 310.701 338.276ZM313.736 342.26V348.5H312.272V338.084H313.736V340.004C314.24 338.732 315.68 337.796 317.24 337.796C319.928 337.796 321.056 339.548 321.056 342.044V348.5H319.592V341.996C319.592 340.148 318.632 338.948 316.856 338.948C315.2 338.948 313.736 340.244 313.736 342.26ZM331.939 344.78L333.187 344.948C332.683 347.324 330.955 348.788 328.411 348.788C325.387 348.788 323.131 346.652 323.131 343.436C323.131 340.148 325.363 337.796 328.315 337.796C331.579 337.796 333.211 340.148 333.211 342.98V343.652H324.643C324.739 345.956 326.347 347.588 328.411 347.588C330.331 347.588 331.507 346.628 331.939 344.78ZM324.667 342.62H331.651C331.603 340.7 330.523 338.948 328.315 338.948C326.251 338.948 324.907 340.676 324.667 342.62ZM338.192 352.58H336.752L338.504 348.428L334.088 338.084H335.624L339.2 346.652H339.296L342.752 338.084H344.192L338.192 352.58ZM350.554 346.196V339.164H348.946V338.444L349.57 338.324C350.53 338.132 350.722 337.676 350.938 336.668L351.25 335.18H351.994V338.084H355.018V339.164H351.994V346.22C351.994 347.156 352.378 347.612 353.338 347.612C354.058 347.612 354.778 347.252 355.378 346.892V347.924C354.634 348.5 353.89 348.788 352.834 348.788C351.442 348.788 350.554 348.092 350.554 346.196ZM363.802 343.772V343.124L361.258 343.676C359.362 344.084 358.186 344.468 358.186 345.86C358.186 346.844 358.834 347.66 360.202 347.66C362.242 347.66 363.802 346.1 363.802 343.772ZM365.194 341.732V346.748C365.194 347.3 365.53 347.564 366.058 347.564C366.298 347.564 366.706 347.468 366.994 347.3V348.092C366.682 348.452 366.346 348.716 365.626 348.716C364.594 348.716 363.85 347.828 363.802 346.508C363.25 347.732 361.714 348.788 359.938 348.788C357.994 348.788 356.698 347.708 356.698 345.908C356.698 343.94 358.426 343.148 361.018 342.62L363.802 342.044V341.516C363.802 339.932 362.866 338.948 361.234 338.948C359.554 338.948 358.618 339.932 358.258 341.276L357.01 341.036C357.418 339.164 358.954 337.796 361.21 337.796C363.802 337.796 365.194 339.164 365.194 341.732ZM370.103 344.588V348.5H368.639V333.38H370.103V343.124L375.839 338.084H377.759L372.815 342.404L377.999 348.5H376.223L371.735 343.22L370.103 344.588ZM387.322 344.78L388.57 344.948C388.066 347.324 386.338 348.788 383.794 348.788C380.77 348.788 378.514 346.652 378.514 343.436C378.514 340.148 380.746 337.796 383.698 337.796C386.962 337.796 388.594 340.148 388.594 342.98V343.652H380.026C380.122 345.956 381.73 347.588 383.794 347.588C385.714 347.588 386.89 346.628 387.322 344.78ZM380.05 342.62H387.034C386.986 340.7 385.906 338.948 383.698 338.948C381.634 338.948 380.29 340.676 380.05 342.62ZM390.161 344.972L391.337 344.828C391.553 346.628 392.777 347.636 394.769 347.636C396.377 347.636 397.505 347.036 397.505 345.812C397.505 344.66 396.689 344.3 395.225 344.036L393.425 343.724C391.601 343.412 390.473 342.572 390.473 340.892C390.473 339.02 392.033 337.796 394.313 337.796C397.001 337.796 398.561 339.068 398.729 341.54L397.601 341.636C397.337 339.764 396.233 338.948 394.313 338.948C392.825 338.948 391.841 339.62 391.841 340.724C391.841 341.732 392.441 342.236 393.737 342.452L395.657 342.764C397.697 343.1 398.897 343.82 398.897 345.668C398.897 347.708 397.073 348.788 394.793 348.788C392.273 348.788 390.329 347.54 390.161 344.972ZM408.317 352.58H406.877L408.629 348.428L404.213 338.084H405.749L409.325 346.652H409.421L412.877 338.084H414.317L408.317 352.58ZM416.612 343.292C416.612 345.836 417.956 347.636 420.284 347.636C422.636 347.636 423.98 345.836 423.98 343.292C423.98 340.748 422.636 338.948 420.284 338.948C417.956 338.948 416.612 340.748 416.612 343.292ZM425.516 343.292C425.516 346.532 423.26 348.788 420.284 348.788C417.332 348.788 415.076 346.532 415.076 343.292C415.076 340.052 417.332 337.796 420.284 337.796C423.26 337.796 425.516 340.052 425.516 343.292ZM434.782 344.324V338.084H436.246V348.5H434.782V346.58C434.278 347.852 432.886 348.788 431.326 348.788C428.638 348.788 427.582 347.036 427.582 344.54V338.084H429.046V344.588C429.046 346.436 429.934 347.636 431.71 347.636C433.366 347.636 434.782 346.34 434.782 344.324ZM443.428 338.084H444.892V348.5H443.428V338.084ZM443.38 335.324V333.38H444.94V335.324H443.38ZM449.228 342.26V348.5H447.764V338.084H449.228V340.004C449.732 338.732 451.172 337.796 452.732 337.796C455.42 337.796 456.548 339.548 456.548 342.044V348.5H455.084V341.996C455.084 340.148 454.124 338.948 452.348 338.948C450.692 338.948 449.228 340.244 449.228 342.26ZM469.775 348.5H468.263V334.652H462.671V333.38H475.439V334.652H469.775V348.5ZM483.016 344.324V338.084H484.48V348.5H483.016V346.58C482.512 347.852 481.12 348.788 479.56 348.788C476.872 348.788 475.816 347.036 475.816 344.54V338.084H477.28V344.588C477.28 346.436 478.168 347.636 479.944 347.636C481.6 347.636 483.016 346.34 483.016 344.324ZM493.302 338.276L493.134 339.548C492.534 339.236 492.174 339.14 491.55 339.14C490.038 339.14 488.814 340.7 488.814 342.788V348.5H487.35V338.084H488.814V340.268C489.222 339.068 490.278 337.796 491.814 337.796C492.462 337.796 492.918 337.94 493.302 338.276ZM496.338 344.588V348.5H494.874V333.38H496.338V343.124L502.074 338.084H503.994L499.05 342.404L504.234 348.5H502.458L497.97 343.22L496.338 344.588ZM513.556 344.78L514.804 344.948C514.3 347.324 512.572 348.788 510.028 348.788C507.004 348.788 504.748 346.652 504.748 343.436C504.748 340.148 506.98 337.796 509.932 337.796C513.196 337.796 514.828 340.148 514.828 342.98V343.652H506.26C506.356 345.956 507.964 347.588 510.028 347.588C511.948 347.588 513.124 346.628 513.556 344.78ZM506.284 342.62H513.268C513.22 340.7 512.14 338.948 509.932 338.948C507.868 338.948 506.524 340.676 506.284 342.62ZM519.809 352.58H518.369L520.121 348.428L515.705 338.084H517.241L520.817 346.652H520.913L524.369 338.084H525.809L519.809 352.58ZM526.058 348.5V346.58H527.978V348.5H526.058Z" fill="#D0D5DD"/>
<g clip-path="url(#clip1_199_15358)">
<rect x="180" y="421.5" width="200" height="50" rx="25" fill="#101828"/>
<path d="M237.828 451.692C235.012 451.692 232.916 449.58 232.916 446.46C232.916 443.356 235.14 441.228 237.972 441.228C240.884 441.228 242.564 442.828 242.772 445.372L240.82 445.452C240.692 443.964 239.7 442.988 238.02 442.988C236.18 442.988 234.996 444.348 234.996 446.46C234.996 448.62 236.212 449.996 238.18 449.996C239.604 449.996 240.644 449.18 240.932 447.9H238.26V446.412H242.804V451.5H241.028V450.012C240.532 451.132 239.268 451.692 237.828 451.692ZM249.593 449.036L251.145 449.196C250.777 450.764 249.561 451.692 247.753 451.692C245.577 451.692 244.009 450.3 244.009 448.076C244.009 445.852 245.593 444.252 247.705 444.252C250.009 444.252 251.193 445.852 251.193 447.772V448.46H245.897C245.961 449.5 246.777 450.236 247.817 450.236C248.761 450.236 249.321 449.836 249.593 449.036ZM245.929 447.26H249.321C249.257 446.444 248.761 445.66 247.689 445.66C246.633 445.66 246.105 446.38 245.929 447.26ZM252.665 449.708V445.788H251.657V444.652L252.137 444.572C252.825 444.46 253.017 444.108 253.177 443.452L253.401 442.492H254.569V444.444H256.489V445.788H254.569V449.276C254.569 449.884 254.841 450.156 255.417 450.156C255.801 450.156 256.201 450.012 256.617 449.82V451.084C256.105 451.468 255.529 451.692 254.665 451.692C253.577 451.692 252.665 451.212 252.665 449.708ZM264.822 445.692L267.462 441.42H269.622L265.718 447.612V451.5H263.766V447.612L259.862 441.42H262.086L264.822 445.692ZM270.633 447.98C270.633 449.308 271.241 450.236 272.409 450.236C273.593 450.236 274.201 449.308 274.201 447.98C274.201 446.636 273.593 445.708 272.409 445.708C271.241 445.708 270.633 446.636 270.633 447.98ZM276.137 447.98C276.137 450.172 274.601 451.692 272.409 451.692C270.233 451.692 268.697 450.172 268.697 447.98C268.697 445.788 270.233 444.252 272.409 444.252C274.601 444.252 276.137 445.788 276.137 447.98ZM282.051 448.22V444.444H283.971V451.5H282.051V450.348C281.683 451.164 280.851 451.692 279.779 451.692C277.907 451.692 277.267 450.428 277.267 448.86V444.444H279.187V448.476C279.187 449.548 279.587 450.188 280.531 450.188C281.475 450.188 282.051 449.42 282.051 448.22ZM290.477 444.54L290.333 446.332C289.965 446.124 289.645 446.028 289.181 446.028C288.189 446.028 287.517 446.732 287.517 448.012V451.5H285.597V444.444H287.517V445.788C287.773 444.988 288.509 444.252 289.485 444.252C289.917 444.252 290.269 444.364 290.477 444.54ZM299.422 449.036L300.974 449.196C300.606 450.764 299.39 451.692 297.582 451.692C295.406 451.692 293.838 450.3 293.838 448.076C293.838 445.852 295.422 444.252 297.534 444.252C299.838 444.252 301.022 445.852 301.022 447.772V448.46H295.726C295.789 449.5 296.606 450.236 297.646 450.236C298.59 450.236 299.15 449.836 299.422 449.036ZM295.758 447.26H299.15C299.086 446.444 298.59 445.66 297.518 445.66C296.462 445.66 295.934 446.38 295.758 447.26ZM301.774 447.916L303.614 447.836C303.694 449.404 304.83 450.108 306.238 450.108C307.486 450.108 308.286 449.612 308.286 448.764C308.286 447.996 307.678 447.708 306.622 447.5L304.702 447.148C303.134 446.86 302.046 445.996 302.046 444.332C302.046 442.444 303.534 441.228 305.886 441.228C308.526 441.228 310.014 442.588 310.046 444.828L308.206 444.892C308.142 443.516 307.246 442.796 305.87 442.796C304.686 442.796 304.014 443.324 304.014 444.188C304.014 444.924 304.542 445.18 305.454 445.356L307.31 445.692C309.294 446.06 310.222 447.004 310.222 448.636C310.222 450.62 308.51 451.692 306.238 451.692C303.646 451.692 301.774 450.348 301.774 447.916ZM311.472 444.444H313.392V451.5H311.472V444.444ZM311.44 443.292V441.42H313.408V443.292H311.44ZM321.404 445.708C321.788 444.876 322.635 444.252 323.788 444.252C325.692 444.252 326.3 445.564 326.3 447.1V451.5H324.38V447.484C324.38 446.396 324.044 445.772 323.1 445.772C322.172 445.772 321.612 446.54 321.612 447.724V451.5H319.692V447.484C319.692 446.396 319.34 445.772 318.411 445.772C317.484 445.772 316.924 446.54 316.924 447.724V451.5H315.004V444.444H316.924V445.596C317.276 444.796 318.076 444.252 319.148 444.252C320.396 444.252 321.1 444.844 321.404 445.708Z" fill="white"/>
</g>
<circle cx="264" cy="519.5" r="4" fill="#475467"/>
<circle cx="280" cy="519.5" r="4" fill="#0D1320"/>
<circle cx="296" cy="519.5" r="4" fill="#475467"/>
</g>
<defs>
<clipPath id="clip0_199_15358">
<rect width="560" height="523" fill="white" transform="translate(0 0.5)"/>
</clipPath>
<clipPath id="clip1_199_15358">
<rect x="180" y="421.5" width="200" height="50" rx="25" fill="white"/>
</clipPath>
</defs>
</svg>
