<svg width="1440" height="900" viewBox="0 0 1440 900" fill="none" xmlns="http://www.w3.org/2000/svg">
<g clip-path="url(#clip0_1023_53976)">
<rect width="1440" height="900" fill="#101828"/>
<g clip-path="url(#clip1_1023_53976)">
<rect x="200.687" y="226.855" width="203" height="63" rx="31.5" transform="rotate(-31.2029 200.687 226.855)" stroke="#475467"/>
<g clip-path="url(#clip2_1023_53976)">
<path d="M250.166 247.743C255.834 244.309 257.646 236.931 254.213 231.262C250.779 225.593 243.401 223.781 237.732 227.215C232.063 230.648 230.251 238.027 233.685 243.696C237.118 249.364 244.497 251.176 250.166 247.743Z" fill="#F0F0F0"/>
<path d="M232.021 236.16C231.85 237.698 231.975 239.275 232.416 240.803L237.756 237.569L232.021 236.16Z" fill="#0052B4"/>
<path d="M252.237 228.797C251.088 227.698 249.747 226.857 248.306 226.297L246.898 232.031L252.237 228.797Z" fill="#0052B4"/>
<path d="M235.66 246.159C236.81 247.258 238.15 248.099 239.591 248.66L241 242.925L235.66 246.159Z" fill="#0052B4"/>
<path d="M245.265 225.551C243.728 225.38 242.151 225.505 240.623 225.946L243.857 231.286L245.265 225.551Z" fill="#0052B4"/>
<path d="M242.63 249.404C244.167 249.575 245.744 249.451 247.272 249.009L244.038 243.67L242.63 249.404Z" fill="#0052B4"/>
<path d="M235.268 229.189C234.169 230.339 233.328 231.679 232.767 233.121L238.502 234.529L235.268 229.189Z" fill="#0052B4"/>
<path d="M252.628 245.766C253.727 244.617 254.567 243.277 255.128 241.835L249.394 240.427L252.628 245.766Z" fill="#0052B4"/>
<path d="M250.142 237.388L255.876 238.796C256.047 237.259 255.923 235.681 255.481 234.154L250.142 237.388Z" fill="#0052B4"/>
<path d="M253.315 229.976L244.477 235.329L244.477 235.329L239.123 226.491C238.65 226.699 238.186 226.94 237.732 227.215C237.278 227.49 236.849 227.79 236.446 228.113L241.799 236.951L241.799 236.951L232.961 242.304C233.169 242.777 233.41 243.242 233.685 243.696C233.959 244.15 234.26 244.578 234.582 244.982L243.421 239.629L243.421 239.629L248.774 248.467C249.247 248.259 249.712 248.018 250.166 247.743C250.619 247.468 251.048 247.168 251.452 246.845L246.098 238.007L246.098 238.007L254.937 232.653C254.728 232.181 254.488 231.716 254.213 231.262C253.938 230.808 253.637 230.38 253.315 229.976Z" fill="#D80027"/>
<path d="M248.248 238.535L255.602 240.341C255.686 240.003 255.753 239.661 255.807 239.317L249.51 237.771L248.248 238.535L248.248 238.535Z" fill="#D80027"/>
<path d="M242.894 241.779L242.894 241.779L241.088 249.133C241.426 249.216 241.768 249.284 242.112 249.337L243.658 243.041L242.894 241.779Z" fill="#D80027"/>
<path d="M239.649 236.423L239.649 236.423L232.295 234.617C232.212 234.955 232.144 235.297 232.091 235.641L238.387 237.188L239.649 236.423L239.649 236.423Z" fill="#D80027"/>
<path d="M245.005 233.18L246.811 225.825C246.473 225.742 246.131 225.674 245.787 225.621L244.24 231.917L245.005 233.18Z" fill="#D80027"/>
</g>
<path d="M273.135 227.681C270.808 229.09 268.226 229.111 266.319 225.963L262.257 219.258L263.335 218.605L267.49 225.465C268.796 227.62 270.601 227.976 272.586 226.774C274.57 225.572 275.125 223.786 273.83 221.648L269.665 214.771L270.708 214.139L274.77 220.845C276.676 223.993 275.461 226.272 273.135 227.681ZM277.544 218.65L280.238 223.098L279.195 223.73L274.698 216.305L275.742 215.673L276.57 217.042C276.381 215.918 277.003 214.629 278.115 213.955C280.031 212.795 281.591 213.557 282.669 215.336L285.456 219.938L284.412 220.57L281.605 215.934C280.807 214.616 279.604 214.176 278.338 214.942C277.158 215.657 276.674 217.213 277.544 218.65ZM282.934 211.317L283.978 210.685L288.474 218.109L287.431 218.741L282.934 211.317ZM281.708 209.37L280.869 207.985L281.981 207.311L282.82 208.697L281.708 209.37ZM289.783 215.072L286.747 210.059L285.601 210.754L285.29 210.24L285.683 209.886C286.285 209.334 286.225 208.926 285.944 208.115L285.524 206.919L286.054 206.598L287.308 208.668L289.463 207.362L289.929 208.132L287.774 209.438L290.82 214.467C291.224 215.134 291.695 215.294 292.379 214.879C292.892 214.568 293.25 214.001 293.522 213.485L293.968 214.221C293.686 214.953 293.28 215.479 292.528 215.935C291.535 216.536 290.602 216.423 289.783 215.072ZM299.592 207.751L300.554 207.332C301.221 209.243 300.621 211.033 298.808 212.131C296.653 213.436 294.122 212.888 292.734 210.596C291.314 208.252 291.89 205.612 293.994 204.337C296.321 202.928 298.499 203.9 299.722 205.919L300.012 206.398L293.905 210.097C294.968 211.698 296.819 212.167 298.29 211.276C299.658 210.447 300.082 209.255 299.592 207.751ZM293.476 209.351L298.455 206.336C297.591 204.988 296.065 204.205 294.491 205.159C293.02 206.05 292.808 207.862 293.476 209.351ZM307.34 201.96L307.029 201.446C305.951 199.667 304.166 199.345 302.695 200.236C301.121 201.19 300.93 202.919 302.069 204.801C303.209 206.683 304.831 207.314 306.405 206.361C307.876 205.47 308.417 203.739 307.34 201.96ZM309.398 205.436L308.414 203.811C308.659 204.948 308.223 206.429 306.786 207.299C304.579 208.636 302.301 207.654 300.975 205.464C299.648 203.274 299.833 200.801 302.04 199.464C303.477 198.594 305.001 198.91 305.896 199.654L302.871 194.659L303.914 194.026L310.442 204.804L309.398 205.436ZM324.254 196.438L322.919 197.246L314.845 194.841L314.302 196.994L316.727 200.997L315.649 201.65L309.121 190.873L310.199 190.22L313.587 195.814L315.81 186.821L317.127 186.024L315.245 193.687L324.254 196.438ZM320.789 188.388L321.833 187.756L326.33 195.181L325.286 195.813L320.789 188.388ZM319.564 186.442L318.724 185.056L319.836 184.383L320.676 185.768L319.564 186.442ZM326.726 188.861L329.42 193.309L328.377 193.941L323.88 186.516L324.924 185.884L325.752 187.253C325.563 186.129 326.185 184.84 327.297 184.166C329.213 183.006 330.773 183.768 331.851 185.547L334.638 190.149L333.594 190.781L330.786 186.145C329.989 184.827 328.786 184.387 327.52 185.153C326.34 185.868 325.856 187.424 326.726 188.861ZM339.399 180.273C340.342 181.83 339.657 183.555 337.912 184.611C337.296 184.984 336.686 185.213 336.09 185.271C335.875 185.611 335.754 186.106 335.992 186.499C336.272 186.961 336.673 187.045 337.392 186.61L340.266 184.869C341.857 183.906 343.192 184.219 343.887 185.365C344.995 187.196 343.408 189.092 341.236 190.408C339.268 191.6 337.229 191.9 336.4 190.531C335.851 189.624 336.142 188.676 336.958 187.901C336.15 188.111 335.596 187.814 335.265 187.267C334.881 186.634 335.067 185.937 335.479 185.266C334.639 185.191 333.892 184.731 333.395 183.91C332.452 182.353 333.121 180.639 334.866 179.582C335.824 179.002 336.821 178.795 337.672 179.004C337.703 178.167 338.105 177.363 338.891 176.886L339.503 177.896C338.938 178.238 338.433 178.754 338.198 179.177C338.682 179.398 339.089 179.76 339.399 180.273ZM337.305 189.632C337.968 190.727 339.291 190.557 340.78 189.655C342.627 188.536 343.675 187.294 342.898 186.011C342.421 185.224 341.578 185.337 340.586 185.938L338.242 187.357C337.336 187.907 336.725 188.674 337.305 189.632ZM338.349 180.933C337.655 179.786 336.532 179.554 335.301 180.301C334.103 181.026 333.789 182.128 334.483 183.274C335.167 184.403 336.29 184.635 337.487 183.91C338.719 183.164 339.033 182.062 338.349 180.933ZM348.185 177.22L347.875 176.706C346.797 174.927 345.012 174.606 343.541 175.497C341.967 176.45 341.775 178.179 342.915 180.061C344.055 181.943 345.676 182.574 347.25 181.621C348.721 180.73 349.263 178.999 348.185 177.22ZM350.244 180.696L349.26 179.071C349.505 180.209 349.068 181.689 347.631 182.559C345.425 183.896 343.147 182.914 341.82 180.724C340.494 178.535 340.679 176.061 342.886 174.724C344.323 173.854 345.847 174.17 346.742 174.914L343.717 169.919L344.76 169.287L351.288 180.064L350.244 180.696ZM351.686 174.749C352.784 176.562 354.519 177.265 356.178 176.26C357.855 175.244 358.036 173.381 356.937 171.568C355.839 169.755 354.104 169.052 352.428 170.067C350.768 171.072 350.587 172.936 351.686 174.749ZM358.032 170.905C359.431 173.214 358.797 175.796 356.676 177.081C354.572 178.355 351.99 177.721 350.591 175.412C349.192 173.103 349.826 170.521 351.93 169.246C354.051 167.961 356.633 168.595 358.032 170.905ZM364.114 164.111C363.938 162.932 364.436 161.671 365.6 160.967C367.516 159.806 369.015 160.699 370.051 162.409L372.838 167.011L371.795 167.643L368.987 163.007C368.189 161.69 367.072 161.197 365.84 161.943C364.729 162.617 364.296 164.141 365.166 165.578L367.86 170.026L366.817 170.658L364.009 166.022C363.211 164.705 362.094 164.212 360.862 164.958C359.75 165.632 359.318 167.157 360.188 168.594L362.882 173.041L361.839 173.673L357.342 166.249L358.385 165.617L359.214 166.986C359.024 165.861 359.51 164.655 360.656 163.961C361.973 163.163 363.188 163.316 364.114 164.111Z" fill="#667085"/>
<rect x="9.91801" y="85.6124" width="136" height="63" rx="31.5" transform="rotate(15 9.91801 85.6124)" stroke="#475467"/>
<g clip-path="url(#clip3_1023_53976)">
<path d="M29.0855 135.783C35.4871 137.498 42.0671 133.699 43.7824 127.298C45.4977 120.896 41.6988 114.316 35.2972 112.601C28.8956 110.886 22.3155 114.685 20.6002 121.086C18.8849 127.488 22.6839 134.068 29.0855 135.783Z" fill="#FCFCFC"/>
<path d="M39.1479 124.436C38.7951 124.341 38.3583 124.224 37.636 124.031C36.8902 126.814 34.0293 128.466 31.246 127.72C28.4627 126.974 26.811 124.113 27.5568 121.33C27.0696 121.199 26.532 121.055 26.0449 120.925C25.2416 123.923 26.5781 126.99 29.1183 128.505C28.6635 128.997 28.5163 129.73 28.8029 130.383C29.4897 130.081 30.2008 129.769 30.804 129.504C31.194 130.035 31.6538 130.661 32.0977 131.265C32.6779 130.839 32.9162 130.121 32.759 129.462C35.6914 129.393 38.3502 127.412 39.1479 124.436Z" fill="#6DA544"/>
<path d="M28.7003 121.096C28.7003 121.096 28.0251 123.616 30.5449 124.291L30.9138 124.93L31.9217 125.2C31.9217 125.2 32.8308 123.823 33.8387 124.093C33.8387 124.093 34.1088 123.085 35.1167 123.355C36.1246 123.626 36.6286 123.761 36.6286 123.761C36.6286 123.761 36.6648 121.61 39.5897 120.773L38.7168 119.999C38.7168 119.999 34.5139 121.574 32.1291 120.394L31.859 121.402L30.8511 121.132L30.4822 120.493L28.7003 121.096Z" fill="#FFDA44"/>
</g>
<path d="M55.9987 130.778C57.0029 127.03 60.2801 125.154 63.6028 126.045C67.0029 126.956 68.4143 129.57 67.7831 132.776L66.5891 132.518C67.1358 130.014 66.0138 127.788 63.3285 127.069C60.6625 126.354 58.1485 127.855 57.2737 131.12C56.3989 134.384 57.8259 136.941 60.4918 137.655C63.1771 138.375 65.262 137.008 66.0404 134.566L67.2033 134.94C66.1471 138.032 63.6175 139.59 60.2175 138.679C56.8947 137.789 54.9945 134.526 55.9987 130.778ZM69.2506 144.371L68.0914 144.06L70.3972 141.096L69.0736 131.817L70.31 132.149L71.3405 139.817L71.4178 139.837L76.0476 133.686L77.2067 133.997L69.2506 144.371ZM78.661 138.569L78.5057 139.148C77.9674 141.157 78.9705 142.669 80.6319 143.114C82.4092 143.59 83.7902 142.531 84.3596 140.406C84.929 138.281 84.2623 136.674 82.485 136.198C80.8236 135.753 79.1994 136.56 78.661 138.569ZM77.9905 141.226L76.6188 146.345L75.4403 146.029L78.5669 134.361L79.7453 134.677L79.2484 136.531C79.9001 135.567 81.2756 134.838 82.8984 135.273C85.3905 135.941 86.2586 138.265 85.596 140.738C84.9334 143.21 83.0197 144.789 80.5276 144.121C78.9048 143.686 78.0728 142.387 77.9905 141.226ZM93.221 138.453L92.8114 139.441C92.3957 139.06 92.1266 138.905 91.6244 138.771C90.4073 138.445 89.0856 139.436 88.6352 141.117L87.4033 145.715L86.2248 145.399L88.4714 137.015L89.6498 137.331L89.1788 139.089C89.766 138.211 90.8904 137.415 92.1267 137.746C92.6483 137.886 92.9843 138.1 93.221 138.453ZM98.8804 145.187L100.226 140.165L101.405 140.48L99.1581 148.865L97.9797 148.549L98.3938 147.003C97.7138 147.919 96.3914 148.372 95.1357 148.035C92.972 147.456 92.4999 145.818 93.0382 143.808L94.4307 138.612L95.6091 138.927L94.2063 144.163C93.8077 145.65 94.2637 146.808 95.6933 147.191C97.0262 147.548 98.4456 146.81 98.8804 145.187ZM101.63 146.483L102.608 146.621C102.394 148.117 103.162 149.192 104.765 149.622C106.059 149.968 107.097 149.729 107.361 148.744C107.609 147.816 107.03 147.35 105.908 146.822L104.527 146.183C103.126 145.538 102.399 144.619 102.762 143.267C103.165 141.76 104.685 141.111 106.52 141.603C108.684 142.182 109.665 143.543 109.267 145.569L108.339 145.403C108.53 143.839 107.817 142.944 106.272 142.53C105.074 142.209 104.137 142.538 103.899 143.426C103.682 144.238 104.056 144.773 105.052 145.226L106.531 145.891C108.1 146.602 108.911 147.44 108.512 148.928C108.072 150.57 106.371 151.046 104.536 150.554C102.507 150.011 101.212 148.587 101.63 146.483Z" fill="#667085"/>
<rect x="-0.325526" y="378.442" width="125" height="63" rx="31.5" transform="rotate(-27.5254 -0.325526 378.442)" stroke="#475467"/>
<g clip-path="url(#clip4_1023_53976)">
<path d="M47.7116 402.46C53.5888 399.397 55.8704 392.15 52.8076 386.273C49.7448 380.396 42.4974 378.114 36.6202 381.177C30.743 384.24 28.4614 391.487 31.5242 397.364C34.587 403.242 41.8344 405.523 47.7116 402.46Z" fill="#D80027"/>
<path d="M35.177 390.163L37.5687 392.511L40.5409 390.962L39.0503 393.964L41.442 396.312L38.1253 395.82L36.6283 398.821L36.0781 395.513L32.7592 395.017L35.7314 393.468L35.177 390.163Z" fill="#FFDA44"/>
<path d="M47.1833 396.629L46.0302 396.131L45.2011 397.075L45.3165 395.826L44.1612 395.323L45.3873 395.049L45.5068 393.797L46.1456 394.881L47.3758 394.605L46.5404 395.548L47.1833 396.629Z" fill="#FFDA44"/>
<path d="M47.2589 393.366L47.0369 392.129L45.7908 391.959L46.8962 391.362L46.67 390.126L47.5819 390.994L48.6894 390.401L48.1423 391.531L49.05 392.401L47.8039 392.231L47.2589 393.366Z" fill="#FFDA44"/>
<path d="M45.9452 386.248L45.9768 387.506L47.18 387.867L45.9961 388.283L46.0255 389.537L45.2624 388.539L44.0743 388.957L44.7929 387.922L44.0276 386.92L45.2308 387.281L45.9452 386.248Z" fill="#FFDA44"/>
<path d="M41.1126 384.909L41.6078 386.063L42.8617 385.943L41.9154 386.774L42.417 387.93L41.3369 387.287L40.3906 388.119L40.6657 386.892L39.5837 386.256L40.8375 386.136L41.1126 384.909Z" fill="#FFDA44"/>
</g>
<path d="M64.1624 380.581C62.3693 377.14 63.5167 373.543 66.5673 371.953C69.6888 370.326 72.4961 371.299 74.1978 374.088L73.1436 374.705C71.8541 372.491 69.5225 371.608 67.0571 372.893C64.6096 374.168 63.771 376.974 65.333 379.971C66.8951 382.968 69.6746 383.888 72.1222 382.612C74.5875 381.328 75.2001 378.911 74.1234 376.585L75.233 376.075C76.5445 379.067 75.7336 381.926 72.6121 383.552C69.5615 385.142 65.9555 384.022 64.1624 380.581ZM77.9913 374.615L80.3944 379.226L79.3125 379.79L73.4895 368.616L74.5715 368.052L77.1225 372.948C77.0051 371.813 77.7088 370.567 78.8616 369.966C80.8481 368.931 82.3564 369.791 83.3176 371.636L85.804 376.407L84.7221 376.971L82.2172 372.164C81.5055 370.799 80.334 370.282 79.0215 370.966C77.7977 371.603 77.2149 373.125 77.9913 374.615ZM83.8401 367.643L84.922 367.079L88.9334 374.776L87.8515 375.34L83.8401 367.643ZM82.7417 365.621L81.993 364.185L83.1459 363.584L83.8946 365.021L82.7417 365.621ZM89.7346 368.495L92.1377 373.106L91.0558 373.67L87.0444 365.973L88.1263 365.409L88.8657 366.828C88.7483 365.694 89.452 364.447 90.6049 363.847C92.5913 362.811 94.0996 363.672 95.0609 365.516L97.5472 370.287L96.4653 370.851L93.9605 366.045C93.2488 364.679 92.0772 364.162 90.7647 364.846C89.5409 365.484 88.9582 367.005 89.7346 368.495ZM102.669 363.175L102.42 362.696L100.752 364.084C99.5081 365.116 98.7869 365.852 99.323 366.881C99.7019 367.608 100.495 367.962 101.506 367.435C103.014 366.649 103.566 364.896 102.669 363.175ZM102.912 361.132L104.844 364.838C105.056 365.246 105.406 365.312 105.797 365.109C105.974 365.016 106.239 364.788 106.387 364.553L106.692 365.138C106.6 365.525 106.453 365.849 105.921 366.126C105.158 366.524 104.267 366.154 103.723 365.197C103.786 366.314 103.058 367.686 101.745 368.37C100.309 369.119 98.935 368.82 98.2418 367.49C97.4839 366.035 98.4559 364.784 100.168 363.396L102.004 361.898L101.8 361.508C101.19 360.337 100.12 359.971 98.9135 360.599C97.672 361.246 97.3592 362.334 97.6108 363.466L96.5961 363.769C96.1767 362.228 96.7849 360.626 98.4521 359.757C100.368 358.759 101.923 359.234 102.912 361.132Z" fill="#667085"/>
<rect x="201.629" y="428.681" width="121" height="63" rx="31.5" transform="rotate(29.4222 201.629 428.681)" stroke="#475467"/>
<g clip-path="url(#clip5_1023_53976)">
<path d="M207.698 482.045C213.47 485.3 220.789 483.26 224.045 477.487C227.3 471.715 225.26 464.396 219.487 461.14C213.715 457.884 206.396 459.925 203.14 465.697C199.885 471.47 201.925 478.789 207.698 482.045Z" fill="#F0F0F0"/>
<path d="M218.809 471.541L216.185 470.061L216.154 467.049L213.561 468.581L210.937 467.101L210.968 470.114L208.374 471.646L210.998 473.126L211.028 476.138L213.622 474.605L216.246 476.085L216.215 473.073L218.809 471.541ZM215.203 472.502L213.61 473.444L211.998 472.535L211.98 470.684L213.573 469.743L215.185 470.652L215.203 472.502ZM215.166 468.801L215.173 469.49L214.573 469.152L215.166 468.801ZM211.961 468.834L212.561 469.172L211.968 469.522L211.961 468.834ZM210.387 471.626L210.979 471.275L210.986 471.964L210.387 471.626ZM212.017 474.385L212.01 473.696L212.61 474.035L212.017 474.385ZM215.222 474.353L214.622 474.014L215.215 473.664L215.222 474.353ZM216.196 471.223L216.796 471.561L216.203 471.911L216.196 471.223Z" fill="#0052B4"/>
<path d="M224.712 467.082L211.699 459.743C210.316 459.965 208.978 460.426 207.749 461.11L225.586 471.169C225.535 469.764 225.237 468.38 224.712 467.082Z" fill="#0052B4"/>
<path d="M202.473 476.102L215.485 483.441C216.868 483.22 218.206 482.758 219.435 482.075L201.599 472.016C201.65 473.421 201.947 474.805 202.473 476.102Z" fill="#0052B4"/>
</g>
<path d="M238.626 478.708L239.724 479.327L233.534 490.302L232.437 489.683L238.626 478.708ZM236.622 488.668L237.535 489.045C236.955 490.44 237.43 491.672 238.876 492.488C240.043 493.146 241.108 493.172 241.609 492.284C242.081 491.448 241.636 490.852 240.681 490.061L239.502 489.098C238.306 488.125 237.831 487.054 238.519 485.834C239.285 484.475 240.919 484.225 242.574 485.159C244.525 486.259 245.136 487.821 244.246 489.684L243.388 489.292C243.963 487.825 243.496 486.781 242.102 485.995C241.022 485.386 240.033 485.471 239.581 486.272C239.168 487.004 239.397 487.615 240.249 488.303L241.515 489.315C242.859 490.394 243.435 491.408 242.678 492.749C241.843 494.23 240.077 494.267 238.422 493.334C236.593 492.302 235.693 490.601 236.622 488.668ZM251.624 490.722L250.981 491.577C250.673 491.105 250.451 490.888 249.998 490.632C248.901 490.013 247.374 490.645 246.519 492.16L244.181 496.306L243.118 495.707L247.382 488.146L248.445 488.746L247.551 490.331C248.338 489.627 249.625 489.136 250.74 489.765C251.211 490.03 251.483 490.321 251.624 490.722ZM255.238 498.019L255.503 497.548L253.43 496.907C251.887 496.427 250.876 496.225 250.306 497.235C249.904 497.949 250.04 498.807 251.033 499.367C252.514 500.202 254.285 499.708 255.238 498.019ZM257.083 497.108L255.03 500.749C254.804 501.149 254.94 501.478 255.323 501.695C255.497 501.793 255.832 501.89 256.11 501.886L255.786 502.461C255.412 502.595 255.06 502.649 254.538 502.354C253.789 501.931 253.612 500.982 254.118 500.004C253.216 500.667 251.669 500.805 250.38 500.078C248.968 499.282 248.47 497.967 249.207 496.661C250.012 495.232 251.591 495.365 253.688 496.043L255.945 496.764L256.161 496.381C256.81 495.231 256.533 494.134 255.348 493.466C254.129 492.778 253.047 493.109 252.235 493.937L251.428 493.252C252.49 492.06 254.165 491.696 255.803 492.62C257.684 493.681 258.134 495.244 257.083 497.108ZM264.139 504.003L264.976 504.636C263.638 506.154 261.784 506.51 259.937 505.468C257.742 504.23 256.979 501.756 258.296 499.422C259.642 497.035 262.225 496.242 264.367 497.45C266.737 498.786 266.958 501.162 265.799 503.217L265.524 503.705L259.305 500.198C258.431 501.909 258.93 503.752 260.429 504.597C261.822 505.383 263.069 505.168 264.139 504.003ZM259.745 499.458L264.814 502.317C265.565 500.904 265.499 499.19 263.896 498.286C262.398 497.441 260.715 498.146 259.745 499.458ZM271.322 497.147L272.384 497.747L266.195 508.722L265.132 508.122L271.322 497.147Z" fill="#667085"/>
<rect x="221.691" y="718.552" width="148" height="63" rx="31.5" transform="rotate(-32.6563 221.691 718.552)" stroke="#475467"/>
<g clip-path="url(#clip6_1023_53976)">
<path d="M271.684 738.177C277.264 734.601 278.888 727.179 275.312 721.599C271.736 716.019 264.314 714.395 258.734 717.971C253.154 721.547 251.53 728.97 255.106 734.549C258.682 740.129 266.105 741.753 271.684 738.177Z" fill="#D80027"/>
<path d="M268.701 719.02L255.523 727.466L261.717 737.13L274.895 728.684L268.701 719.02Z" fill="#6DA544"/>
<path d="M268.666 729.887C267.089 730.898 264.992 730.439 263.981 728.862C262.97 727.285 263.429 725.187 265.006 724.176C265.498 723.861 266.04 723.689 266.584 723.649C265.554 723.436 264.442 723.609 263.486 724.221C261.545 725.465 260.98 728.047 262.224 729.988C263.468 731.929 266.049 732.493 267.99 731.25C268.947 730.637 269.568 729.699 269.804 728.673C269.541 729.151 269.158 729.572 268.666 729.887Z" fill="#F0F0F0"/>
</g>
<path d="M295.556 716.345L294.664 716.917L284.943 709.607L284.875 709.65L291.027 719.248L290.017 719.896L283.218 709.288L284.969 708.165L294.235 715.173L294.285 715.141L291.603 703.913L293.337 702.802L300.136 713.41L299.059 714.101L292.907 704.503L292.84 704.546L295.556 716.345ZM304.688 705.813L304.397 705.358L302.86 706.89C301.713 708.028 301.061 708.827 301.687 709.803C302.129 710.494 302.951 710.775 303.91 710.16C305.342 709.242 305.735 707.446 304.688 705.813ZM304.747 703.756L307.003 707.275C307.251 707.662 307.605 707.696 307.976 707.459C308.144 707.351 308.387 707.1 308.514 706.853L308.87 707.409C308.813 707.801 308.696 708.138 308.191 708.462C307.467 708.926 306.545 708.637 305.918 707.733C306.081 708.84 305.478 710.271 304.232 711.07C302.869 711.944 301.474 711.769 300.664 710.506C299.779 709.125 300.635 707.793 302.217 706.257L303.911 704.601L303.673 704.23C302.961 703.119 301.862 702.849 300.717 703.583C299.538 704.339 299.324 705.45 299.676 706.555L298.692 706.948C298.137 705.451 298.599 703.8 300.182 702.786C302.001 701.62 303.592 701.954 304.747 703.756ZM303.409 696.347L304.436 695.689L311.235 706.297L310.208 706.955L303.409 696.347ZM316.694 698L316.37 697.494C315.248 695.743 313.455 695.467 312.007 696.395C310.458 697.388 310.31 699.122 311.497 700.974C312.684 702.826 314.321 703.416 315.87 702.423C317.319 701.495 317.816 699.751 316.694 698ZM318.84 701.423L317.815 699.823C318.088 700.954 317.69 702.445 316.275 703.351C314.103 704.743 311.801 703.82 310.419 701.665C309.038 699.509 309.16 697.031 311.333 695.639C312.747 694.733 314.279 695.01 315.192 695.731L312.041 690.814L313.068 690.156L319.867 700.764L318.84 701.423ZM317.199 692.165L318.226 691.506L322.91 698.814L321.883 699.472L317.199 692.165ZM315.924 690.25L315.05 688.886L316.145 688.184L317.019 689.548L315.924 690.25ZM328.006 695.548L327.181 696.077L319.399 690.754L320.477 690.064L326.734 694.415L326.801 694.372L325.41 686.902L326.421 686.254L328.006 695.548ZM336.179 686.628L337.13 686.185C337.845 688.078 337.291 689.882 335.506 691.026C333.384 692.386 330.841 691.902 329.395 689.646C327.916 687.339 328.424 684.685 330.496 683.358C332.786 681.89 334.988 682.806 336.262 684.793L336.564 685.265L330.553 689.117C331.656 690.691 333.518 691.113 334.966 690.184C336.313 689.321 336.707 688.119 336.179 686.628ZM330.105 688.382L335.005 685.242C334.108 683.917 332.563 683.173 331.014 684.166C329.565 685.094 329.4 686.911 330.105 688.382ZM338.257 685.486L339.017 684.856C339.978 686.022 341.29 686.179 342.688 685.283C343.816 684.56 344.338 683.632 343.787 682.773C343.269 681.965 342.535 682.079 341.389 682.552L339.986 683.143C338.566 683.744 337.397 683.662 336.641 682.483C335.8 681.17 336.344 679.609 337.943 678.584C339.829 677.376 341.496 677.566 342.725 679.225L341.977 679.8C340.95 678.605 339.808 678.529 338.461 679.392C337.417 680.062 337.029 680.976 337.526 681.75C337.979 682.457 338.626 682.541 339.633 682.11L341.12 681.465C342.703 680.784 343.868 680.749 344.699 682.046C345.617 683.477 344.822 685.055 343.223 686.08C341.455 687.214 339.53 687.212 338.257 685.486Z" fill="#667085"/>
<rect x="-3.62541" y="696.609" width="184" height="63" rx="31.5" transform="rotate(14.4921 -3.62541 696.609)" stroke="#475467"/>
<g clip-path="url(#clip7_1023_53976)">
<path d="M15.9873 746.608C22.4038 748.267 28.9499 744.41 30.6084 737.993C32.2669 731.577 28.4097 725.031 21.9932 723.372C15.5766 721.714 9.03053 725.571 7.37205 731.987C5.71357 738.404 9.57074 744.95 15.9873 746.608Z" fill="#F0F0F0"/>
<path d="M18.4842 734.86L30.6075 737.993C30.8785 736.945 31.0013 735.893 30.9906 734.859L19.2676 731.829L18.4842 734.86Z" fill="#D80027"/>
<path d="M20.0516 728.797L30.4696 731.49C30.0584 730.146 29.4142 728.885 28.5722 727.766L20.835 725.767L20.0516 728.797Z" fill="#D80027"/>
<path d="M15.9866 746.609C18.7209 747.316 21.4783 747.02 23.8715 745.952L9.40723 742.214C10.9833 744.307 13.2522 745.902 15.9866 746.609Z" fill="#D80027"/>
<path d="M7.5099 738.489L27.3358 743.614C28.1476 742.83 28.8536 741.926 29.4242 740.92L6.98828 735.121C7.00016 736.277 7.17974 737.41 7.5099 738.489Z" fill="#D80027"/>
<path d="M15.2878 723.575L16.3466 723.848L15.1768 724.309L15.2538 725.564L14.4539 724.594L13.2842 725.055L13.8677 724.139C12.8139 724.637 11.8352 725.287 10.9652 726.068L11.3044 726.155L10.5598 726.449C10.42 726.587 10.2836 726.728 10.1504 726.873L10.2116 727.871L9.758 727.321C9.54314 727.579 9.33843 727.847 9.14493 728.125L9.21235 729.225L10.4296 729.54L9.25988 730.001L9.33683 731.256L8.53698 730.286L7.83631 730.562C7.65459 731.021 7.49887 731.497 7.37205 731.987L18.9902 734.99C20.6487 728.574 20.8442 727.817 21.9932 723.372C19.6981 722.779 17.3865 722.892 15.2878 723.575ZM13.5042 732.333L12.7044 731.363L11.5347 731.824L12.2101 730.763L11.4102 729.793L12.6275 730.108L13.3028 729.047L13.3797 730.302L14.597 730.617L13.4273 731.078L13.5042 732.333ZM14.302 727.694L14.379 728.948L13.5791 727.978L12.4094 728.439L13.0849 727.379L12.285 726.409L13.5022 726.724L14.1776 725.663L14.2545 726.918L15.4718 727.233L14.302 727.694ZM17.6716 733.41L16.8718 732.44L15.7021 732.901L16.3775 731.84L15.5776 730.87L16.7949 731.185L17.4702 730.125L17.5471 731.38L18.7644 731.694L17.5947 732.155L17.6716 733.41ZM18.4694 728.771L18.5464 730.026L17.7465 729.056L16.5768 729.517L17.2522 728.456L16.4523 727.486L17.6696 727.801L18.345 726.74L18.4219 727.995L19.6392 728.31L18.4694 728.771ZM19.3442 725.386L19.4212 726.641L18.6213 725.671L17.4516 726.132L18.127 725.072L17.3271 724.102L18.5444 724.416L19.2198 723.356L19.2967 724.611L20.514 724.925L19.3442 725.386Z" fill="#0052B4"/>
</g>
<path d="M46.3871 749.032C43.7537 748.352 41.9346 746.518 42.8555 742.955L44.8174 735.365L46.0374 735.68L44.0304 743.445C43.3998 745.885 44.4062 747.426 46.6524 748.006C48.8986 748.587 50.5643 747.736 51.1899 745.316L53.2019 737.532L54.3831 737.837L52.4212 745.428C51.5003 748.991 49.0206 749.713 46.3871 749.032ZM55.9299 745.88L54.6286 750.915L53.4474 750.609L55.6196 742.206L56.8007 742.511L56.4003 744.06C57.0722 743.139 58.4293 742.684 59.6879 743.009C61.8566 743.57 62.4014 745.219 61.8808 747.232L60.5345 752.441L59.3533 752.136L60.7097 746.888C61.095 745.397 60.5707 744.229 59.1378 743.859C57.8017 743.513 56.3503 744.254 55.9299 745.88ZM64.9421 744.615L66.1233 744.92L63.9511 753.324L62.77 753.019L64.9421 744.615ZM65.4789 742.378L65.8843 740.81L67.143 741.135L66.7376 742.704L65.4789 742.378ZM67.0392 752.139L68.5056 746.466L67.2083 746.13L67.3584 745.55L67.8869 745.583C68.7015 745.628 68.9515 745.3 69.336 744.532L69.898 743.397L70.4983 743.552L69.8927 745.895L72.3325 746.525L72.1073 747.397L69.6675 746.766L68.196 752.459C68.0008 753.214 68.2156 753.662 68.9901 753.862C69.571 754.012 70.227 753.872 70.7862 753.707L70.5709 754.539C69.8506 754.849 69.1902 754.926 68.3382 754.706C67.2151 754.416 66.6438 753.669 67.0392 752.139ZM79.1295 754.046L80.1014 754.441C79.1993 756.253 77.4998 757.074 75.4473 756.544C73.0074 755.913 71.6327 753.719 72.3033 751.124C72.989 748.472 75.2803 747.039 77.662 747.655C80.2955 748.336 81.1218 750.574 80.5312 752.859L80.391 753.401L73.4782 751.614C73.0752 753.493 74.0322 755.145 75.6975 755.575C77.2466 755.976 78.3956 755.446 79.1295 754.046ZM73.7128 750.786L79.3476 752.243C79.7093 750.684 79.2033 749.045 77.4218 748.584C75.7565 748.154 74.3118 749.268 73.7128 750.786ZM88.6855 755.545L88.8356 754.964C89.3561 752.95 88.3397 751.448 86.6744 751.017C84.893 750.557 83.5214 751.628 82.9708 753.758C82.4203 755.888 83.1012 757.489 84.8827 757.949C86.5479 758.38 88.165 757.558 88.6855 755.545ZM87.6358 759.446L88.1112 757.606C87.468 758.576 86.1041 759.298 84.4775 758.878C81.9796 758.232 81.0909 755.916 81.7316 753.437C82.3722 750.959 84.2719 749.363 86.7698 750.009C88.3963 750.429 89.2348 751.741 89.3274 752.901L90.7889 747.247L91.97 747.552L88.8169 759.751L87.6358 759.446ZM95.0094 756.683L96.1381 756.872C95.6093 759.317 96.8905 761.074 99.1174 761.649C101.131 762.17 102.62 761.604 103.01 760.094C103.331 758.855 102.765 758.006 101.093 757.202L98.7397 756.078C97.087 755.279 96.1267 754.039 96.6022 752.199C97.1227 750.185 99.1052 749.149 101.681 749.814C104.643 750.58 105.985 752.662 105.274 755.412L104.126 755.218C104.663 752.981 103.682 751.344 101.455 750.768C99.5184 750.268 98.1888 750.936 97.7934 752.466C97.438 753.841 98.1943 754.511 99.7214 755.236L101.78 756.223C103.819 757.205 104.698 758.361 104.197 760.298C103.642 762.447 101.447 763.264 98.8721 762.598C95.9676 761.847 94.2436 759.646 95.0094 756.683ZM106.012 762.213L107.479 756.539L106.181 756.204L106.332 755.623L106.86 755.656C107.675 755.701 107.925 755.374 108.309 754.605L108.871 753.47L109.471 753.625L108.866 755.968L111.306 756.599L111.08 757.47L108.641 756.839L107.169 762.532C106.974 763.288 107.189 763.736 107.963 763.936C108.544 764.086 109.2 763.946 109.759 763.78L109.544 764.613C108.824 764.922 108.163 765 107.311 764.779C106.188 764.489 105.617 763.742 106.012 762.213ZM117.207 763.02L117.342 762.497L115.174 762.412C113.56 762.346 112.531 762.41 112.24 763.533C112.035 764.327 112.388 765.121 113.492 765.406C115.137 765.831 116.721 764.898 117.207 763.02ZM118.755 761.664L117.709 765.711C117.594 766.156 117.81 766.44 118.236 766.55C118.43 766.6 118.779 766.607 119.047 766.532L118.881 767.171C118.555 767.396 118.228 767.539 117.647 767.389C116.815 767.174 116.4 766.302 116.636 765.227C115.936 766.1 114.476 766.631 113.043 766.261C111.475 765.856 110.654 764.714 111.03 763.262C111.44 761.674 113 761.395 115.201 761.51L117.567 761.626L117.677 761.2C118.008 759.922 117.458 758.932 116.141 758.592C114.785 758.242 113.825 758.841 113.254 759.85L112.298 759.396C113.017 757.971 114.542 757.187 116.362 757.658C118.453 758.198 119.291 759.592 118.755 761.664ZM120.8 766.035L122.266 760.361L120.969 760.026L121.119 759.445L121.648 759.478C122.462 759.524 122.712 759.196 123.097 758.428L123.659 757.292L124.259 757.447L123.653 759.79L126.093 760.421L125.868 761.292L123.428 760.662L121.957 766.354C121.761 767.11 121.976 767.558 122.751 767.758C123.332 767.908 123.988 767.768 124.547 767.602L124.332 768.435C123.611 768.745 122.951 768.822 122.099 768.602C120.976 768.311 120.404 767.565 120.8 766.035ZM132.89 767.941L133.862 768.337C132.96 770.149 131.26 770.97 129.208 770.439C126.768 769.808 125.393 767.615 126.064 765.02C126.75 762.367 129.041 760.935 131.423 761.55C134.056 762.231 134.882 764.469 134.292 766.754L134.152 767.296L127.239 765.509C126.836 767.388 127.793 769.04 129.458 769.471C131.007 769.871 132.156 769.342 132.89 767.941ZM127.473 764.682L133.108 766.138C133.47 764.579 132.964 762.94 131.182 762.48C129.517 762.049 128.072 763.163 127.473 764.682ZM135.141 768.688L136.12 768.817C135.919 770.314 136.696 771.383 138.303 771.798C139.601 772.134 140.636 771.885 140.891 770.897C141.131 769.968 140.548 769.507 139.422 768.989L138.035 768.362C136.628 767.73 135.893 766.817 136.243 765.461C136.634 763.951 138.148 763.289 139.987 763.764C142.156 764.325 143.149 765.676 142.769 767.706L141.839 767.548C142.017 765.983 141.296 765.094 139.747 764.694C138.546 764.383 137.612 764.72 137.382 765.611C137.172 766.424 137.551 766.956 138.552 767.401L140.036 768.053C141.611 768.749 142.429 769.58 142.044 771.071C141.619 772.717 139.922 773.208 138.082 772.733C136.049 772.207 134.741 770.795 135.141 768.688Z" fill="#667085"/>
<rect x="407.7" y="893.827" width="169" height="63" rx="31.5" transform="rotate(-36.7543 407.7 893.827)" stroke="#475467"/>
<g clip-path="url(#clip8_1023_53976)">
<path d="M458.968 909.831C464.278 905.865 465.368 898.345 461.402 893.035C457.436 887.726 449.917 886.636 444.607 890.602C439.297 894.567 438.207 902.087 442.173 907.397C446.139 912.707 453.658 913.796 458.968 909.831Z" fill="#D80027"/>
<path d="M455.555 894.798L452.21 897.295L449.713 893.951L446.369 896.449L448.866 899.793L445.522 902.29L448.02 905.635L451.364 903.137L453.861 906.481L457.206 903.984L454.708 900.639L458.052 898.142L455.555 894.798Z" fill="#F0F0F0"/>
</g>
<path d="M472.554 887.177L473.407 886.415C474.983 888.358 477.155 888.459 478.998 887.082C480.665 885.838 481.156 884.323 480.222 883.073C479.456 882.047 478.44 881.957 476.767 882.758L474.416 883.889C472.759 884.678 471.191 884.651 470.054 883.128C468.809 881.462 469.242 879.267 471.373 877.675C473.825 875.844 476.288 876.101 477.988 878.376L477.118 879.151C475.71 877.332 473.818 877.072 471.975 878.448C470.373 879.645 470.062 881.1 471.007 882.366C471.857 883.504 472.854 883.334 474.375 882.597L476.433 881.609C478.475 880.633 479.927 880.672 481.124 882.275C482.452 884.053 481.716 886.276 479.584 887.868C477.181 889.663 474.385 889.629 472.554 887.177ZM483.907 873.506L489.754 877.926L489.818 877.878L487.32 870.957L488.249 870.263L491.232 878.869L490.302 879.563L484.543 875.228L484.479 875.276L487.017 882.017L486.088 882.711L478.667 877.42L479.644 876.69L485.603 881.026L485.668 880.978L483.057 874.141L483.907 873.506ZM489.374 869.423L490.351 868.693L495.545 875.648L494.567 876.378L489.374 869.423ZM487.965 867.605L486.996 866.307L488.037 865.529L489.007 866.827L487.965 867.605ZM496.554 872.498L493.047 867.803L491.974 868.605L491.615 868.124L491.972 867.733C492.517 867.126 492.418 866.726 492.059 865.945L491.525 864.796L492.022 864.425L493.47 866.364L495.489 864.856L496.028 865.577L494.009 867.085L497.527 871.796C497.994 872.421 498.478 872.534 499.119 872.055C499.6 871.696 499.901 871.097 500.122 870.557L500.636 871.246C500.427 872.002 500.074 872.565 499.369 873.092C498.439 873.786 497.499 873.764 496.554 872.498ZM501.444 861.632L497.198 864.803L496.611 864.018L502.14 859.889L502.642 860.562L502.276 869.397L506.859 865.975L507.446 866.76L501.661 871.08L501.158 870.407L501.444 861.632ZM512.119 859.401L513.036 858.891C513.884 860.728 513.46 862.567 511.762 863.836C509.743 865.344 507.171 865.043 505.567 862.896C503.928 860.7 504.245 858.017 506.216 856.545C508.396 854.917 510.658 855.674 512.07 857.565L512.405 858.013L506.685 862.286C507.898 863.776 509.785 864.064 511.163 863.035C512.445 862.077 512.752 860.85 512.119 859.401ZM506.186 861.585L510.849 858.102C509.86 856.844 508.265 856.213 506.791 857.314C505.413 858.343 505.377 860.167 506.186 861.585ZM515.164 850.362L515.686 851.295C515.129 851.386 514.841 851.501 514.425 851.812C513.415 852.566 513.376 854.218 514.417 855.612L517.265 859.426L516.288 860.156L511.094 853.202L512.071 852.472L513.16 853.93C512.834 852.925 512.905 851.549 513.931 850.783C514.363 850.46 514.74 850.329 515.164 850.362ZM513.771 846.309L514.749 845.579L522.288 855.674L521.311 856.404L513.771 846.309ZM526.271 847.783L525.948 847.35L524.525 848.987C523.462 850.205 522.868 851.048 523.563 851.977C524.053 852.634 524.893 852.856 525.806 852.174C527.168 851.156 527.432 849.337 526.271 847.783ZM526.183 845.726L528.684 849.075C528.96 849.444 529.316 849.453 529.668 849.189C529.828 849.07 530.053 848.802 530.161 848.546L530.556 849.075C530.528 849.471 530.435 849.815 529.954 850.174C529.265 850.689 528.326 850.467 527.635 849.609C527.877 850.702 527.378 852.173 526.192 853.058C524.894 854.028 523.491 853.953 522.593 852.751C521.612 851.437 522.37 850.047 523.838 848.402L525.409 846.629L525.146 846.276C524.356 845.219 523.241 845.028 522.151 845.842C521.029 846.68 520.895 847.804 521.325 848.881L520.372 849.343C519.711 847.889 520.054 846.21 521.56 845.085C523.291 843.792 524.903 844.012 526.183 845.726ZM529.724 843.631L532.836 847.797L531.858 848.527L526.664 841.573L527.642 840.843L528.599 842.125C528.301 841.024 528.796 839.681 529.838 838.903C531.632 837.563 533.259 838.17 534.504 839.837L537.723 844.147L536.746 844.877L533.502 840.535C532.581 839.301 531.341 838.978 530.156 839.864C529.05 840.69 528.719 842.285 529.724 843.631ZM542.507 835.531L542.148 835.051C540.904 833.384 539.096 833.237 537.718 834.266C536.244 835.367 536.22 837.107 537.537 838.869C538.853 840.632 540.528 841.103 542.002 840.002C543.381 838.973 543.752 837.198 542.507 835.531ZM544.893 838.792L543.756 837.27C544.11 838.379 543.819 839.894 542.473 840.899C540.406 842.443 538.043 841.686 536.511 839.635C534.979 837.584 534.924 835.104 536.991 833.56C538.337 832.555 539.885 832.722 540.848 833.376L537.353 828.697L538.331 827.967L545.87 838.062L544.893 838.792Z" fill="#667085"/>
<rect x="231.996" y="-28.3176" width="116" height="63" rx="31.5" transform="rotate(29.8049 231.996 -28.3176)" stroke="#475467"/>
<g clip-path="url(#clip9_1023_53976)">
<path d="M237.707 25.0849C243.458 28.379 250.79 26.3875 254.084 20.6367C257.379 14.886 255.387 7.55363 249.636 4.25949C243.886 0.965351 236.553 2.95684 233.259 8.7076C229.965 14.4584 231.956 21.7907 237.707 25.0849Z" fill="#F0F0F0"/>
<path d="M249.637 4.25847C245.509 1.89375 240.566 2.25295 236.887 4.77118L255.645 15.5166C255.956 11.0689 253.765 6.62316 249.637 4.25847Z" fill="#FF9811"/>
<path d="M237.707 25.0843C241.836 27.449 246.779 27.0899 250.458 24.5716L231.699 13.8262C231.388 18.2739 233.579 22.7196 237.707 25.0843Z" fill="#6DA544"/>
<path d="M241.598 18.2938C243.598 19.4396 246.148 18.7469 247.294 16.7466C248.44 14.7464 247.747 12.196 245.747 11.0502C243.747 9.90443 241.196 10.5971 240.05 12.5974C238.905 14.5976 239.597 17.148 241.598 18.2938Z" fill="#0052B4"/>
<path d="M242.375 16.9352C243.626 17.6513 245.22 17.2184 245.936 15.9682C246.652 14.7181 246.219 13.1241 244.969 12.408C243.719 11.6919 242.125 12.1248 241.408 13.3749C240.692 14.6251 241.125 16.2191 242.375 16.9352Z" fill="#F0F0F0"/>
<path d="M245.273 11.8788L245.064 13.8626L246.892 14.6611L245.069 15.4721L245.292 17.4544L243.678 16.2816L242.072 17.4654L242.281 15.4816L240.453 14.683L242.276 13.8721L242.053 11.8898L243.667 13.0626L245.273 11.8788Z" fill="#0052B4"/>
</g>
<path d="M268.658 21.9552L269.751 22.5814L263.488 33.5148L262.395 32.8885L268.658 21.9552ZM269.307 30.8552L266.722 35.3673L265.664 34.761L269.978 27.2291L271.037 27.8355L270.242 29.2239C271.133 28.5128 272.562 28.4325 273.69 29.0786C275.634 30.192 275.724 31.9261 274.69 33.731L272.016 38.3993L270.957 37.7929L273.651 33.0899C274.416 31.7536 274.219 30.4882 272.935 29.7526C271.738 29.0667 270.142 29.3974 269.307 30.8552ZM281.824 39.3616L282.122 38.841C283.156 37.0361 282.572 35.3189 281.079 34.464C279.483 33.5494 277.877 34.22 276.784 36.129C275.69 38.038 275.924 39.7623 277.521 40.6769C279.013 41.5318 280.79 41.1665 281.824 39.3616ZM279.781 42.8474L280.725 41.1987C279.849 41.9643 278.342 42.3001 276.885 41.4651C274.646 40.1827 274.401 37.7141 275.673 35.4928C276.945 33.2714 279.199 32.2343 281.438 33.5167C282.895 34.3518 283.358 35.8382 283.141 36.9816L286.044 31.9141L287.102 32.5205L280.839 43.4538L279.781 42.8474ZM287.231 37.1118L288.29 37.7182L283.975 45.25L282.917 44.6437L287.231 37.1118ZM288.339 35.0962L289.145 33.6905L290.273 34.3366L289.468 35.7423L288.339 35.0962ZM292.8 45.7645L293.069 45.2959L291 44.6413C289.46 44.151 288.451 43.9416 287.874 44.9482C287.467 45.6597 287.597 46.5181 288.587 47.0848C290.062 47.9298 291.836 47.4479 292.8 45.7645ZM294.652 44.8659L292.574 48.493C292.345 48.8922 292.479 49.2223 292.861 49.441C293.034 49.5404 293.369 49.6399 293.647 49.6377L293.319 50.2104C292.944 50.3415 292.592 50.3933 292.071 50.095C291.325 49.6676 291.155 48.7173 291.667 47.7429C290.761 48.3993 289.213 48.5267 287.928 47.7911C286.523 46.9859 286.033 45.6681 286.778 44.3665C287.594 42.9435 289.171 43.0865 291.264 43.7783L293.516 44.515L293.735 44.1332C294.391 42.9878 294.121 41.8886 292.941 41.2126C291.727 40.5167 290.642 40.8405 289.825 41.6633L289.022 40.9728C290.092 39.7881 291.77 39.4352 293.401 40.3696C295.275 41.4432 295.715 43.009 294.652 44.8659Z" fill="#667085"/>
<rect x="624.685" y="62.9471" width="136" height="63" rx="31.5" transform="rotate(-30.616 624.685 62.9471)" stroke="#475467"/>
<g clip-path="url(#clip10_1023_53976)">
<path d="M673.947 84.3409C679.651 80.9656 681.538 73.6058 678.163 67.9023C674.788 62.1987 667.428 60.3112 661.725 63.6865C656.021 67.0617 654.134 74.4215 657.509 80.125C660.884 85.8286 668.244 87.7161 673.947 84.3409Z" fill="#F0F0F0"/>
<path d="M677.279 66.6066L664.794 73.9948L664.794 73.9948L659.625 65.2601C658.796 66.0365 658.094 66.915 657.529 67.8646L662.1 75.5891L662.1 75.5891L656.799 78.7259C657.003 79.2009 657.239 79.6682 657.509 80.1247C657.779 80.5812 658.075 81.0131 658.394 81.42L663.694 78.2832L663.694 78.2832L668.265 86.0076C669.37 85.9691 670.478 85.7767 671.557 85.4235L666.388 76.689L666.388 76.6889L678.873 69.3007C678.67 68.8258 678.434 68.3584 678.163 67.9019C677.893 67.4454 677.597 67.0136 677.279 66.6066Z" fill="#0052B4"/>
</g>
<path d="M693.987 66.0915L692.92 66.723L686.503 55.8794L693.681 51.632L694.22 52.5443L688.11 56.1602L690.494 60.1878L695.347 57.3154L695.887 58.2277L691.033 61.1L693.987 66.0915ZM697.137 54.1415L698.187 53.5201L702.608 60.9901L701.558 61.6115L697.137 54.1415ZM695.931 52.1825L695.106 50.7883L696.225 50.1262L697.05 51.5204L695.931 52.1825ZM703.069 54.6748L705.717 59.15L704.667 59.7713L700.247 52.3013L701.297 51.68L702.112 53.0569C701.933 51.9308 702.569 50.6484 703.687 49.9863C705.615 48.8455 707.168 49.6233 708.227 51.4133L710.967 56.0433L709.917 56.6647L707.157 52.0002C706.372 50.6749 705.175 50.2217 703.901 50.9755C702.713 51.6783 702.213 53.229 703.069 54.6748ZM706.537 44.0239L707.587 43.4026L714.004 54.2461L712.954 54.8675L706.537 44.0239ZM718.807 46.8253L718.532 46.3606L716.942 47.8361C715.756 48.9334 715.075 49.7079 715.666 50.7062C716.084 51.4119 716.895 51.722 717.876 51.1415C719.339 50.2757 719.795 48.4948 718.807 46.8253ZM718.94 44.7715L721.069 48.3688C721.303 48.7647 721.656 48.8114 722.035 48.5873C722.207 48.4855 722.459 48.2435 722.594 48.0007L722.93 48.5687C722.859 48.9593 722.73 49.2913 722.214 49.5968C721.474 50.0348 720.563 49.7137 719.969 48.7874C720.092 49.8995 719.439 51.3087 718.165 52.0625C716.771 52.8875 715.383 52.663 714.619 51.3721C713.784 49.9607 714.687 48.6593 716.322 47.1806L718.074 45.586L717.85 45.2073C717.178 44.0714 716.089 43.7629 714.918 44.4555C713.714 45.1685 713.46 46.2715 713.772 47.3881L712.775 47.7456C712.273 46.23 712.794 44.597 714.412 43.6395C716.271 42.5395 717.85 42.9298 718.94 44.7715ZM722.685 43.0668L725.333 47.5419L724.283 48.1632L719.862 40.6932L720.912 40.0719L721.727 41.4489C721.549 40.3227 722.184 39.0403 723.303 38.3783C725.231 37.2375 726.783 38.0152 727.843 39.8053L730.583 44.4353L729.533 45.0566L726.772 40.3922C725.988 39.0668 724.79 38.6137 723.517 39.3674C722.329 40.0702 721.829 41.621 722.685 43.0668ZM736.261 36.3806L735.955 35.8642C734.896 34.0742 733.114 33.7341 731.634 34.61C730.051 35.5471 729.841 37.2746 730.962 39.1679C732.082 41.0612 733.697 41.709 735.281 40.7719C736.761 39.896 737.32 38.1706 736.261 36.3806ZM738.284 39.8778L737.316 38.2426C737.549 39.3828 737.098 40.8584 735.652 41.714C733.432 43.028 731.164 42.0229 729.86 39.8198C728.556 37.6166 728.767 35.1449 730.987 33.8309C732.433 32.9753 733.954 33.307 734.841 34.0601L731.867 29.0342L732.917 28.4129L739.334 39.2564L738.284 39.8778Z" fill="#667085"/>
<rect x="1131.68" y="4.40124" width="131" height="63" rx="31.5" transform="rotate(-30.616 1131.68 4.40124)" stroke="#475467"/>
<g clip-path="url(#clip11_1023_53976)">
<path d="M1180.95 25.795C1186.65 22.4197 1188.54 15.0599 1185.16 9.35637C1181.79 3.65282 1174.43 1.76534 1168.72 5.14056C1163.02 8.51579 1161.13 15.8756 1164.51 21.5791C1167.88 27.2827 1175.24 29.1702 1180.95 25.795Z" fill="#F0F0F0"/>
<path d="M1186.65 13.3278C1186.4 11.9633 1185.91 10.6188 1185.16 9.3556C1184.42 8.09237 1183.47 7.01677 1182.39 6.14367L1163.03 17.6062C1163.27 18.9706 1163.76 20.3152 1164.51 21.5784C1165.26 22.8416 1166.2 23.9172 1167.28 24.7903L1177.49 19.9571L1186.65 13.3278Z" fill="#0052B4"/>
<path d="M1180.95 25.7939C1185.39 23.1662 1187.52 18.1236 1186.65 13.3275L1167.28 24.79C1171.06 27.8592 1176.51 28.4216 1180.95 25.7939Z" fill="#D80027"/>
</g>
<path d="M1208.23 3.25743L1207.06 3.95005C1206.68 3.77967 1206.04 3.04517 1205.17 1.77077C1204.4 0.623889 1203.27 0.0133564 1201.65 0.970807L1198.28 2.96719L1200.99 7.54558L1199.92 8.17709L1193.5 -2.66646L1197.6 -5.09065C1200.34 -6.71016 1202.39 -6.2278 1203.5 -4.35169C1204.5 -2.66491 1203.83 -1.1289 1202.59 -0.1897C1204.12 -0.746372 1205.27 -0.262642 1206.12 0.949932C1207.2 2.45195 1207.64 3.07545 1208.23 3.25743ZM1197.75 2.07217L1200.81 0.259125C1202.83 -0.932596 1203.24 -2.24382 1202.38 -3.68962C1201.58 -5.03216 1200.19 -5.3905 1198.17 -4.19878L1195.11 -2.38574L1197.75 2.07217ZM1213.26 -3.75968L1210.61 -8.23479L1211.66 -8.85612L1216.08 -1.38611L1215.03 -0.76479L1214.22 -2.14175C1214.39 -1.01562 1213.79 0.24642 1212.67 0.908487C1210.75 2.04928 1209.25 1.24097 1208.19 -0.549075L1205.45 -5.1791L1206.5 -5.80042L1209.26 -1.13598C1210.04 0.189348 1211.19 0.673079 1212.46 -0.0806592C1213.65 -0.783469 1214.11 -2.31387 1213.26 -3.75968ZM1216.11 -4.81858L1216.89 -5.42095C1217.81 -4.22172 1219.11 -4.01829 1220.54 -4.8637C1221.7 -5.54613 1222.25 -6.45516 1221.73 -7.33297C1221.24 -8.15915 1220.5 -8.07101 1219.34 -7.63902L1217.92 -7.09885C1216.48 -6.5485 1215.31 -6.67219 1214.6 -7.87703C1213.81 -9.21957 1214.4 -10.7594 1216.04 -11.7271C1217.97 -12.8679 1219.63 -12.6177 1220.8 -10.9162L1220.03 -10.3686C1219.04 -11.5991 1217.91 -11.7158 1216.53 -10.9009C1215.46 -10.2694 1215.04 -9.36985 1215.51 -8.5781C1215.94 -7.8552 1216.58 -7.74839 1217.6 -8.1435L1219.11 -8.7346C1220.72 -9.35941 1221.88 -9.35233 1222.67 -8.02701C1223.53 -6.56399 1222.68 -5.01534 1221.05 -4.04771C1219.24 -2.97821 1217.32 -3.0482 1216.11 -4.81858ZM1223.42 -9.14549L1224.2 -9.74786C1225.12 -8.54863 1226.43 -8.3452 1227.85 -9.19061C1229.01 -9.87304 1229.56 -10.7821 1229.04 -11.6599C1228.55 -12.4861 1227.82 -12.3979 1226.65 -11.9659L1225.23 -11.4258C1223.79 -10.8754 1222.62 -10.9991 1221.91 -12.2039C1221.12 -13.5465 1221.72 -15.0864 1223.35 -16.054C1225.28 -17.1948 1226.94 -16.9446 1228.11 -15.2431L1227.34 -14.6955C1226.36 -15.926 1225.22 -16.0427 1223.84 -15.2278C1222.77 -14.5963 1222.35 -13.6968 1222.82 -12.905C1223.25 -12.1821 1223.89 -12.0753 1224.91 -12.4704L1226.42 -13.0615C1228.03 -13.6863 1229.2 -13.6792 1229.98 -12.3539C1230.85 -10.8909 1230 -9.34225 1228.36 -8.37462C1226.55 -7.30512 1224.63 -7.37511 1223.42 -9.14549ZM1228.34 -18.728L1229.39 -19.3493L1233.81 -11.8793L1232.76 -11.258L1228.34 -18.728ZM1227.14 -20.687L1226.31 -22.0812L1227.43 -22.7432L1228.25 -21.3491L1227.14 -20.687ZM1238.62 -19.3002L1238.34 -19.7649L1236.75 -18.2893C1235.56 -17.1921 1234.88 -16.4176 1235.47 -15.4193C1235.89 -14.7136 1236.7 -14.4034 1237.68 -14.984C1239.15 -15.8498 1239.6 -17.6306 1238.62 -19.3002ZM1238.75 -21.354L1240.88 -17.7567C1241.11 -17.3608 1241.46 -17.314 1241.84 -17.5381C1242.01 -17.64 1242.27 -17.882 1242.4 -18.1247L1242.74 -17.5567C1242.67 -17.1661 1242.54 -16.8342 1242.02 -16.5286C1241.28 -16.0906 1240.37 -16.4117 1239.78 -17.338C1239.9 -16.2259 1239.25 -14.8167 1237.97 -14.063C1236.58 -13.2379 1235.19 -13.4625 1234.43 -14.7534C1233.59 -16.1647 1234.5 -17.4661 1236.13 -18.9448L1237.88 -20.5394L1237.66 -20.9181C1236.99 -22.0541 1235.9 -22.3625 1234.73 -21.6699C1233.52 -20.9569 1233.27 -19.854 1233.58 -18.7373L1232.58 -18.3798C1232.08 -19.8955 1232.6 -21.5285 1234.22 -22.4859C1236.08 -23.586 1237.66 -23.1956 1238.75 -21.354Z" fill="#667085"/>
<rect x="978.935" y="49.6822" width="176" height="63" rx="31.5" transform="rotate(29.7408 978.935 49.6822)" stroke="#475467"/>
<g clip-path="url(#clip12_1023_53976)">
<path d="M984.707 103.079C990.461 106.366 997.791 104.367 1001.08 98.6123C1004.37 92.8579 1002.37 85.5277 996.613 82.24C990.858 78.9523 983.528 80.952 980.24 86.7065C976.953 92.4609 978.952 99.791 984.707 103.079Z" fill="#F0F0F0"/>
<path d="M979.082 95.8177C977.338 89.4239 981.107 82.8267 987.501 81.0824C987.5 81.0827 989.3 91.883 989.3 91.883L979.082 95.8177Z" fill="black"/>
<path d="M989.301 91.883L984.587 82.3073C984.113 82.585 983.656 82.897 983.22 83.241L984.882 89.358L978.768 91.0334C978.693 91.5831 978.657 92.1346 978.658 92.684L989.301 91.883Z" fill="#FFDA44"/>
<path d="M1001.77 97.2025L990.077 90.5234L987.501 81.0821C986.484 81.3597 985.503 81.7705 984.587 82.3069L986.801 90.4544L978.658 92.6835C978.661 93.7454 978.805 94.7994 979.083 95.817L988.524 93.2414L1000.21 99.9206C1000.53 99.5088 1000.82 99.0725 1001.08 98.6119C1001.34 98.1513 1001.57 97.6805 1001.77 97.2025Z" fill="#6DA544"/>
<path d="M979.594 97.2992C980.58 99.6536 982.32 101.714 984.707 103.078C989.521 105.828 995.438 104.877 999.168 101.124L988.311 94.9213L979.594 97.2992Z" fill="#0052B4"/>
<path d="M1002.27 95.6887C1003.61 90.5694 1001.43 84.99 996.613 82.2396C994.226 80.8756 991.567 80.4225 989.039 80.7692L991.417 89.4858L1002.27 95.6887Z" fill="#D80027"/>
</g>
<path d="M1010.9 106.503L1011.94 106.982C1010.78 109.202 1011.56 111.234 1013.56 112.375C1015.36 113.407 1016.95 113.253 1017.72 111.898C1018.36 110.787 1018.03 109.819 1016.63 108.604L1014.66 106.9C1013.27 105.694 1012.67 104.246 1013.61 102.596C1014.65 100.79 1016.83 100.311 1019.14 101.63C1021.8 103.148 1022.54 105.51 1021.14 107.976L1020.08 107.487C1021.19 105.47 1020.67 103.632 1018.67 102.491C1016.94 101.499 1015.48 101.794 1014.69 103.166C1013.99 104.399 1014.54 105.245 1015.82 106.347L1017.55 107.84C1019.26 109.323 1019.8 110.67 1018.81 112.407C1017.71 114.334 1015.38 114.545 1013.07 113.226C1010.46 111.737 1009.38 109.16 1010.9 106.503ZM1021.69 112.877C1020.64 114.718 1020.87 116.576 1022.55 117.539C1024.25 118.511 1025.97 117.764 1027.02 115.923C1028.07 114.083 1027.85 112.225 1026.14 111.252C1024.46 110.29 1022.74 111.037 1021.69 112.877ZM1028.13 116.558C1026.8 118.903 1024.23 119.602 1022.08 118.372C1019.94 117.152 1019.24 114.587 1020.58 112.242C1021.92 109.898 1024.48 109.198 1026.62 110.419C1028.77 111.649 1029.47 114.214 1028.13 116.558ZM1034.41 121.135L1036.99 116.62L1038.05 117.226L1033.75 124.762L1032.69 124.157L1033.48 122.768C1032.59 123.48 1031.19 123.582 1030.07 122.937C1028.12 121.825 1028.08 120.121 1029.11 118.315L1031.78 113.644L1032.84 114.249L1030.15 118.955C1029.39 120.292 1029.54 121.528 1030.82 122.262C1032.02 122.946 1033.58 122.594 1034.41 121.135ZM1037.03 124.43L1039.94 119.342L1038.78 118.678L1039.08 118.157L1039.58 118.328C1040.35 118.586 1040.68 118.335 1041.25 117.695L1042.09 116.747L1042.63 117.055L1041.43 119.156L1043.62 120.406L1043.17 121.188L1040.98 119.938L1038.07 125.043C1037.68 125.72 1037.77 126.209 1038.46 126.606C1038.98 126.904 1039.65 126.941 1040.24 126.928L1039.81 127.675C1039.03 127.784 1038.38 127.685 1037.61 127.248C1036.61 126.673 1036.25 125.802 1037.03 124.43ZM1044.51 124.926L1041.93 129.441L1040.88 128.836L1047.13 117.896L1048.19 118.501L1045.45 123.294C1046.34 122.582 1047.77 122.5 1048.9 123.145C1050.84 124.256 1050.93 125.99 1049.9 127.796L1047.23 132.467L1046.17 131.862L1048.86 127.156C1049.62 125.819 1049.43 124.554 1048.14 123.82C1046.94 123.135 1045.35 123.467 1044.51 124.926ZM1062.32 126.578L1063.5 127.253L1061.87 140.832L1060.71 140.168L1061.25 135.799L1056.07 132.843L1052.65 135.564L1051.57 134.949L1062.32 126.578ZM1062.15 128.047L1056.98 132.14L1061.39 134.661L1062.22 128.087L1062.15 128.047ZM1067.16 134.894L1066 134.229L1066.44 133.447L1067.61 134.112L1068.21 133.053C1069.07 131.559 1070.5 130.976 1072.03 131.849C1073.3 132.574 1073.63 133.497 1073.34 134.806L1072.39 134.655C1072.58 133.869 1072.37 133.077 1071.59 132.631C1070.7 132.125 1069.94 132.495 1069.35 133.519L1068.67 134.717L1070.84 135.958L1070.39 136.739L1068.22 135.499L1064.36 142.254L1063.3 141.649L1067.16 134.894ZM1076.29 139.256L1075.64 140.107C1075.34 139.633 1075.11 139.415 1074.66 139.157C1073.57 138.532 1072.04 139.154 1071.18 140.665L1068.81 144.798L1067.75 144.193L1072.06 136.656L1073.12 137.262L1072.22 138.842C1073.01 138.142 1074.3 137.658 1075.41 138.293C1075.88 138.561 1076.15 138.854 1076.29 139.256ZM1077.5 139.767L1078.56 140.372L1074.26 147.908L1073.2 147.303L1077.5 139.767ZM1078.61 137.75L1079.41 136.343L1080.54 136.988L1079.74 138.395L1078.61 137.75ZM1077.99 145.04C1079.35 142.643 1081.82 141.956 1084.06 143.236C1086.25 144.486 1086.59 146.637 1085.68 148.539L1084.67 148.053C1085.39 146.552 1085.1 145.004 1083.52 144.102C1081.94 143.199 1080.16 143.817 1079.1 145.675C1078.04 147.533 1078.41 149.381 1079.99 150.284C1081.57 151.187 1083.07 150.616 1084 149.234L1084.91 149.894C1083.73 151.638 1081.7 152.439 1079.52 151.189C1077.28 149.909 1076.62 147.436 1077.99 145.04ZM1091.48 153.209L1091.75 152.74L1089.68 152.088C1088.14 151.599 1087.13 151.391 1086.55 152.398C1086.14 153.11 1086.28 153.969 1087.27 154.534C1088.74 155.377 1090.52 154.894 1091.48 153.209ZM1093.33 152.308L1091.25 155.938C1091.03 156.337 1091.16 156.667 1091.54 156.885C1091.72 156.985 1092.05 157.084 1092.33 157.081L1092 157.654C1091.63 157.786 1091.27 157.838 1090.75 157.54C1090.01 157.114 1089.84 156.164 1090.35 155.189C1089.44 155.846 1087.89 155.975 1086.61 155.241C1085.2 154.437 1084.71 153.12 1085.45 151.818C1086.27 150.394 1087.85 150.535 1089.94 151.225L1092.19 151.959L1092.41 151.577C1093.07 150.431 1092.79 149.332 1091.61 148.657C1090.4 147.962 1089.31 148.288 1088.5 149.111L1087.69 148.422C1088.76 147.236 1090.44 146.881 1092.07 147.814C1093.95 148.885 1094.39 150.45 1093.33 152.308Z" fill="#667085"/>
<rect x="1176.57" y="297.56" width="134" height="63" rx="31.5" transform="rotate(-8.14877 1176.57 297.56)" stroke="#475467"/>
<g clip-path="url(#clip13_1023_53976)">
<path d="M1213.91 336.155C1220.47 335.216 1225.03 329.136 1224.09 322.576C1223.15 316.015 1217.07 311.458 1210.51 312.398C1203.95 313.337 1199.39 319.417 1200.33 325.977C1201.27 332.538 1207.35 337.095 1213.91 336.155Z" fill="#F0F0F0"/>
<path d="M1200.33 325.978C1201.06 331.085 1204.91 334.978 1209.68 336.009L1206.49 313.729C1202.2 316.055 1199.6 320.87 1200.33 325.978Z" fill="#6DA544"/>
<path d="M1224.09 322.576C1223.36 317.468 1219.51 313.576 1214.75 312.545L1217.94 334.825C1222.22 332.499 1224.82 327.683 1224.09 322.576Z" fill="#6DA544"/>
</g>
<path d="M1237.78 314.454L1246.61 323.674L1245.14 313.399L1246.33 313.229L1248.12 325.702L1247.13 325.844L1237.83 316.204L1239.37 326.955L1238.18 327.125L1236.39 314.652L1237.78 314.454ZM1249.36 316.756L1250.57 316.583L1251.8 325.175L1250.59 325.348L1249.36 316.756ZM1248.99 314.484L1248.76 312.881L1250.05 312.697L1250.28 314.3L1248.99 314.484ZM1260.13 317.941C1260.39 319.743 1259.08 321.061 1257.06 321.35C1256.35 321.452 1255.7 321.424 1255.13 321.243C1254.79 321.473 1254.49 321.88 1254.55 322.335C1254.63 322.87 1254.97 323.104 1255.8 322.985L1259.13 322.509C1260.97 322.246 1262.07 323.057 1262.26 324.383C1262.57 326.502 1260.36 327.625 1257.85 327.985C1255.57 328.311 1253.58 327.789 1253.35 326.205C1253.2 325.156 1253.84 324.397 1254.89 324.004C1254.07 323.88 1253.68 323.391 1253.58 322.757C1253.48 322.025 1253.92 321.456 1254.57 321C1253.82 320.602 1253.32 319.886 1253.18 318.936C1252.92 317.134 1254.21 315.819 1256.23 315.53C1257.34 315.371 1258.33 315.571 1259.04 316.097C1259.39 315.339 1260.08 314.756 1260.99 314.626L1261.15 315.794C1260.5 315.887 1259.83 316.165 1259.45 316.462C1259.81 316.855 1260.04 317.347 1260.13 317.941ZM1254.54 325.732C1254.72 326.999 1256 327.361 1257.72 327.114C1259.86 326.808 1261.31 326.075 1261.1 324.59C1260.97 323.68 1260.15 323.454 1259 323.618L1256.29 324.006C1255.24 324.157 1254.38 324.624 1254.54 325.732ZM1258.9 318.136C1258.71 316.81 1257.77 316.157 1256.35 316.361C1254.96 316.56 1254.24 317.451 1254.43 318.777C1254.62 320.084 1255.56 320.737 1256.94 320.538C1258.37 320.334 1259.09 319.443 1258.9 318.136ZM1269.62 319.491L1270.67 319.482C1270.53 321.502 1269.28 322.914 1267.18 323.214C1264.69 323.571 1262.58 322.076 1262.2 319.423C1261.81 316.71 1263.37 314.507 1265.81 314.158C1268.5 313.772 1270.12 315.52 1270.46 317.856L1270.54 318.41L1263.47 319.422C1263.82 321.312 1265.34 322.468 1267.04 322.224C1268.63 321.997 1269.48 321.067 1269.62 319.491ZM1263.37 318.568L1269.13 317.743C1268.86 316.165 1267.76 314.847 1265.94 315.108C1264.24 315.352 1263.34 316.936 1263.37 318.568ZM1276.62 313.013L1276.63 314.082C1276.1 313.896 1275.79 313.859 1275.28 313.933C1274.03 314.112 1273.21 315.543 1273.45 317.265L1274.13 321.977L1272.92 322.15L1271.69 313.558L1272.9 313.385L1273.15 315.187C1273.35 314.149 1274.07 312.975 1275.34 312.793C1275.87 312.717 1276.27 312.782 1276.62 313.013ZM1277.9 312.669L1279.1 312.496L1280.33 321.089L1279.13 321.262L1277.9 312.669ZM1277.53 310.398L1277.3 308.795L1278.59 308.61L1278.82 310.214L1277.53 310.398ZM1287.61 316.067L1287.53 315.532L1285.5 316.288C1283.98 316.849 1283.06 317.304 1283.22 318.453C1283.34 319.264 1283.97 319.861 1285.1 319.699C1286.78 319.458 1287.88 317.987 1287.61 316.067ZM1288.52 314.22L1289.11 318.357C1289.17 318.813 1289.48 318.991 1289.92 318.928C1290.12 318.9 1290.44 318.773 1290.66 318.6L1290.75 319.253C1290.54 319.587 1290.29 319.845 1289.7 319.93C1288.85 320.052 1288.13 319.407 1287.93 318.324C1287.62 319.399 1286.48 320.451 1285.01 320.661C1283.41 320.891 1282.21 320.153 1282 318.668C1281.77 317.045 1283.1 316.187 1285.18 315.445L1287.4 314.641L1287.34 314.206C1287.15 312.899 1286.27 312.198 1284.92 312.391C1283.53 312.589 1282.88 313.512 1282.74 314.663L1281.68 314.612C1281.8 313.02 1282.9 311.71 1284.76 311.443C1286.9 311.137 1288.21 312.101 1288.52 314.22Z" fill="#667085"/>
<rect x="1324.69" y="184.953" width="175" height="63" rx="31.5" transform="rotate(-32.591 1324.69 184.953)" stroke="#475467"/>
<g clip-path="url(#clip14_1023_53976)">
<path d="M1374.66 204.636C1380.24 201.066 1381.88 193.646 1378.31 188.062C1374.74 182.478 1367.32 180.845 1361.73 184.415C1356.15 187.985 1354.52 195.406 1358.09 200.989C1361.66 206.573 1369.08 208.206 1374.66 204.636Z" fill="#F0F0F0"/>
<path d="M1361.73 184.415C1357.39 187.194 1355.43 192.307 1356.47 197.07L1375.43 184.947C1371.54 182.01 1366.08 181.636 1361.73 184.415Z" fill="#A2001D"/>
<path d="M1374.66 204.637C1379.01 201.857 1380.96 196.745 1379.93 191.981L1360.96 204.104C1364.85 207.041 1370.31 207.416 1374.66 204.637Z" fill="#0052B4"/>
</g>
<path d="M1387.41 175.005L1399.27 179.743L1393.68 170.997L1394.69 170.351L1401.47 180.967L1400.63 181.506L1388.18 176.579L1394.03 185.728L1393.01 186.375L1386.23 175.759L1387.41 175.005ZM1407.6 173.369L1408.55 172.927C1409.27 174.821 1408.71 176.625 1406.93 177.767C1404.8 179.124 1402.26 178.637 1400.82 176.379C1399.34 174.07 1399.85 171.417 1401.92 170.092C1404.22 168.627 1406.42 169.546 1407.69 171.534L1407.99 172.006L1401.97 175.852C1403.08 177.427 1404.94 177.851 1406.39 176.924C1407.73 176.062 1408.13 174.86 1407.6 173.369ZM1401.53 175.117L1406.43 171.982C1405.54 170.655 1403.99 169.91 1402.44 170.901C1400.99 171.827 1400.82 173.644 1401.53 175.117ZM1410.92 172.646L1407.77 167.709L1406.64 168.43L1406.32 167.925L1406.7 167.56C1407.29 166.995 1407.22 166.588 1406.92 165.784L1406.47 164.599L1406.99 164.265L1408.29 166.304L1410.42 164.946L1410.9 165.705L1408.78 167.062L1411.95 172.016C1412.37 172.673 1412.84 172.821 1413.52 172.39C1414.02 172.067 1414.36 171.491 1414.62 170.969L1415.09 171.694C1414.82 172.432 1414.43 172.968 1413.69 173.442C1412.71 174.067 1411.78 173.977 1410.92 172.646ZM1414.84 166.252L1417.64 170.633L1416.61 171.29L1409.82 160.674L1410.85 160.017L1413.82 164.668C1413.61 163.548 1414.2 162.245 1415.29 161.545C1417.18 160.338 1418.76 161.062 1419.88 162.814L1422.78 167.347L1421.75 168.004L1418.83 163.438C1418 162.14 1416.79 161.729 1415.54 162.526C1414.38 163.269 1413.93 164.836 1414.84 166.252ZM1428.75 159.85L1429.7 159.408C1430.41 161.303 1429.86 163.106 1428.07 164.248C1425.95 165.605 1423.4 165.118 1421.96 162.86C1420.49 160.552 1421 157.899 1423.07 156.574C1425.36 155.108 1427.56 156.027 1428.83 158.016L1429.14 158.487L1423.12 162.333C1424.22 163.908 1426.08 164.332 1427.53 163.406C1428.88 162.544 1429.27 161.342 1428.75 159.85ZM1422.67 161.598L1427.58 158.463C1426.68 157.137 1425.14 156.391 1423.59 157.382C1422.14 158.309 1421.97 160.125 1422.67 161.598ZM1432.44 151.056L1432.89 152.025C1432.33 152.075 1432.04 152.169 1431.6 152.449C1430.54 153.128 1430.38 154.773 1431.32 156.239L1433.88 160.249L1432.85 160.906L1428.18 153.593L1429.2 152.936L1430.18 154.47C1429.93 153.444 1430.1 152.077 1431.18 151.387C1431.64 151.096 1432.02 150.993 1432.44 151.056ZM1431.35 146.913L1432.38 146.256L1439.16 156.872L1438.13 157.529L1431.35 146.913ZM1443.71 149.29L1443.42 148.835L1441.88 150.365C1440.73 151.502 1440.08 152.3 1440.7 153.277C1441.14 153.968 1441.96 154.25 1442.92 153.636C1444.36 152.72 1444.75 150.925 1443.71 149.29ZM1443.77 147.233L1446.02 150.755C1446.27 151.143 1446.62 151.177 1446.99 150.94C1447.16 150.832 1447.41 150.582 1447.53 150.335L1447.89 150.891C1447.83 151.283 1447.71 151.62 1447.21 151.943C1446.48 152.406 1445.56 152.117 1444.94 151.211C1445.1 152.318 1444.49 153.749 1443.25 154.547C1441.88 155.419 1440.49 155.243 1439.68 153.979C1438.79 152.597 1439.65 151.265 1441.24 149.731L1442.93 148.077L1442.69 147.706C1441.98 146.594 1440.88 146.323 1439.74 147.056C1438.56 147.81 1438.34 148.921 1438.69 150.026L1437.71 150.418C1437.16 148.921 1437.62 147.271 1439.21 146.258C1441.02 145.094 1442.62 145.43 1443.77 147.233ZM1447.45 145.4L1450.25 149.782L1449.23 150.439L1444.55 143.126L1445.58 142.468L1446.44 143.816C1446.22 142.697 1446.81 141.394 1447.91 140.693C1449.8 139.487 1451.37 140.211 1452.5 141.963L1455.39 146.496L1454.37 147.153L1451.45 142.587C1450.62 141.289 1449.4 140.877 1448.16 141.675C1446.99 142.418 1446.55 143.985 1447.45 145.4ZM1460.79 138.25L1460.47 137.745C1459.35 135.992 1457.55 135.714 1456.11 136.64C1454.56 137.631 1454.41 139.365 1455.59 141.219C1456.78 143.072 1458.41 143.664 1459.96 142.673C1461.41 141.746 1461.91 140.003 1460.79 138.25ZM1462.93 141.676L1461.91 140.075C1462.18 141.206 1461.78 142.697 1460.37 143.602C1458.19 144.991 1455.89 144.065 1454.51 141.908C1453.13 139.751 1453.26 137.274 1455.43 135.884C1456.85 134.979 1458.38 135.258 1459.29 135.98L1456.15 131.06L1457.17 130.403L1463.96 141.019L1462.93 141.676ZM1463.87 137.586L1464.63 136.957C1465.59 138.124 1466.9 138.282 1468.3 137.388C1469.43 136.666 1469.95 135.739 1469.41 134.879C1468.89 134.071 1468.15 134.184 1467.01 134.656L1465.6 135.245C1464.18 135.844 1463.01 135.761 1462.26 134.581C1461.42 133.267 1461.96 131.707 1463.57 130.684C1465.45 129.477 1467.12 129.67 1468.35 131.331L1467.6 131.904C1466.57 130.708 1465.43 130.631 1464.08 131.493C1463.04 132.161 1462.65 133.074 1463.14 133.849C1463.6 134.557 1464.24 134.642 1465.25 134.212L1466.74 133.569C1468.32 132.889 1469.49 132.856 1470.32 134.153C1471.23 135.586 1470.44 137.163 1468.84 138.186C1467.07 139.317 1465.14 139.314 1463.87 137.586Z" fill="#667085"/>
<rect x="1397.77" y="401.611" width="122" height="63" rx="31.5" transform="rotate(14.8579 1397.77 401.611)" stroke="#475467"/>
<g clip-path="url(#clip15_1023_53976)">
<path d="M1417.06 451.734C1423.46 453.433 1430.04 449.618 1431.73 443.212C1433.43 436.806 1429.62 430.235 1423.21 428.536C1416.81 426.837 1410.24 430.652 1408.54 437.058C1406.84 443.464 1410.65 450.034 1417.06 451.734Z" fill="#F0F0F0"/>
<path d="M1425.17 438.773L1422.26 438.001L1421.47 435.093L1419.35 437.228L1416.44 436.456L1417.22 439.364L1415.1 441.499L1418.01 442.271L1418.8 445.179L1420.92 443.044L1423.83 443.816L1423.05 440.909L1425.17 438.773ZM1421.92 440.611L1420.62 441.922L1418.83 441.448L1418.35 439.662L1419.65 438.35L1421.44 438.824L1421.92 440.611ZM1420.96 437.038L1421.14 437.703L1420.47 437.526L1420.96 437.038ZM1417.86 437.875L1418.53 438.052L1418.04 438.54L1417.86 437.875ZM1417.04 440.973L1417.53 440.485L1417.71 441.15L1417.04 440.973ZM1419.31 443.234L1419.13 442.569L1419.8 442.746L1419.31 443.234ZM1422.41 442.397L1421.74 442.22L1422.23 441.732L1422.41 442.397ZM1422.56 439.122L1423.23 439.299L1422.74 439.787L1422.56 439.122Z" fill="#0052B4"/>
<path d="M1429.76 432.973L1415.32 429.143C1414.04 429.705 1412.86 430.488 1411.84 431.458L1431.64 436.709C1431.23 435.362 1430.6 434.097 1429.76 432.973Z" fill="#0052B4"/>
<path d="M1410.51 447.297L1424.95 451.128C1426.23 450.566 1427.41 449.783 1428.43 448.812L1408.63 443.562C1409.04 444.908 1409.67 446.173 1410.51 447.297Z" fill="#0052B4"/>
</g>
<rect x="1179.02" y="522.689" width="138" height="63" rx="31.5" transform="rotate(31.9478 1179.02 522.689)" stroke="#475467"/>
<g clip-path="url(#clip16_1023_53976)">
<path d="M1182.74 576.268C1188.36 579.775 1195.76 578.059 1199.27 572.436C1202.77 566.812 1201.06 559.41 1195.44 555.903C1189.81 552.397 1182.41 554.113 1178.9 559.736C1175.4 565.36 1177.11 572.761 1182.74 576.268Z" fill="#D80027"/>
<path d="M1196.48 567.051L1192.79 564.751C1193.16 564.655 1193.51 564.419 1193.73 564.063C1194.19 563.33 1193.96 562.365 1193.23 561.907C1192.77 561.619 1192.21 561.601 1191.75 561.811C1191.74 561.305 1191.48 560.815 1191.01 560.527C1190.28 560.069 1189.32 560.293 1188.86 561.027C1188.64 561.382 1188.58 561.793 1188.65 562.173L1184.97 559.873C1184.36 560.851 1184.71 562.175 1185.69 562.785L1185.63 562.748C1185.02 563.726 1185.32 565.013 1186.3 565.623C1186.1 565.94 1186 566.289 1185.99 566.637L1183.6 567.19L1184.02 569.02L1186.62 568.418C1186.67 568.48 1186.72 568.539 1186.78 568.593L1184.45 570.172L1184.94 572.727L1187.45 572.042L1187.85 569.258C1187.92 569.287 1188 569.309 1188.08 569.325L1188.68 571.921L1190.51 571.497L1189.95 569.112C1190.26 568.946 1190.53 568.701 1190.73 568.384C1191.7 568.994 1192.99 568.695 1193.6 567.717L1193.54 567.681C1194.52 568.29 1195.87 568.029 1196.48 567.051Z" fill="black"/>
</g>
<path d="M1217.33 576.509L1218.48 577.228L1216.33 590.735L1215.19 590.026L1215.9 585.681L1210.84 582.527L1207.32 585.115L1206.27 584.459L1217.33 576.509ZM1217.1 577.97L1211.77 581.861L1216.09 584.549L1217.17 578.012L1217.1 577.97ZM1224.27 580.838L1225.3 581.483L1218.64 592.175L1217.6 591.529L1224.27 580.838ZM1224.12 590.128L1223.81 590.637C1222.71 592.402 1223.23 594.14 1224.69 595.05C1226.25 596.024 1227.88 595.414 1229.04 593.547C1230.2 591.68 1230.04 589.948 1228.47 588.975C1227.01 588.065 1225.23 588.363 1224.12 590.128ZM1222.71 592.474L1221.45 593.928L1220.67 593.441L1227.34 582.75L1228.37 583.395L1225.28 588.351C1226.19 587.618 1227.71 587.322 1229.14 588.211C1231.33 589.576 1231.48 592.052 1230.13 594.224C1228.77 596.397 1226.48 597.349 1224.29 595.984C1222.87 595.095 1222.45 593.609 1222.71 592.474ZM1236.14 598.445L1236.42 597.986L1234.38 597.255C1232.86 596.707 1231.86 596.46 1231.25 597.445C1230.81 598.14 1230.91 599.003 1231.88 599.606C1233.32 600.506 1235.11 600.091 1236.14 598.445ZM1238.02 597.616L1235.81 601.163C1235.57 601.553 1235.69 601.888 1236.06 602.121C1236.23 602.227 1236.56 602.339 1236.84 602.347L1236.49 602.907C1236.11 603.024 1235.76 603.062 1235.25 602.745C1234.52 602.29 1234.38 601.334 1234.93 600.379C1234 601.001 1232.45 601.071 1231.19 600.288C1229.82 599.43 1229.38 598.095 1230.17 596.822C1231.04 595.431 1232.61 595.633 1234.68 596.402L1236.9 597.223L1237.13 596.849C1237.83 595.729 1237.6 594.621 1236.45 593.901C1235.26 593.16 1234.17 593.443 1233.32 594.235L1232.54 593.515C1233.66 592.371 1235.34 592.081 1236.94 593.076C1238.77 594.219 1239.15 595.8 1238.02 597.616ZM1241.26 600.154L1238.51 604.566L1237.47 603.921L1242.07 596.555L1243.1 597.201L1242.25 598.559C1243.17 597.881 1244.6 597.855 1245.71 598.542C1247.61 599.728 1247.63 601.464 1246.53 603.229L1243.68 607.794L1242.65 607.148L1245.52 602.549C1246.33 601.243 1246.18 599.971 1244.93 599.188C1243.76 598.457 1242.15 598.728 1241.26 600.154ZM1250.24 601.65L1251.27 602.296L1246.68 609.661L1245.64 609.016L1250.24 601.65ZM1251.42 599.678L1252.28 598.303L1253.38 598.991L1252.52 600.366L1251.42 599.678ZM1255.48 610.505L1255.76 610.047L1253.72 609.316C1252.2 608.768 1251.2 608.521 1250.59 609.505C1250.15 610.201 1250.25 611.064 1251.22 611.667C1252.66 612.567 1254.45 612.152 1255.48 610.505ZM1257.36 609.677L1255.15 613.224C1254.91 613.614 1255.03 613.949 1255.4 614.182C1255.57 614.287 1255.9 614.399 1256.18 614.408L1255.83 614.968C1255.45 615.085 1255.1 615.123 1254.59 614.806C1253.86 614.351 1253.72 613.395 1254.27 612.44C1253.34 613.062 1251.79 613.132 1250.53 612.348C1249.16 611.491 1248.72 610.156 1249.51 608.883C1250.38 607.492 1251.95 607.694 1254.02 608.463L1256.24 609.283L1256.47 608.91C1257.17 607.79 1256.94 606.682 1255.79 605.962C1254.6 605.221 1253.51 605.504 1252.66 606.296L1251.88 605.576C1253 604.432 1254.69 604.142 1256.28 605.137C1258.11 606.28 1258.49 607.861 1257.36 609.677Z" fill="#667085"/>
<rect x="1317.63" y="795.683" width="152" height="63" rx="31.5" transform="rotate(-18.4285 1317.63 795.683)" stroke="#475467"/>
<g clip-path="url(#clip17_1023_53976)">
<path d="M1348.12 823.127C1351.17 826.926 1356.37 828.625 1361.27 826.994C1366.16 825.363 1369.31 820.883 1369.47 816.012L1358.46 818.579L1348.12 823.127Z" fill="#FFDA44"/>
<path d="M1353.68 804.225C1348.79 805.856 1345.64 810.336 1345.48 815.207L1356.49 812.639L1366.83 808.092C1363.78 804.293 1358.58 802.594 1353.68 804.225Z" fill="black"/>
<path d="M1345.48 815.206C1345.43 816.592 1345.63 818.01 1346.09 819.402C1346.55 820.795 1347.25 822.045 1348.12 823.126L1369.47 816.011C1369.52 814.625 1369.32 813.208 1368.86 811.815C1368.4 810.423 1367.7 809.172 1366.83 808.091L1345.48 815.206Z" fill="#D80027"/>
</g>
<path d="M1388.86 812.254C1385.49 813.38 1382.21 811.71 1380.97 807.991C1379.75 804.31 1381.41 800.951 1384.67 799.864C1388.01 798.751 1390.55 799.972 1391.79 802.995L1390.65 803.457C1389.73 801.066 1387.64 799.991 1385.01 800.87C1382.39 801.742 1381.16 804.386 1382.23 807.592C1383.3 810.799 1385.87 812.134 1388.59 811.23C1391.17 810.37 1392.16 808.163 1391.51 805.785L1387.61 807.087L1387.27 806.081L1392.24 804.425L1394.18 810.231L1393.06 810.604L1392.27 808.251C1392.32 810.047 1390.82 811.603 1388.86 812.254ZM1401.86 804.403L1402.89 804.207C1403.12 806.219 1402.14 807.831 1400.13 808.501C1397.74 809.298 1395.39 808.204 1394.54 805.661C1393.68 803.062 1394.82 800.614 1397.16 799.836C1399.74 798.977 1401.65 800.406 1402.39 802.645L1402.57 803.176L1395.79 805.434C1396.48 807.23 1398.18 808.096 1399.81 807.553C1401.33 807.047 1402.01 805.978 1401.86 804.403ZM1395.54 804.611L1401.06 802.771C1400.52 801.266 1399.2 800.166 1397.46 800.747C1395.83 801.291 1395.22 803.011 1395.54 804.611ZM1407.59 796.78L1407.8 797.83C1407.24 797.741 1406.93 797.76 1406.44 797.925C1405.24 798.323 1404.68 799.879 1405.23 801.53L1406.74 806.046L1405.58 806.431L1402.84 798.196L1403.99 797.811L1404.57 799.537C1404.58 798.481 1405.08 797.197 1406.29 796.793C1406.8 796.622 1407.2 796.616 1407.59 796.78ZM1415.86 795.627C1415.95 794.438 1416.72 793.319 1418.01 792.889C1420.13 792.181 1421.4 793.382 1422.03 795.28L1423.73 800.384L1422.57 800.77L1420.86 795.628C1420.37 794.167 1419.39 793.439 1418.02 793.894C1416.79 794.305 1416.03 795.697 1416.56 797.29L1418.21 802.224L1417.05 802.609L1415.34 797.467C1414.85 796.006 1413.87 795.279 1412.5 795.734C1411.27 796.145 1410.51 797.536 1411.04 799.13L1412.69 804.064L1411.53 804.449L1408.78 796.214L1409.94 795.829L1410.45 797.347C1410.51 796.208 1411.25 795.14 1412.52 794.716C1413.98 794.229 1415.13 794.647 1415.86 795.627ZM1429.9 794.175L1429.73 793.663L1427.86 794.769C1426.47 795.591 1425.64 796.205 1426.01 797.305C1426.27 798.083 1427 798.558 1428.08 798.197C1429.69 797.66 1430.51 796.016 1429.9 794.175ZM1430.46 792.196L1431.78 796.161C1431.93 796.598 1432.26 796.718 1432.68 796.579C1432.87 796.516 1433.17 796.332 1433.35 796.124L1433.56 796.75C1433.41 797.116 1433.21 797.414 1432.64 797.603C1431.83 797.875 1431.01 797.369 1430.62 796.338C1430.51 797.451 1429.57 798.691 1428.17 799.159C1426.63 799.671 1425.32 799.158 1424.85 797.735C1424.33 796.179 1425.48 795.098 1427.39 793.998L1429.44 792.809L1429.3 792.392C1428.89 791.139 1427.89 790.608 1426.6 791.038C1425.27 791.48 1424.79 792.505 1424.86 793.662L1423.81 793.801C1423.64 792.214 1424.49 790.728 1426.28 790.133C1428.32 789.451 1429.79 790.165 1430.46 792.196ZM1434.48 791.32L1436.13 796.253L1434.97 796.639L1432.22 788.404L1433.38 788.018L1433.89 789.536C1433.95 788.398 1434.84 787.279 1436.08 786.868C1438.2 786.159 1439.55 787.247 1440.21 789.221L1441.91 794.325L1440.76 794.711L1439.04 789.568C1438.56 788.107 1437.48 787.412 1436.08 787.88C1434.77 788.316 1433.95 789.726 1434.48 791.32ZM1447.38 796.086L1446.24 796.466L1446.53 792.722L1440.32 785.707L1441.53 785.302L1446.62 791.134L1446.69 791.109L1447.17 783.425L1448.31 783.045L1447.38 796.086Z" fill="#667085"/>
<rect x="1009.07" y="761.607" width="141" height="63" rx="31.5" transform="rotate(14.2054 1009.07 761.607)" stroke="#475467"/>
<g clip-path="url(#clip18_1023_53976)">
<path d="M1028.93 811.508C1035.35 813.134 1041.88 809.244 1043.51 802.82C1045.13 796.395 1041.24 789.868 1034.82 788.242C1028.39 786.615 1021.87 790.505 1020.24 796.93C1018.61 803.355 1022.5 809.881 1028.93 811.508Z" fill="#F0F0F0"/>
<path d="M1043.51 802.821C1044.68 798.209 1043 793.544 1039.58 790.678L1034.28 811.635C1038.65 810.739 1042.34 807.433 1043.51 802.821Z" fill="#D80027"/>
<path d="M1020.24 796.931C1019.07 801.543 1020.75 806.207 1024.16 809.074L1029.47 788.117C1025.1 789.013 1021.41 792.319 1020.24 796.931Z" fill="#D80027"/>
<path d="M1033.51 801.906L1035.79 801.406L1034.91 800.644L1035.16 799.633L1032.89 800.132L1034.41 798.365L1033.4 798.109L1032.77 796.336L1031.37 797.597L1030.36 797.341L1030.86 799.62L1029.09 798.097L1028.84 799.108L1027.7 799.358L1029.47 800.881L1028.7 801.765L1030.73 802.277L1030.34 803.795L1031.36 804.051L1031.74 802.533L1033.76 803.045L1033.51 801.906Z" fill="#D80027"/>
</g>
<path d="M1055.77 806.13C1056.72 802.368 1059.97 800.447 1063.31 801.292C1066.72 802.155 1068.17 804.75 1067.58 807.964L1066.38 807.723C1066.9 805.212 1065.74 803.001 1063.05 802.319C1060.37 801.642 1057.88 803.177 1057.05 806.454C1056.22 809.73 1057.68 812.267 1060.36 812.944C1063.05 813.626 1065.12 812.231 1065.86 809.778L1067.03 810.136C1066.02 813.242 1063.51 814.835 1060.1 813.972C1056.76 813.127 1054.82 809.891 1055.77 806.13ZM1073.92 813.159L1074.05 812.635L1071.89 812.561C1070.27 812.503 1069.24 812.573 1068.96 813.697C1068.76 814.492 1069.11 815.284 1070.22 815.564C1071.87 815.981 1073.44 815.04 1073.92 813.159ZM1075.46 811.796L1074.44 815.848C1074.32 816.294 1074.54 816.576 1074.97 816.684C1075.16 816.733 1075.51 816.739 1075.78 816.662L1075.62 817.302C1075.29 817.529 1074.96 817.673 1074.38 817.526C1073.55 817.315 1073.13 816.445 1073.36 815.369C1072.66 816.245 1071.21 816.784 1069.77 816.421C1068.2 816.023 1067.38 814.886 1067.74 813.432C1068.15 811.842 1069.71 811.555 1071.91 811.659L1074.27 811.763L1074.38 811.336C1074.71 810.057 1074.15 809.07 1072.83 808.737C1071.48 808.393 1070.52 808.997 1069.95 810.009L1068.99 809.56C1069.71 808.131 1071.23 807.34 1073.05 807.801C1075.14 808.331 1075.99 809.721 1075.46 811.796ZM1079.32 813.226L1078.04 818.267L1076.86 817.968L1078.99 809.553L1080.17 809.852L1079.78 811.403C1080.45 810.479 1081.8 810.017 1083.06 810.336C1085.24 810.886 1085.79 812.532 1085.28 814.548L1083.96 819.764L1082.77 819.465L1084.1 814.21C1084.48 812.717 1083.95 811.552 1082.52 811.188C1081.18 810.85 1079.73 811.597 1079.32 813.226ZM1092.51 817.866L1092.65 817.342L1090.48 817.268C1088.86 817.21 1087.83 817.279 1087.55 818.404C1087.35 819.199 1087.71 819.991 1088.81 820.27C1090.46 820.688 1092.04 819.746 1092.51 817.866ZM1094.06 816.502L1093.03 820.554C1092.92 821 1093.13 821.282 1093.56 821.39C1093.75 821.439 1094.1 821.445 1094.37 821.368L1094.21 822.008C1093.88 822.235 1093.56 822.38 1092.98 822.233C1092.14 822.022 1091.72 821.152 1091.95 820.076C1091.26 820.952 1089.8 821.491 1088.37 821.128C1086.8 820.73 1085.97 819.593 1086.34 818.138C1086.74 816.549 1088.3 816.262 1090.5 816.366L1092.87 816.47L1092.98 816.043C1093.3 814.763 1092.74 813.777 1091.43 813.443C1090.07 813.1 1089.11 813.703 1088.55 814.715L1087.59 814.266C1088.3 812.837 1089.82 812.046 1091.64 812.508C1093.74 813.038 1094.58 814.428 1094.06 816.502ZM1102.83 820.373L1102.97 819.791C1103.48 817.775 1102.46 816.278 1100.79 815.856C1099.01 815.404 1097.64 816.482 1097.1 818.615C1096.56 820.748 1097.25 822.345 1099.04 822.797C1100.7 823.219 1102.32 822.39 1102.83 820.373ZM1101.8 824.28L1102.26 822.438C1101.62 823.411 1100.26 824.139 1098.64 823.727C1096.13 823.094 1095.23 820.782 1095.86 818.301C1096.49 815.819 1098.38 814.214 1100.88 814.847C1102.51 815.26 1103.36 816.567 1103.46 817.726L1104.89 812.065L1106.07 812.364L1102.98 824.579L1101.8 824.28ZM1111.62 822.702L1111.75 822.178L1109.58 822.104C1107.97 822.046 1106.94 822.115 1106.65 823.24C1106.45 824.035 1106.81 824.827 1107.91 825.106C1109.56 825.524 1111.14 824.582 1111.62 822.702ZM1113.16 821.338L1112.13 825.391C1112.02 825.836 1112.24 826.118 1112.67 826.226C1112.86 826.275 1113.21 826.281 1113.48 826.205L1113.31 826.844C1112.99 827.071 1112.66 827.216 1112.08 827.069C1111.25 826.858 1110.83 825.988 1111.06 824.912C1110.36 825.788 1108.91 826.327 1107.47 825.964C1105.9 825.566 1105.07 824.429 1105.44 822.974C1105.84 821.385 1107.4 821.098 1109.6 821.202L1111.97 821.306L1112.08 820.879C1112.4 819.6 1111.85 818.613 1110.53 818.279C1109.17 817.936 1108.22 818.539 1107.65 819.552L1106.69 819.102C1107.4 817.674 1108.92 816.883 1110.75 817.344C1112.84 817.874 1113.69 819.264 1113.16 821.338Z" fill="#667085"/>
<rect x="759.695" y="910.52" width="144" height="63" rx="31.5" transform="rotate(-55.6065 759.695 910.52)" stroke="#475467"/>
<g clip-path="url(#clip19_1023_53976)">
<path d="M796.704 912.223C800.962 915.138 806.431 914.935 810.411 912.122L801.714 904.904L791.839 899.408C790.657 904.137 792.447 909.309 796.704 912.223Z" fill="#6DA544"/>
<path d="M810.261 892.418C804.792 888.675 797.324 890.073 793.58 895.542C792.751 896.753 792.175 898.063 791.839 899.408L810.411 912.122C811.543 911.321 812.556 910.31 813.385 909.099C817.128 903.63 815.73 896.162 810.261 892.418Z" fill="#D80027"/>
<path d="M804.569 908.123C805.871 906.221 805.385 903.623 803.483 902.321C801.581 901.019 798.983 901.505 797.681 903.407C796.379 905.31 796.865 907.907 798.767 909.209C800.67 910.511 803.267 910.025 804.569 908.123Z" fill="#FFDA44"/>
</g>
<path d="M818.902 880.714L820.631 878.189C821.975 876.225 821.828 874.67 820.359 873.665C818.89 872.659 817.387 873.085 816.043 875.048L814.314 877.573L818.902 880.714ZM819.777 881.313L823.837 884.092L823.136 885.115L812.739 877.998L815.168 874.45C816.908 871.908 819.096 871.297 821.06 872.641C823.023 873.986 823.245 876.246 821.506 878.788L819.777 881.313ZM825.841 873.482C827.59 874.679 829.461 874.602 830.556 873.002C831.664 871.384 831.058 869.613 829.309 868.415C827.56 867.218 825.689 867.295 824.582 868.912C823.486 870.513 824.091 872.284 825.841 873.482ZM830.032 867.359C832.26 868.884 832.749 871.497 831.349 873.544C829.959 875.574 827.346 876.063 825.118 874.538C822.89 873.013 822.4 870.4 823.79 868.37C825.191 866.323 827.804 865.834 830.032 867.359ZM830.413 859.402L831.209 860.116C830.712 860.382 830.477 860.584 830.183 861.013C829.471 862.053 829.968 863.629 831.404 864.612L835.331 867.301L834.642 868.308L827.48 863.404L828.169 862.398L829.671 863.426C829.038 862.58 828.66 861.255 829.383 860.199C829.688 859.754 830.002 859.508 830.413 859.402ZM836.879 861.641L832.044 858.331L831.287 859.436L830.792 859.097L831.003 858.612C831.323 857.861 831.099 857.515 830.508 856.892L829.632 855.977L829.982 855.465L831.979 856.832L833.402 854.753L834.145 855.261L832.721 857.34L837.574 860.662C838.217 861.102 838.711 861.053 839.163 860.393C839.502 859.898 839.594 859.233 839.629 858.651L840.338 859.137C840.384 859.92 840.232 860.567 839.735 861.293C839.08 862.25 838.183 862.533 836.879 861.641ZM842.043 851.336L837.752 848.398L838.441 847.392L845.604 852.295L844.915 853.302L843.594 852.398C844.232 853.343 844.22 854.741 843.486 855.814C842.22 857.662 840.519 857.563 838.802 856.389L834.363 853.35L835.052 852.343L839.524 855.404C840.795 856.274 842.038 856.229 842.874 855.007C843.654 853.869 843.429 852.285 842.043 851.336ZM845.906 841.266C847.408 842.294 847.496 844.148 846.344 845.831C845.937 846.426 845.477 846.886 844.957 847.185C844.902 847.583 844.996 848.084 845.376 848.344C845.821 848.649 846.222 848.559 846.696 847.866L848.594 845.094C849.645 843.559 850.991 843.292 852.097 844.049C853.862 845.258 853.201 847.641 851.766 849.737C850.467 851.635 848.733 852.751 847.413 851.847C846.538 851.248 846.412 850.265 846.835 849.221C846.185 849.746 845.559 849.705 845.031 849.343C844.42 848.925 844.301 848.214 844.4 847.433C843.603 847.712 842.733 847.601 841.941 847.059C840.439 846.031 840.34 844.193 841.492 842.51C842.125 841.586 842.948 840.986 843.809 840.824C843.492 840.049 843.525 839.151 844.045 838.392L845.018 839.058C844.645 839.603 844.399 840.282 844.359 840.764C844.892 840.765 845.411 840.927 845.906 841.266ZM847.866 850.654C848.922 851.377 850.057 850.676 851.04 849.24C852.26 847.457 852.701 845.893 851.463 845.046C850.704 844.526 849.983 844.977 849.327 845.935L847.78 848.196C847.181 849.07 846.942 850.022 847.866 850.654ZM845.223 842.301C844.117 841.544 842.999 841.796 842.185 842.984C841.394 844.14 841.564 845.273 842.669 846.03C843.759 846.776 844.877 846.523 845.668 845.368C846.481 844.18 846.312 843.046 845.223 842.301ZM852.073 835.869L851.628 835.564L850.81 837.573C850.198 839.069 849.908 840.059 850.865 840.714C851.542 841.177 852.408 841.116 853.052 840.175C854.012 838.772 853.674 836.965 852.073 835.869ZM851.326 833.952L854.775 836.313C855.154 836.573 855.494 836.466 855.743 836.103C855.856 835.938 855.982 835.612 856.002 835.335L856.546 835.708C856.647 836.092 856.67 836.447 856.332 836.942C855.846 837.652 854.885 837.745 853.955 837.157C854.536 838.113 854.54 839.666 853.704 840.887C852.788 842.224 851.436 842.607 850.198 841.76C848.845 840.833 849.113 839.272 849.971 837.241L850.885 835.056L850.522 834.807C849.433 834.061 848.315 834.242 847.547 835.364C846.756 836.519 846.992 837.626 847.747 838.506L846.995 839.252C845.899 838.09 845.682 836.39 846.744 834.838C847.964 833.056 849.56 832.743 851.326 833.952ZM847.204 827.651L847.893 826.644L858.29 833.762L857.601 834.769L847.204 827.651Z" fill="#667085"/>
</g>
</g>
<defs>
<clipPath id="clip0_1023_53976">
<rect width="1440" height="900" fill="white"/>
</clipPath>
<clipPath id="clip1_1023_53976">
<rect width="1442" height="908" fill="white" transform="translate(0 -8)"/>
</clipPath>
<clipPath id="clip2_1023_53976">
<rect width="24" height="24" fill="white" transform="translate(227.468 233.432) rotate(-31.2029)"/>
</clipPath>
<clipPath id="clip3_1023_53976">
<rect width="24" height="24" fill="white" transform="translate(23.7061 109.495) rotate(15)"/>
</clipPath>
<clipPath id="clip4_1023_53976">
<rect width="24" height="24" fill="white" transform="translate(25.9785 386.723) rotate(-27.5254)"/>
</clipPath>
<clipPath id="clip5_1023_53976">
<rect width="24" height="24" fill="white" transform="translate(209.035 455.245) rotate(29.4222)"/>
</clipPath>
<clipPath id="clip6_1023_53976">
<rect width="24" height="24" fill="white" transform="translate(248.631 724.446) rotate(-32.6563)"/>
</clipPath>
<clipPath id="clip7_1023_53976">
<rect width="24" height="24" fill="white" transform="translate(10.375 720.369) rotate(14.4921)"/>
</clipPath>
<clipPath id="clip8_1023_53976">
<rect width="24" height="24" fill="white" transform="translate(434.992 897.782) rotate(-36.7543)"/>
</clipPath>
<clipPath id="clip9_1023_53976">
<rect width="24" height="24" fill="white" transform="translate(239.224 -1.70508) rotate(29.8049)"/>
</clipPath>
<clipPath id="clip10_1023_53976">
<rect width="24" height="24" fill="white" transform="translate(651.397 69.7979) rotate(-30.616)"/>
</clipPath>
<clipPath id="clip11_1023_53976">
<rect width="24" height="24" fill="white" transform="translate(1158.4 11.252) rotate(-30.616)"/>
</clipPath>
<clipPath id="clip12_1023_53976">
<rect width="24" height="24" fill="white" transform="translate(986.193 76.2871) rotate(29.7408)"/>
</clipPath>
<clipPath id="clip13_1023_53976">
<rect width="24" height="24" fill="white" transform="translate(1198.63 314.099) rotate(-8.14877)"/>
</clipPath>
<clipPath id="clip14_1023_53976">
<rect width="24" height="24" fill="white" transform="translate(1351.62 190.879) rotate(-32.591)"/>
</clipPath>
<clipPath id="clip15_1023_53976">
<rect width="24" height="24" fill="white" transform="translate(1411.61 425.459) rotate(14.8579)"/>
</clipPath>
<clipPath id="clip16_1023_53976">
<rect width="24" height="24" fill="white" transform="translate(1185.25 549.554) rotate(31.9478)"/>
</clipPath>
<clipPath id="clip17_1023_53976">
<rect width="24" height="24" fill="white" transform="translate(1342.3 808.018) rotate(-18.4285)"/>
</clipPath>
<clipPath id="clip18_1023_53976">
<rect width="24" height="24" fill="white" transform="translate(1023.19 785.297) rotate(14.2054)"/>
</clipPath>
<clipPath id="clip19_1023_53976">
<rect width="24" height="24" fill="white" transform="translate(786.802 905.444) rotate(-55.6065)"/>
</clipPath>
</defs>
</svg>
