<svg width="560" height="523" viewBox="0 0 560 523" fill="none" xmlns="http://www.w3.org/2000/svg">
<g clip-path="url(#clip0_199_15422)">
<path d="M243.918 10.848C243.918 13.464 242.046 15 238.518 15H232.494V-0.120001H238.326C242.022 -0.120001 243.486 1.512 243.486 3.864C243.486 5.64 242.214 6.864 240.582 7.152C242.478 7.464 243.918 8.688 243.918 10.848ZM238.638 7.776H233.958V13.728H238.638C241.11 13.728 242.454 12.648 242.454 10.776C242.454 8.88 241.11 7.776 238.638 7.776ZM233.958 1.152V6.552H238.566C240.966 6.552 241.998 5.544 241.998 3.864C241.998 2.232 240.966 1.152 238.566 1.152H233.958ZM256.856 13.728V15H246.392V-0.120001H256.64V1.152H247.856V6.528H254.888V7.8H247.856V13.728H256.856ZM261.056 -0.120001L269.984 12.336V-0.120001H271.424V15H270.224L260.816 1.968V15H259.376V-0.120001H261.056ZM285.004 13.728V15H274.54V-0.120001H284.788V1.152H276.004V6.528H283.036V7.8H276.004V13.728H285.004ZM289.013 15H287.525V-0.120001H297.533V1.152H289.013V6.768H295.781V8.04H289.013V15ZM299.689 -0.120001H301.201V15H299.689V-0.120001ZM310.354 15H308.842V1.152H303.25V-0.120001H316.018V1.152H310.354V15ZM316.423 9.576L317.791 9.456C317.911 12.456 319.927 14.112 322.687 14.112C325.183 14.112 326.743 13.008 326.743 11.136C326.743 9.6 325.831 8.784 323.647 8.352L320.575 7.752C318.415 7.32 316.927 6.168 316.927 3.888C316.927 1.392 318.919 -0.408 322.111 -0.408C325.783 -0.408 327.967 1.608 327.967 5.016L326.575 5.136C326.527 2.376 324.895 0.767999 322.135 0.767999C319.735 0.767999 318.391 1.944 318.391 3.84C318.391 5.544 319.471 6.096 321.463 6.48L324.151 7.008C326.815 7.536 328.183 8.616 328.183 11.016C328.183 13.68 325.879 15.288 322.687 15.288C319.087 15.288 316.423 13.248 316.423 9.576Z" fill="#EAECF0"/>
<g clip-path="url(#clip1_199_15422)">
<path d="M127.168 97.152C112.672 97.152 101.344 90.144 101.344 72.48V35.52H113.248V71.232C113.248 81.696 117.664 87.072 127.168 87.072C136.768 87.072 141.184 81.696 141.184 71.328V35.52H153.184V72.48C153.184 90.144 141.664 97.152 127.168 97.152ZM172.261 73.344V96H160.741V53.664H172.261V60.576C174.373 55.776 179.749 52.512 186.085 52.512C197.413 52.512 201.541 60.192 201.541 69.6V96H190.021V71.904C190.021 65.376 187.429 61.632 181.765 61.632C175.909 61.632 172.261 66.24 172.261 73.344ZM208.884 35.52H220.404V96H208.884V35.52ZM228.151 53.664H239.671V96H228.151V53.664ZM227.959 46.752V35.52H239.767V46.752H227.959ZM285.819 61.248C288.123 56.256 293.211 52.512 300.123 52.512C311.547 52.512 315.195 60.384 315.195 69.6V96H303.675V71.904C303.675 65.376 301.659 61.632 295.995 61.632C290.427 61.632 287.067 66.24 287.067 73.344V96H275.547V71.904C275.547 65.376 273.435 61.632 267.867 61.632C262.299 61.632 258.939 66.24 258.939 73.344V96H247.419V53.664H258.939V60.576C261.051 55.776 265.851 52.512 272.283 52.512C279.771 52.512 283.995 56.064 285.819 61.248ZM322.467 53.664H333.987V96H322.467V53.664ZM322.275 46.752V35.52H334.083V46.752H322.275ZM343.175 85.248V61.728H337.127V54.912L340.007 54.432C344.135 53.76 345.287 51.648 346.247 47.712L347.591 41.952H354.599V53.664H366.119V61.728H354.599V82.656C354.599 86.304 356.231 87.936 359.687 87.936C361.991 87.936 364.391 87.072 366.887 85.92V93.504C363.815 95.808 360.359 97.152 355.175 97.152C348.647 97.152 343.175 94.272 343.175 85.248ZM402.323 81.216L411.635 82.176C409.427 91.584 402.131 97.152 391.283 97.152C378.227 97.152 368.819 88.8 368.819 75.456C368.819 62.112 378.323 52.512 390.995 52.512C404.819 52.512 411.923 62.112 411.923 73.632V77.76H380.147C380.531 84 385.427 88.416 391.667 88.416C397.331 88.416 400.691 86.016 402.323 81.216ZM380.339 70.56H400.691C400.307 65.664 397.331 60.96 390.899 60.96C384.563 60.96 381.395 65.28 380.339 70.56ZM449.066 75.648V74.016C449.066 66.336 444.362 61.536 437.834 61.536C430.634 61.536 426.89 66.816 426.89 74.88C426.89 82.848 430.634 88.128 437.834 88.128C444.362 88.128 449.066 83.424 449.066 75.648ZM448.97 96V87.936C447.05 93.024 441.866 97.152 434.378 97.152C421.802 97.152 415.274 87.36 415.274 74.88C415.274 62.4 421.802 52.512 434.378 52.512C441.866 52.512 447.05 56.64 448.97 61.824V35.52H460.49V96H448.97ZM163.653 125.52H176.997L201.669 186H188.901L182.853 171.024H157.125L151.269 186H139.173L163.653 125.52ZM169.701 139.152L160.773 161.808H179.205L170.085 139.152H169.701ZM201.983 164.88C201.983 151.44 211.295 142.512 224.351 142.512C236.927 142.512 243.839 150.768 244.799 160.944L235.103 161.616C234.239 155.28 230.687 151.344 224.351 151.344C218.015 151.344 213.599 156.048 213.599 164.88C213.599 173.616 218.015 178.32 224.351 178.32C230.687 178.32 234.239 174.288 235.103 167.856L244.799 168.72C243.839 178.896 236.927 187.152 224.351 187.152C211.295 187.152 201.983 178.32 201.983 164.88ZM247.876 164.88C247.876 151.44 257.188 142.512 270.244 142.512C282.82 142.512 289.732 150.768 290.692 160.944L280.996 161.616C280.132 155.28 276.58 151.344 270.244 151.344C263.908 151.344 259.492 156.048 259.492 164.88C259.492 173.616 263.908 178.32 270.244 178.32C276.58 178.32 280.132 174.288 280.996 167.856L290.692 168.72C289.732 178.896 282.82 187.152 270.244 187.152C257.188 187.152 247.876 178.32 247.876 164.88ZM327.272 171.216L336.584 172.176C334.376 181.584 327.08 187.152 316.232 187.152C303.176 187.152 293.768 178.8 293.768 165.456C293.768 152.112 303.272 142.512 315.944 142.512C329.768 142.512 336.872 152.112 336.872 163.632V167.76H305.096C305.48 174 310.376 178.416 316.616 178.416C322.28 178.416 325.64 176.016 327.272 171.216ZM305.288 160.56H325.64C325.256 155.664 322.28 150.96 315.848 150.96C309.512 150.96 306.344 155.28 305.288 160.56ZM339.46 171.984L349.444 171.6C350.116 176.688 353.956 179.28 359.812 179.28C364.036 179.28 367.492 177.84 367.492 174.768C367.492 171.888 365.572 170.64 361.348 169.968L354.628 168.816C345.604 167.376 340.612 164.016 340.612 156.144C340.612 148.08 347.428 142.512 358.18 142.512C369.892 142.512 376.9 147.792 377.668 157.2L368.164 157.584C367.396 152.784 364.132 150.384 358.084 150.384C353.956 150.384 351.268 152.208 351.268 155.088C351.268 157.392 352.804 158.736 355.876 159.216L363.94 160.56C372.868 162 378.148 165.744 378.148 173.712C378.148 182.352 370.66 187.152 359.716 187.152C348.676 187.152 340.228 182.352 339.46 171.984ZM380.383 171.984L390.367 171.6C391.039 176.688 394.879 179.28 400.735 179.28C404.959 179.28 408.415 177.84 408.415 174.768C408.415 171.888 406.495 170.64 402.271 169.968L395.551 168.816C386.527 167.376 381.535 164.016 381.535 156.144C381.535 148.08 388.351 142.512 399.103 142.512C410.815 142.512 417.823 147.792 418.591 157.2L409.087 157.584C408.319 152.784 405.055 150.384 399.007 150.384C394.879 150.384 392.191 152.208 392.191 155.088C392.191 157.392 393.727 158.736 396.799 159.216L404.863 160.56C413.791 162 419.071 165.744 419.071 173.712C419.071 182.352 411.583 187.152 400.639 187.152C389.599 187.152 381.151 182.352 380.383 171.984Z" fill="#0D1320"/>
<path d="M123.697 234.84L133.233 248.28V234.84H136.945V255H133.745L123.441 240.792V255H119.729V234.84H123.697ZM143.391 247.96C143.391 250.616 144.607 252.472 146.943 252.472C149.311 252.472 150.527 250.616 150.527 247.96C150.527 245.272 149.311 243.416 146.943 243.416C144.607 243.416 143.391 245.272 143.391 247.96ZM154.399 247.96C154.399 252.344 151.327 255.384 146.943 255.384C142.591 255.384 139.519 252.344 139.519 247.96C139.519 243.576 142.591 240.504 146.943 240.504C151.327 240.504 154.399 243.576 154.399 247.96ZM175.37 243.416C176.138 241.752 177.833 240.504 180.138 240.504C183.946 240.504 185.162 243.128 185.162 246.2V255H181.322V246.968C181.322 244.792 180.65 243.544 178.762 243.544C176.906 243.544 175.786 245.08 175.786 247.448V255H171.946V246.968C171.946 244.792 171.242 243.544 169.385 243.544C167.53 243.544 166.41 245.08 166.41 247.448V255H162.57V240.888H166.41V243.192C167.114 241.592 168.714 240.504 170.858 240.504C173.354 240.504 174.762 241.688 175.37 243.416ZM196.706 248.888V248.536L194.05 249.112C192.386 249.464 191.202 249.752 191.202 251.16C191.202 252.12 191.938 252.696 193.154 252.696C195.17 252.696 196.706 251.16 196.706 248.888ZM200.45 245.944V251.576C200.45 252.312 200.834 252.664 201.442 252.664C201.826 252.664 202.21 252.568 202.626 252.376V254.424C202.018 254.904 201.25 255.32 199.97 255.32C198.37 255.32 197.346 254.392 196.994 252.856C196.194 254.488 194.274 255.352 192.194 255.352C189.25 255.352 187.458 253.88 187.458 251.448C187.458 248.76 189.634 247.64 192.834 247L196.706 246.232V245.912C196.706 244.344 195.874 243.384 194.242 243.384C192.642 243.384 191.778 244.344 191.458 245.72L187.97 245.4C188.45 242.52 190.658 240.504 194.402 240.504C198.05 240.504 200.45 242.232 200.45 245.944ZM204.768 251.416V243.576H202.752V241.304L203.712 241.144C205.088 240.92 205.472 240.216 205.792 238.904L206.24 236.984H208.576V240.888H212.416V243.576H208.576V250.552C208.576 251.768 209.12 252.312 210.272 252.312C211.04 252.312 211.84 252.024 212.672 251.64V254.168C211.648 254.936 210.496 255.384 208.768 255.384C206.592 255.384 204.768 254.424 204.768 251.416ZM215.331 251.416V243.576H213.315V241.304L214.275 241.144C215.651 240.92 216.035 240.216 216.355 238.904L216.803 236.984H219.139V240.888H222.979V243.576H219.139V250.552C219.139 251.768 219.683 252.312 220.835 252.312C221.603 252.312 222.403 252.024 223.235 251.64V254.168C222.211 254.936 221.059 255.384 219.331 255.384C217.155 255.384 215.331 254.424 215.331 251.416ZM235.687 250.072L238.791 250.392C238.055 253.528 235.623 255.384 232.007 255.384C227.655 255.384 224.519 252.6 224.519 248.152C224.519 243.704 227.687 240.504 231.911 240.504C236.519 240.504 238.887 243.704 238.887 247.544V248.92H228.295C228.423 251 230.055 252.472 232.135 252.472C234.023 252.472 235.143 251.672 235.687 250.072ZM228.359 246.52H235.143C235.015 244.888 234.023 243.32 231.879 243.32C229.767 243.32 228.711 244.76 228.359 246.52ZM251.111 241.08L250.823 244.664C250.087 244.248 249.447 244.056 248.519 244.056C246.535 244.056 245.191 245.464 245.191 248.024V255H241.351V240.888H245.191V243.576C245.703 241.976 247.175 240.504 249.127 240.504C249.991 240.504 250.695 240.728 251.111 241.08ZM269.671 240.888L272.263 250.296H272.391L275.303 240.888H278.791L274.311 255H270.599L268.039 245.688H267.911L265.351 255H261.607L257.127 240.888H260.935L263.879 250.296H264.007L266.567 240.888H269.671ZM284.347 247.448V255H280.507V234.84H284.347V243.192C285.051 241.592 286.843 240.504 288.955 240.504C292.731 240.504 294.107 243.064 294.107 246.2V255H290.267V246.968C290.267 244.792 289.403 243.544 287.515 243.544C285.563 243.544 284.347 245.08 284.347 247.448ZM307.531 250.072L310.635 250.392C309.899 253.528 307.467 255.384 303.851 255.384C299.499 255.384 296.363 252.6 296.363 248.152C296.363 243.704 299.531 240.504 303.755 240.504C308.363 240.504 310.731 243.704 310.731 247.544V248.92H300.139C300.266 251 301.899 252.472 303.979 252.472C305.867 252.472 306.987 251.672 307.531 250.072ZM300.203 246.52H306.987C306.859 244.888 305.867 243.32 303.723 243.32C301.611 243.32 300.555 244.76 300.203 246.52ZM322.955 241.08L322.667 244.664C321.931 244.248 321.291 244.056 320.363 244.056C318.379 244.056 317.035 245.464 317.035 248.024V255H313.195V240.888H317.035V243.576C317.547 241.976 319.019 240.504 320.97 240.504C321.835 240.504 322.539 240.728 322.955 241.08ZM334.749 250.072L337.853 250.392C337.117 253.528 334.685 255.384 331.069 255.384C326.717 255.384 323.581 252.6 323.581 248.152C323.581 243.704 326.749 240.504 330.973 240.504C335.581 240.504 337.949 243.704 337.949 247.544V248.92H327.357C327.485 251 329.117 252.472 331.197 252.472C333.085 252.472 334.205 251.672 334.749 250.072ZM327.421 246.52H334.205C334.077 244.888 333.085 243.32 330.941 243.32C328.829 243.32 327.773 244.76 327.421 246.52ZM352.083 260.248H348.307L350.483 255.064L344.627 240.888H348.659L352.499 250.52H352.627L356.435 240.888H360.179L352.083 260.248ZM364.547 247.96C364.547 250.616 365.763 252.472 368.099 252.472C370.467 252.472 371.683 250.616 371.683 247.96C371.683 245.272 370.467 243.416 368.099 243.416C365.763 243.416 364.547 245.272 364.547 247.96ZM375.555 247.96C375.555 252.344 372.483 255.384 368.099 255.384C363.747 255.384 360.675 252.344 360.675 247.96C360.675 243.576 363.747 240.504 368.099 240.504C372.483 240.504 375.555 243.576 375.555 247.96ZM387.384 248.44V240.888H391.224V255H387.384V252.696C386.648 254.328 384.984 255.384 382.84 255.384C379.096 255.384 377.816 252.856 377.816 249.72V240.888H381.656V248.952C381.656 251.096 382.456 252.376 384.344 252.376C386.232 252.376 387.384 250.84 387.384 248.44ZM408.706 248.888V248.536L406.05 249.112C404.386 249.464 403.202 249.752 403.202 251.16C403.202 252.12 403.938 252.696 405.154 252.696C407.17 252.696 408.706 251.16 408.706 248.888ZM412.45 245.944V251.576C412.45 252.312 412.834 252.664 413.442 252.664C413.826 252.664 414.21 252.568 414.626 252.376V254.424C414.018 254.904 413.25 255.32 411.97 255.32C410.37 255.32 409.346 254.392 408.994 252.856C408.194 254.488 406.274 255.352 404.194 255.352C401.25 255.352 399.458 253.88 399.458 251.448C399.458 248.76 401.634 247.64 404.834 247L408.706 246.232V245.912C408.706 244.344 407.874 243.384 406.242 243.384C404.642 243.384 403.778 244.344 403.458 245.72L399.97 245.4C400.45 242.52 402.658 240.504 406.402 240.504C410.05 240.504 412.45 242.232 412.45 245.944ZM426.205 241.08L425.917 244.664C425.181 244.248 424.541 244.056 423.613 244.056C421.629 244.056 420.285 245.464 420.285 248.024V255H416.445V240.888H420.285V243.576C420.797 241.976 422.269 240.504 424.22 240.504C425.085 240.504 425.789 240.728 426.205 241.08ZM437.999 250.072L441.103 250.392C440.367 253.528 437.935 255.384 434.319 255.384C429.967 255.384 426.831 252.6 426.831 248.152C426.831 243.704 429.999 240.504 434.223 240.504C438.831 240.504 441.199 243.704 441.199 247.544V248.92H430.607C430.735 251 432.367 252.472 434.447 252.472C436.335 252.472 437.455 251.672 437.999 250.072ZM430.671 246.52H437.455C437.327 244.888 436.335 243.32 434.191 243.32C432.079 243.32 431.023 244.76 430.671 246.52Z" fill="white"/>
<path d="M31.399 292.728V294H20.935V278.88H31.183V280.152H22.399V285.528H29.431V286.8H22.399V292.728H31.399ZM35.2634 287.76V294H33.7994V283.584H35.2634V285.504C35.7674 284.232 37.2074 283.296 38.7674 283.296C41.4554 283.296 42.5834 285.048 42.5834 287.544V294H41.1194V287.496C41.1194 285.648 40.1594 284.448 38.3834 284.448C36.7274 284.448 35.2634 285.744 35.2634 287.76ZM46.8181 283.584V295.752C46.8181 297.36 46.0501 298.368 44.3701 298.368C43.5541 298.368 42.7381 298.032 42.2341 297.6L42.6901 296.64C43.2421 297 43.6741 297.192 44.3461 297.192C44.9941 297.192 45.3541 296.808 45.3541 295.992V283.584H46.8181ZM45.3061 280.824V278.88H46.8661V280.824H45.3061ZM50.53 288.792C50.53 291.336 51.874 293.136 54.202 293.136C56.554 293.136 57.898 291.336 57.898 288.792C57.898 286.248 56.554 284.448 54.202 284.448C51.874 284.448 50.53 286.248 50.53 288.792ZM59.434 288.792C59.434 292.032 57.178 294.288 54.202 294.288C51.25 294.288 48.994 292.032 48.994 288.792C48.994 285.552 51.25 283.296 54.202 283.296C57.178 283.296 59.434 285.552 59.434 288.792ZM64.4065 298.08H62.9665L64.7185 293.928L60.3025 283.584H61.8385L65.4145 292.152H65.5105L68.9665 283.584H70.4065L64.4065 298.08ZM76.7688 291.696V284.664H75.1608V283.944L75.7848 283.824C76.7448 283.632 76.9368 283.176 77.1528 282.168L77.4648 280.68H78.2088V283.584H81.2328V284.664H78.2088V291.72C78.2088 292.656 78.5928 293.112 79.5528 293.112C80.2728 293.112 80.9928 292.752 81.5928 292.392V293.424C80.8488 294 80.1048 294.288 79.0488 294.288C77.6568 294.288 76.7688 293.592 76.7688 291.696ZM84.8571 287.76V294H83.3931V278.88H84.8571V285.504C85.3611 284.232 86.8011 283.296 88.3611 283.296C91.0491 283.296 92.1771 285.048 92.1771 287.544V294H90.7131V287.496C90.7131 285.648 89.7531 284.448 87.9771 284.448C86.3211 284.448 84.8571 285.744 84.8571 287.76ZM103.06 290.28L104.308 290.448C103.804 292.824 102.076 294.288 99.5318 294.288C96.5078 294.288 94.2518 292.152 94.2518 288.936C94.2518 285.648 96.4838 283.296 99.4358 283.296C102.7 283.296 104.332 285.648 104.332 288.48V289.152H95.7638C95.8598 291.456 97.4678 293.088 99.5318 293.088C101.452 293.088 102.628 292.128 103.06 290.28ZM95.7878 288.12H102.772C102.724 286.2 101.644 284.448 99.4358 284.448C97.3718 284.448 96.0278 286.176 95.7878 288.12ZM111.246 284.664H109.638V283.584H111.246V282.12C111.246 280.056 112.398 278.592 114.51 278.592C116.262 278.592 117.15 279.36 117.63 280.896L116.55 281.304C116.286 280.368 115.59 279.672 114.51 279.672C113.286 279.672 112.71 280.512 112.71 281.928V283.584H115.71V284.664H112.71V294H111.246V284.664ZM123.353 283.776L123.185 285.048C122.585 284.736 122.225 284.64 121.601 284.64C120.089 284.64 118.865 286.2 118.865 288.288V294H117.401V283.584H118.865V285.768C119.273 284.568 120.329 283.296 121.865 283.296C122.513 283.296 122.969 283.44 123.353 283.776ZM132.685 290.28L133.933 290.448C133.429 292.824 131.701 294.288 129.157 294.288C126.133 294.288 123.877 292.152 123.877 288.936C123.877 285.648 126.109 283.296 129.061 283.296C132.325 283.296 133.957 285.648 133.957 288.48V289.152H125.389C125.485 291.456 127.093 293.088 129.157 293.088C131.077 293.088 132.253 292.128 132.685 290.28ZM125.413 288.12H132.397C132.349 286.2 131.269 284.448 129.061 284.448C126.997 284.448 125.653 286.176 125.413 288.12ZM144.333 290.28L145.581 290.448C145.077 292.824 143.349 294.288 140.805 294.288C137.781 294.288 135.525 292.152 135.525 288.936C135.525 285.648 137.757 283.296 140.709 283.296C143.973 283.296 145.605 285.648 145.605 288.48V289.152H137.037C137.133 291.456 138.741 293.088 140.805 293.088C142.725 293.088 143.901 292.128 144.333 290.28ZM137.061 288.12H144.045C143.997 286.2 142.917 284.448 140.709 284.448C138.645 284.448 137.301 286.176 137.061 288.12ZM155.886 289.152V288.432C155.886 285.936 154.254 284.496 152.19 284.496C149.982 284.496 148.71 286.152 148.71 288.792C148.71 291.432 149.982 293.088 152.19 293.088C154.254 293.088 155.886 291.648 155.886 289.152ZM155.838 294V291.72C155.382 293.04 154.014 294.288 151.998 294.288C148.902 294.288 147.174 291.864 147.174 288.792C147.174 285.72 148.902 283.296 151.998 283.296C154.014 283.296 155.382 284.568 155.838 285.888V278.88H157.302V294H155.838ZM161.014 288.792C161.014 291.336 162.358 293.136 164.686 293.136C167.038 293.136 168.382 291.336 168.382 288.792C168.382 286.248 167.038 284.448 164.686 284.448C162.358 284.448 161.014 286.248 161.014 288.792ZM169.918 288.792C169.918 292.032 167.662 294.288 164.686 294.288C161.734 294.288 159.478 292.032 159.478 288.792C159.478 285.552 161.734 283.296 164.686 283.296C167.662 283.296 169.918 285.552 169.918 288.792ZM180.384 285.6C180.936 284.28 182.232 283.296 183.864 283.296C186.552 283.296 187.536 285.144 187.536 287.544V294H186.072V287.496C186.072 285.648 185.232 284.448 183.504 284.448C181.944 284.448 180.552 285.744 180.552 287.76V294H179.088V287.496C179.088 285.648 178.248 284.448 176.52 284.448C174.96 284.448 173.568 285.744 173.568 287.76V294H172.104V283.584H173.568V285.504C174.072 284.232 175.32 283.296 176.928 283.296C178.776 283.296 179.928 284.208 180.384 285.6ZM195.444 288.792C195.444 291.336 196.788 293.136 199.116 293.136C201.468 293.136 202.812 291.336 202.812 288.792C202.812 286.248 201.468 284.448 199.116 284.448C196.788 284.448 195.444 286.248 195.444 288.792ZM204.348 288.792C204.348 292.032 202.092 294.288 199.116 294.288C196.164 294.288 193.908 292.032 193.908 288.792C193.908 285.552 196.164 283.296 199.116 283.296C202.092 283.296 204.348 285.552 204.348 288.792ZM206.942 284.664H205.334V283.584H206.942V282.12C206.942 280.056 208.094 278.592 210.206 278.592C211.958 278.592 212.846 279.36 213.326 280.896L212.246 281.304C211.982 280.368 211.286 279.672 210.206 279.672C208.982 279.672 208.406 280.512 208.406 281.928V283.584H211.406V284.664H208.406V294H206.942V284.664ZM224.489 289.824V283.584H225.953V294H224.489V292.08C223.985 293.352 222.593 294.288 221.033 294.288C218.345 294.288 217.289 292.536 217.289 290.04V283.584H218.753V290.088C218.753 291.936 219.641 293.136 221.417 293.136C223.073 293.136 224.489 291.84 224.489 289.824ZM230.287 287.76V294H228.823V283.584H230.287V285.504C230.791 284.232 232.231 283.296 233.791 283.296C236.479 283.296 237.607 285.048 237.607 287.544V294H236.143V287.496C236.143 285.648 235.183 284.448 233.407 284.448C231.751 284.448 230.287 285.744 230.287 287.76ZM240.378 278.88H241.842V294H240.378V278.88ZM244.713 283.584H246.177V294H244.713V283.584ZM244.665 280.824V278.88H246.225V280.824H244.665ZM257.329 285.6C257.881 284.28 259.177 283.296 260.809 283.296C263.497 283.296 264.481 285.144 264.481 287.544V294H263.017V287.496C263.017 285.648 262.177 284.448 260.449 284.448C258.889 284.448 257.497 285.744 257.497 287.76V294H256.033V287.496C256.033 285.648 255.193 284.448 253.465 284.448C251.905 284.448 250.513 285.744 250.513 287.76V294H249.049V283.584H250.513V285.504C251.017 284.232 252.265 283.296 253.873 283.296C255.721 283.296 256.873 284.208 257.329 285.6ZM267.237 283.584H268.701V294H267.237V283.584ZM267.189 280.824V278.88H268.749V280.824H267.189ZM271.933 291.696V284.664H270.325V283.944L270.949 283.824C271.909 283.632 272.101 283.176 272.317 282.168L272.629 280.68H273.373V283.584H276.397V284.664H273.373V291.72C273.373 292.656 273.757 293.112 274.717 293.112C275.437 293.112 276.157 292.752 276.757 292.392V293.424C276.013 294 275.269 294.288 274.213 294.288C272.821 294.288 271.933 293.592 271.933 291.696ZM286.552 290.28L287.8 290.448C287.296 292.824 285.568 294.288 283.024 294.288C280 294.288 277.744 292.152 277.744 288.936C277.744 285.648 279.976 283.296 282.928 283.296C286.192 283.296 287.824 285.648 287.824 288.48V289.152H279.256C279.352 291.456 280.96 293.088 283.024 293.088C284.944 293.088 286.12 292.128 286.552 290.28ZM279.28 288.12H286.264C286.216 286.2 285.136 284.448 282.928 284.448C280.864 284.448 279.52 286.176 279.28 288.12ZM298.104 289.152V288.432C298.104 285.936 296.472 284.496 294.408 284.496C292.2 284.496 290.928 286.152 290.928 288.792C290.928 291.432 292.2 293.088 294.408 293.088C296.472 293.088 298.104 291.648 298.104 289.152ZM298.056 294V291.72C297.6 293.04 296.232 294.288 294.216 294.288C291.12 294.288 289.392 291.864 289.392 288.792C289.392 285.72 291.12 283.296 294.216 283.296C296.232 283.296 297.6 284.568 298.056 285.888V278.88H299.52V294H298.056ZM314.722 289.152V288.432C314.722 285.936 313.09 284.496 311.026 284.496C308.818 284.496 307.546 286.152 307.546 288.792C307.546 291.432 308.818 293.088 311.026 293.088C313.09 293.088 314.722 291.648 314.722 289.152ZM314.674 294V291.72C314.218 293.04 312.85 294.288 310.834 294.288C307.738 294.288 306.01 291.864 306.01 288.792C306.01 285.72 307.738 283.296 310.834 283.296C312.85 283.296 314.218 284.568 314.674 285.888V278.88H316.138V294H314.674ZM325.634 289.272V288.624L323.09 289.176C321.194 289.584 320.018 289.968 320.018 291.36C320.018 292.344 320.666 293.16 322.034 293.16C324.074 293.16 325.634 291.6 325.634 289.272ZM327.026 287.232V292.248C327.026 292.8 327.362 293.064 327.89 293.064C328.13 293.064 328.538 292.968 328.826 292.8V293.592C328.514 293.952 328.178 294.216 327.458 294.216C326.426 294.216 325.682 293.328 325.634 292.008C325.082 293.232 323.546 294.288 321.77 294.288C319.826 294.288 318.53 293.208 318.53 291.408C318.53 289.44 320.258 288.648 322.85 288.12L325.634 287.544V287.016C325.634 285.432 324.698 284.448 323.066 284.448C321.386 284.448 320.45 285.432 320.09 286.776L318.842 286.536C319.25 284.664 320.786 283.296 323.042 283.296C325.634 283.296 327.026 284.664 327.026 287.232ZM330.714 291.696V284.664H329.106V283.944L329.73 283.824C330.69 283.632 330.882 283.176 331.098 282.168L331.41 280.68H332.154V283.584H335.178V284.664H332.154V291.72C332.154 292.656 332.538 293.112 333.498 293.112C334.218 293.112 334.938 292.752 335.538 292.392V293.424C334.794 294 334.05 294.288 332.994 294.288C331.602 294.288 330.714 293.592 330.714 291.696ZM343.962 289.272V288.624L341.418 289.176C339.522 289.584 338.346 289.968 338.346 291.36C338.346 292.344 338.994 293.16 340.362 293.16C342.402 293.16 343.962 291.6 343.962 289.272ZM345.354 287.232V292.248C345.354 292.8 345.69 293.064 346.218 293.064C346.458 293.064 346.866 292.968 347.154 292.8V293.592C346.842 293.952 346.506 294.216 345.786 294.216C344.754 294.216 344.01 293.328 343.962 292.008C343.41 293.232 341.874 294.288 340.098 294.288C338.154 294.288 336.858 293.208 336.858 291.408C336.858 289.44 338.586 288.648 341.178 288.12L343.962 287.544V287.016C343.962 285.432 343.026 284.448 341.394 284.448C339.714 284.448 338.778 285.432 338.418 286.776L337.17 286.536C337.578 284.664 339.114 283.296 341.37 283.296C343.962 283.296 345.354 284.664 345.354 287.232ZM348.319 294V292.08H350.239V294.024C350.239 295.512 350.047 296.448 348.319 296.448V295.464C349.159 295.392 349.255 295.08 349.255 294H348.319ZM358.42 287.76V294H356.956V283.584H358.42V285.504C358.924 284.232 360.364 283.296 361.924 283.296C364.612 283.296 365.74 285.048 365.74 287.544V294H364.276V287.496C364.276 285.648 363.316 284.448 361.54 284.448C359.884 284.448 358.42 285.744 358.42 287.76ZM375.134 289.272V288.624L372.59 289.176C370.694 289.584 369.518 289.968 369.518 291.36C369.518 292.344 370.166 293.16 371.534 293.16C373.574 293.16 375.134 291.6 375.134 289.272ZM376.526 287.232V292.248C376.526 292.8 376.862 293.064 377.39 293.064C377.63 293.064 378.038 292.968 378.326 292.8V293.592C378.014 293.952 377.678 294.216 376.958 294.216C375.926 294.216 375.182 293.328 375.134 292.008C374.582 293.232 373.046 294.288 371.27 294.288C369.326 294.288 368.03 293.208 368.03 291.408C368.03 289.44 369.758 288.648 372.35 288.12L375.134 287.544V287.016C375.134 285.432 374.198 284.448 372.566 284.448C370.886 284.448 369.95 285.432 369.59 286.776L368.342 286.536C368.75 284.664 370.286 283.296 372.542 283.296C375.134 283.296 376.526 284.664 376.526 287.232ZM384.012 294H382.836L378.42 283.584H379.956L383.46 292.032H383.556L386.988 283.584H388.428L384.012 294ZM390.096 283.584H391.56V294H390.096V283.584ZM390.048 280.824V278.88H391.608V280.824H390.048ZM402.688 286.824C402.688 289.008 400.912 290.352 398.464 290.352C397.6 290.352 396.832 290.208 396.184 289.896C395.752 290.112 395.32 290.544 395.32 291.096C395.32 291.744 395.68 292.08 396.688 292.08H400.72C402.952 292.08 404.128 293.232 404.128 294.84C404.128 297.408 401.32 298.368 398.272 298.368C395.512 298.368 393.232 297.408 393.232 295.488C393.232 294.216 394.12 293.424 395.44 293.136C394.48 292.848 394.096 292.2 394.096 291.432C394.096 290.544 394.72 289.944 395.56 289.512C394.744 288.912 394.264 287.976 394.264 286.824C394.264 284.64 396.016 283.296 398.464 283.296C399.808 283.296 400.96 283.704 401.704 284.448C402.256 283.608 403.168 283.032 404.272 283.032V284.448C403.48 284.448 402.64 284.664 402.136 284.952C402.496 285.48 402.688 286.104 402.688 286.824ZM394.72 295.128C394.72 296.664 396.184 297.312 398.272 297.312C400.864 297.312 402.712 296.688 402.712 294.888C402.712 293.784 401.776 293.376 400.384 293.376H397.096C395.824 293.376 394.72 293.784 394.72 295.128ZM401.2 286.848C401.2 285.24 400.192 284.304 398.464 284.304C396.784 284.304 395.776 285.24 395.776 286.848C395.776 288.432 396.784 289.368 398.464 289.368C400.192 289.368 401.2 288.432 401.2 286.848ZM412.212 289.272V288.624L409.668 289.176C407.772 289.584 406.596 289.968 406.596 291.36C406.596 292.344 407.244 293.16 408.612 293.16C410.652 293.16 412.212 291.6 412.212 289.272ZM413.604 287.232V292.248C413.604 292.8 413.94 293.064 414.468 293.064C414.708 293.064 415.116 292.968 415.404 292.8V293.592C415.092 293.952 414.756 294.216 414.036 294.216C413.004 294.216 412.26 293.328 412.212 292.008C411.66 293.232 410.124 294.288 408.348 294.288C406.404 294.288 405.108 293.208 405.108 291.408C405.108 289.44 406.836 288.648 409.428 288.12L412.212 287.544V287.016C412.212 285.432 411.276 284.448 409.644 284.448C407.964 284.448 407.028 285.432 406.668 286.776L405.42 286.536C405.828 284.664 407.364 283.296 409.62 283.296C412.212 283.296 413.604 284.664 413.604 287.232ZM417.292 291.696V284.664H415.684V283.944L416.308 283.824C417.268 283.632 417.46 283.176 417.676 282.168L417.988 280.68H418.732V283.584H421.756V284.664H418.732V291.72C418.732 292.656 419.116 293.112 420.076 293.112C420.796 293.112 421.516 292.752 422.116 292.392V293.424C421.372 294 420.628 294.288 419.572 294.288C418.18 294.288 417.292 293.592 417.292 291.696ZM431.911 290.28L433.159 290.448C432.655 292.824 430.927 294.288 428.383 294.288C425.359 294.288 423.103 292.152 423.103 288.936C423.103 285.648 425.335 283.296 428.287 283.296C431.551 283.296 433.183 285.648 433.183 288.48V289.152H424.615C424.711 291.456 426.319 293.088 428.383 293.088C430.303 293.088 431.479 292.128 431.911 290.28ZM424.639 288.12H431.623C431.575 286.2 430.495 284.448 428.287 284.448C426.223 284.448 424.879 286.176 424.639 288.12ZM434.663 294V292.08H436.583V294.024C436.583 295.512 436.391 296.448 434.663 296.448V295.464C435.503 295.392 435.599 295.08 435.599 294H434.663ZM442.555 290.472L443.731 290.328C443.947 292.128 445.171 293.136 447.163 293.136C448.771 293.136 449.899 292.536 449.899 291.312C449.899 290.16 449.083 289.8 447.619 289.536L445.819 289.224C443.995 288.912 442.867 288.072 442.867 286.392C442.867 284.52 444.427 283.296 446.707 283.296C449.395 283.296 450.955 284.568 451.123 287.04L449.995 287.136C449.731 285.264 448.627 284.448 446.707 284.448C445.219 284.448 444.235 285.12 444.235 286.224C444.235 287.232 444.835 287.736 446.131 287.952L448.051 288.264C450.091 288.6 451.291 289.32 451.291 291.168C451.291 293.208 449.467 294.288 447.187 294.288C444.667 294.288 442.723 293.04 442.555 290.472ZM454.959 287.76V294H453.495V278.88H454.959V285.504C455.463 284.232 456.903 283.296 458.463 283.296C461.151 283.296 462.279 285.048 462.279 287.544V294H460.815V287.496C460.815 285.648 459.855 284.448 458.079 284.448C456.423 284.448 454.959 285.744 454.959 287.76ZM471.673 289.272V288.624L469.129 289.176C467.233 289.584 466.057 289.968 466.057 291.36C466.057 292.344 466.705 293.16 468.073 293.16C470.113 293.16 471.673 291.6 471.673 289.272ZM473.065 287.232V292.248C473.065 292.8 473.401 293.064 473.929 293.064C474.169 293.064 474.577 292.968 474.865 292.8V293.592C474.553 293.952 474.217 294.216 473.497 294.216C472.465 294.216 471.721 293.328 471.673 292.008C471.121 293.232 469.585 294.288 467.809 294.288C465.865 294.288 464.569 293.208 464.569 291.408C464.569 289.44 466.297 288.648 468.889 288.12L471.673 287.544V287.016C471.673 285.432 470.737 284.448 469.105 284.448C467.425 284.448 466.489 285.432 466.129 286.776L464.881 286.536C465.289 284.664 466.825 283.296 469.081 283.296C471.673 283.296 473.065 284.664 473.065 287.232ZM482.462 283.776L482.294 285.048C481.694 284.736 481.334 284.64 480.71 284.64C479.198 284.64 477.974 286.2 477.974 288.288V294H476.51V283.584H477.974V285.768C478.382 284.568 479.438 283.296 480.974 283.296C481.622 283.296 482.078 283.44 482.462 283.776ZM491.794 290.28L493.042 290.448C492.538 292.824 490.81 294.288 488.266 294.288C485.242 294.288 482.986 292.152 482.986 288.936C482.986 285.648 485.218 283.296 488.17 283.296C491.434 283.296 493.066 285.648 493.066 288.48V289.152H484.498C484.594 291.456 486.202 293.088 488.266 293.088C490.186 293.088 491.362 292.128 491.794 290.28ZM484.522 288.12H491.506C491.458 286.2 490.378 284.448 488.17 284.448C486.106 284.448 484.762 286.176 484.522 288.12ZM494.546 294V292.08H496.466V294.024C496.466 295.512 496.274 296.448 494.546 296.448V295.464C495.386 295.392 495.482 295.08 495.482 294H494.546ZM502.438 290.472L503.614 290.328C503.83 292.128 505.054 293.136 507.046 293.136C508.654 293.136 509.782 292.536 509.782 291.312C509.782 290.16 508.966 289.8 507.502 289.536L505.702 289.224C503.878 288.912 502.75 288.072 502.75 286.392C502.75 284.52 504.31 283.296 506.59 283.296C509.278 283.296 510.838 284.568 511.006 287.04L509.878 287.136C509.614 285.264 508.51 284.448 506.59 284.448C505.102 284.448 504.118 285.12 504.118 286.224C504.118 287.232 504.718 287.736 506.014 287.952L507.934 288.264C509.974 288.6 511.174 289.32 511.174 291.168C511.174 293.208 509.35 294.288 507.07 294.288C504.55 294.288 502.606 293.04 502.438 290.472ZM513.738 291.696V284.664H512.13V283.944L512.754 283.824C513.714 283.632 513.906 283.176 514.122 282.168L514.434 280.68H515.178V283.584H518.202V284.664H515.178V291.72C515.178 292.656 515.562 293.112 516.522 293.112C517.242 293.112 517.962 292.752 518.562 292.392V293.424C517.818 294 517.074 294.288 516.018 294.288C514.626 294.288 513.738 293.592 513.738 291.696ZM526.986 289.272V288.624L524.442 289.176C522.546 289.584 521.37 289.968 521.37 291.36C521.37 292.344 522.018 293.16 523.386 293.16C525.426 293.16 526.986 291.6 526.986 289.272ZM528.378 287.232V292.248C528.378 292.8 528.714 293.064 529.242 293.064C529.482 293.064 529.89 292.968 530.178 292.8V293.592C529.866 293.952 529.53 294.216 528.81 294.216C527.778 294.216 527.034 293.328 526.986 292.008C526.434 293.232 524.898 294.288 523.122 294.288C521.178 294.288 519.882 293.208 519.882 291.408C519.882 289.44 521.61 288.648 524.202 288.12L526.986 287.544V287.016C526.986 285.432 526.05 284.448 524.418 284.448C522.738 284.448 521.802 285.432 521.442 286.776L520.194 286.536C520.602 284.664 522.138 283.296 524.394 283.296C526.986 283.296 528.378 284.664 528.378 287.232ZM534.375 298.08H532.935L534.687 293.928L530.271 283.584H531.807L535.383 292.152H535.479L538.935 283.584H540.375L534.375 298.08ZM48.3378 315.792C48.3378 312.48 50.4978 310.296 53.5938 310.296C56.6178 310.296 58.2498 312.336 58.4418 314.856L57.0978 314.952C56.9538 312.96 55.7298 311.52 53.5458 311.52C51.3618 311.52 49.8738 313.224 49.8738 315.792C49.8738 318.36 51.3618 320.064 53.5458 320.064C55.7298 320.064 56.9538 318.576 57.0978 316.584L58.4418 316.728C58.2498 319.248 56.6178 321.288 53.5938 321.288C50.4978 321.288 48.3378 319.104 48.3378 315.792ZM61.5456 315.792C61.5456 318.336 62.8896 320.136 65.2176 320.136C67.5696 320.136 68.9136 318.336 68.9136 315.792C68.9136 313.248 67.5696 311.448 65.2176 311.448C62.8896 311.448 61.5456 313.248 61.5456 315.792ZM70.4496 315.792C70.4496 319.032 68.1936 321.288 65.2176 321.288C62.2656 321.288 60.0096 319.032 60.0096 315.792C60.0096 312.552 62.2656 310.296 65.2176 310.296C68.1936 310.296 70.4496 312.552 70.4496 315.792ZM74.0993 314.76V321H72.6353V310.584H74.0993V312.504C74.6033 311.232 76.0433 310.296 77.6033 310.296C80.2913 310.296 81.4193 312.048 81.4193 314.544V321H79.9553V314.496C79.9553 312.648 78.9953 311.448 77.2193 311.448C75.5633 311.448 74.0993 312.744 74.0993 314.76ZM85.654 314.76V321H84.19V310.584H85.654V312.504C86.158 311.232 87.598 310.296 89.158 310.296C91.846 310.296 92.974 312.048 92.974 314.544V321H91.51V314.496C91.51 312.648 90.55 311.448 88.774 311.448C87.118 311.448 85.654 312.744 85.654 314.76ZM103.857 317.28L105.105 317.448C104.601 319.824 102.873 321.288 100.329 321.288C97.3047 321.288 95.0487 319.152 95.0487 315.936C95.0487 312.648 97.2807 310.296 100.233 310.296C103.497 310.296 105.129 312.648 105.129 315.48V316.152H96.5607C96.6567 318.456 98.2647 320.088 100.329 320.088C102.249 320.088 103.425 319.128 103.857 317.28ZM96.5847 315.12H103.569C103.521 313.2 102.441 311.448 100.233 311.448C98.1687 311.448 96.8247 313.176 96.5847 315.12ZM106.697 315.792C106.697 312.48 108.857 310.296 111.953 310.296C114.977 310.296 116.609 312.336 116.801 314.856L115.457 314.952C115.313 312.96 114.089 311.52 111.905 311.52C109.721 311.52 108.233 313.224 108.233 315.792C108.233 318.36 109.721 320.064 111.905 320.064C114.089 320.064 115.313 318.576 115.457 316.584L116.801 316.728C116.609 319.248 114.977 321.288 111.953 321.288C108.857 321.288 106.697 319.104 106.697 315.792ZM119.355 318.696V311.664H117.747V310.944L118.371 310.824C119.331 310.632 119.523 310.176 119.739 309.168L120.051 307.68H120.795V310.584H123.819V311.664H120.795V318.72C120.795 319.656 121.179 320.112 122.139 320.112C122.859 320.112 123.579 319.752 124.179 319.392V320.424C123.435 321 122.691 321.288 121.635 321.288C120.243 321.288 119.355 320.592 119.355 318.696ZM133.974 317.28L135.222 317.448C134.718 319.824 132.99 321.288 130.446 321.288C127.422 321.288 125.166 319.152 125.166 315.936C125.166 312.648 127.398 310.296 130.35 310.296C133.614 310.296 135.246 312.648 135.246 315.48V316.152H126.678C126.774 318.456 128.382 320.088 130.446 320.088C132.366 320.088 133.542 319.128 133.974 317.28ZM126.702 315.12H133.686C133.638 313.2 132.558 311.448 130.35 311.448C128.286 311.448 126.942 313.176 126.702 315.12ZM145.526 316.152V315.432C145.526 312.936 143.894 311.496 141.83 311.496C139.622 311.496 138.35 313.152 138.35 315.792C138.35 318.432 139.622 320.088 141.83 320.088C143.894 320.088 145.526 318.648 145.526 316.152ZM145.478 321V318.72C145.022 320.04 143.654 321.288 141.638 321.288C138.542 321.288 136.814 318.864 136.814 315.792C136.814 312.72 138.542 310.296 141.638 310.296C143.654 310.296 145.022 311.568 145.478 312.888V305.88H146.942V321H145.478ZM160.776 310.584L163.224 319.032H163.32L165.888 310.584H167.28L163.968 321H162.576L160.152 312.696H160.056L157.656 321H156.264L152.928 310.584H154.392L157.008 319.032H157.104L159.504 310.584H160.776ZM168.963 310.584H170.427V321H168.963V310.584ZM168.915 307.824V305.88H170.475V307.824H168.915ZM173.659 318.696V311.664H172.051V310.944L172.675 310.824C173.635 310.632 173.827 310.176 174.043 309.168L174.355 307.68H175.099V310.584H178.123V311.664H175.099V318.72C175.099 319.656 175.483 320.112 176.443 320.112C177.163 320.112 177.883 319.752 178.483 319.392V320.424C177.739 321 176.995 321.288 175.939 321.288C174.547 321.288 173.659 320.592 173.659 318.696ZM181.748 314.76V321H180.284V305.88H181.748V312.504C182.252 311.232 183.692 310.296 185.252 310.296C187.94 310.296 189.068 312.048 189.068 314.544V321H187.604V314.496C187.604 312.648 186.644 311.448 184.868 311.448C183.212 311.448 181.748 312.744 181.748 314.76ZM192.678 315.792C192.678 318.336 194.022 320.136 196.35 320.136C198.702 320.136 200.046 318.336 200.046 315.792C200.046 313.248 198.702 311.448 196.35 311.448C194.022 311.448 192.678 313.248 192.678 315.792ZM201.582 315.792C201.582 319.032 199.326 321.288 196.35 321.288C193.398 321.288 191.142 319.032 191.142 315.792C191.142 312.552 193.398 310.296 196.35 310.296C199.326 310.296 201.582 312.552 201.582 315.792ZM210.848 316.824V310.584H212.312V321H210.848V319.08C210.344 320.352 208.952 321.288 207.392 321.288C204.704 321.288 203.648 319.536 203.648 317.04V310.584H205.112V317.088C205.112 318.936 206 320.136 207.776 320.136C209.432 320.136 210.848 318.84 210.848 316.824ZM215.542 318.696V311.664H213.934V310.944L214.558 310.824C215.518 310.632 215.71 310.176 215.926 309.168L216.238 307.68H216.982V310.584H220.006V311.664H216.982V318.72C216.982 319.656 217.366 320.112 218.326 320.112C219.046 320.112 219.766 319.752 220.366 319.392V320.424C219.622 321 218.878 321.288 217.822 321.288C216.43 321.288 215.542 320.592 215.542 318.696ZM233.127 310.584L235.575 319.032H235.671L238.239 310.584H239.631L236.319 321H234.927L232.503 312.696H232.407L230.007 321H228.615L225.279 310.584H226.743L229.359 319.032H229.455L231.855 310.584H233.127ZM242.155 315.792C242.155 318.336 243.499 320.136 245.827 320.136C248.179 320.136 249.523 318.336 249.523 315.792C249.523 313.248 248.179 311.448 245.827 311.448C243.499 311.448 242.155 313.248 242.155 315.792ZM251.059 315.792C251.059 319.032 248.803 321.288 245.827 321.288C242.875 321.288 240.619 319.032 240.619 315.792C240.619 312.552 242.875 310.296 245.827 310.296C248.803 310.296 251.059 312.552 251.059 315.792ZM259.197 310.776L259.029 312.048C258.429 311.736 258.069 311.64 257.445 311.64C255.933 311.64 254.709 313.2 254.709 315.288V321H253.245V310.584H254.709V312.768C255.117 311.568 256.173 310.296 257.709 310.296C258.357 310.296 258.813 310.44 259.197 310.776ZM266.72 310.776L266.552 312.048C265.952 311.736 265.592 311.64 264.968 311.64C263.456 311.64 262.232 313.2 262.232 315.288V321H260.768V310.584H262.232V312.768C262.64 311.568 263.696 310.296 265.232 310.296C265.88 310.296 266.336 310.44 266.72 310.776ZM271.43 325.08H269.99L271.742 320.928L267.326 310.584H268.862L272.438 319.152H272.534L275.99 310.584H277.43L271.43 325.08ZM279.12 310.584H280.584V321H279.12V310.584ZM279.072 307.824V305.88H280.632V307.824H279.072ZM284.92 314.76V321H283.456V310.584H284.92V312.504C285.424 311.232 286.864 310.296 288.424 310.296C291.112 310.296 292.24 312.048 292.24 314.544V321H290.776V314.496C290.776 312.648 289.816 311.448 288.04 311.448C286.384 311.448 284.92 312.744 284.92 314.76ZM303.266 313.824C303.266 316.008 301.49 317.352 299.042 317.352C298.178 317.352 297.41 317.208 296.762 316.896C296.33 317.112 295.898 317.544 295.898 318.096C295.898 318.744 296.258 319.08 297.266 319.08H301.298C303.53 319.08 304.706 320.232 304.706 321.84C304.706 324.408 301.898 325.368 298.85 325.368C296.09 325.368 293.81 324.408 293.81 322.488C293.81 321.216 294.698 320.424 296.018 320.136C295.058 319.848 294.674 319.2 294.674 318.432C294.674 317.544 295.298 316.944 296.138 316.512C295.322 315.912 294.842 314.976 294.842 313.824C294.842 311.64 296.594 310.296 299.042 310.296C300.386 310.296 301.538 310.704 302.282 311.448C302.834 310.608 303.746 310.032 304.85 310.032V311.448C304.058 311.448 303.218 311.664 302.714 311.952C303.074 312.48 303.266 313.104 303.266 313.824ZM295.298 322.128C295.298 323.664 296.762 324.312 298.85 324.312C301.442 324.312 303.29 323.688 303.29 321.888C303.29 320.784 302.354 320.376 300.962 320.376H297.674C296.402 320.376 295.298 320.784 295.298 322.128ZM301.778 313.848C301.778 312.24 300.77 311.304 299.042 311.304C297.362 311.304 296.354 312.24 296.354 313.848C296.354 315.432 297.362 316.368 299.042 316.368C300.77 316.368 301.778 315.432 301.778 313.848ZM317.22 316.272V315.624L314.676 316.176C312.78 316.584 311.604 316.968 311.604 318.36C311.604 319.344 312.252 320.16 313.62 320.16C315.66 320.16 317.22 318.6 317.22 316.272ZM318.612 314.232V319.248C318.612 319.8 318.948 320.064 319.476 320.064C319.716 320.064 320.124 319.968 320.412 319.8V320.592C320.1 320.952 319.764 321.216 319.044 321.216C318.012 321.216 317.268 320.328 317.22 319.008C316.668 320.232 315.132 321.288 313.356 321.288C311.412 321.288 310.116 320.208 310.116 318.408C310.116 316.44 311.844 315.648 314.436 315.12L317.22 314.544V314.016C317.22 312.432 316.284 311.448 314.652 311.448C312.972 311.448 312.036 312.432 311.676 313.776L310.428 313.536C310.836 311.664 312.372 310.296 314.628 310.296C317.22 310.296 318.612 311.664 318.612 314.232ZM323.473 315.432V316.152C323.473 318.648 325.105 320.088 327.169 320.088C329.377 320.088 330.649 318.432 330.649 315.792C330.649 313.152 329.377 311.496 327.169 311.496C325.105 311.496 323.473 312.936 323.473 315.432ZM323.521 318.72L323.161 321H322.057V305.88H323.521V312.888C323.977 311.568 325.345 310.296 327.361 310.296C330.457 310.296 332.185 312.72 332.185 315.792C332.185 318.864 330.457 321.288 327.361 321.288C325.345 321.288 323.977 320.04 323.521 318.72ZM335.272 315.792C335.272 318.336 336.616 320.136 338.944 320.136C341.296 320.136 342.64 318.336 342.64 315.792C342.64 313.248 341.296 311.448 338.944 311.448C336.616 311.448 335.272 313.248 335.272 315.792ZM344.176 315.792C344.176 319.032 341.92 321.288 338.944 321.288C335.992 321.288 333.736 319.032 333.736 315.792C333.736 312.552 335.992 310.296 338.944 310.296C341.92 310.296 344.176 312.552 344.176 315.792ZM353.442 316.824V310.584H354.906V321H353.442V319.08C352.938 320.352 351.546 321.288 349.986 321.288C347.298 321.288 346.242 319.536 346.242 317.04V310.584H347.706V317.088C347.706 318.936 348.594 320.136 350.37 320.136C352.026 320.136 353.442 318.84 353.442 316.824ZM358.136 318.696V311.664H356.528V310.944L357.152 310.824C358.112 310.632 358.304 310.176 358.52 309.168L358.832 307.68H359.576V310.584H362.6V311.664H359.576V318.72C359.576 319.656 359.96 320.112 360.92 320.112C361.64 320.112 362.36 319.752 362.96 319.392V320.424C362.216 321 361.472 321.288 360.416 321.288C359.024 321.288 358.136 320.592 358.136 318.696ZM377.089 316.152V315.432C377.089 312.936 375.457 311.496 373.393 311.496C371.185 311.496 369.913 313.152 369.913 315.792C369.913 318.432 371.185 320.088 373.393 320.088C375.457 320.088 377.089 318.648 377.089 316.152ZM377.041 321V318.72C376.585 320.04 375.217 321.288 373.201 321.288C370.105 321.288 368.377 318.864 368.377 315.792C368.377 312.72 370.105 310.296 373.201 310.296C375.217 310.296 376.585 311.568 377.041 312.888V305.88H378.505V321H377.041ZM388.002 316.272V315.624L385.458 316.176C383.562 316.584 382.386 316.968 382.386 318.36C382.386 319.344 383.034 320.16 384.402 320.16C386.442 320.16 388.002 318.6 388.002 316.272ZM389.394 314.232V319.248C389.394 319.8 389.73 320.064 390.258 320.064C390.498 320.064 390.906 319.968 391.194 319.8V320.592C390.882 320.952 390.546 321.216 389.826 321.216C388.794 321.216 388.05 320.328 388.002 319.008C387.45 320.232 385.914 321.288 384.138 321.288C382.194 321.288 380.898 320.208 380.898 318.408C380.898 316.44 382.626 315.648 385.218 315.12L388.002 314.544V314.016C388.002 312.432 387.066 311.448 385.434 311.448C383.754 311.448 382.818 312.432 382.458 313.776L381.21 313.536C381.618 311.664 383.154 310.296 385.41 310.296C388.002 310.296 389.394 311.664 389.394 314.232ZM393.081 318.696V311.664H391.473V310.944L392.097 310.824C393.057 310.632 393.249 310.176 393.465 309.168L393.777 307.68H394.521V310.584H397.545V311.664H394.521V318.72C394.521 319.656 394.905 320.112 395.865 320.112C396.585 320.112 397.305 319.752 397.905 319.392V320.424C397.161 321 396.417 321.288 395.361 321.288C393.969 321.288 393.081 320.592 393.081 318.696ZM406.33 316.272V315.624L403.786 316.176C401.89 316.584 400.714 316.968 400.714 318.36C400.714 319.344 401.362 320.16 402.73 320.16C404.77 320.16 406.33 318.6 406.33 316.272ZM407.722 314.232V319.248C407.722 319.8 408.058 320.064 408.586 320.064C408.826 320.064 409.234 319.968 409.522 319.8V320.592C409.21 320.952 408.874 321.216 408.154 321.216C407.122 321.216 406.378 320.328 406.33 319.008C405.778 320.232 404.242 321.288 402.466 321.288C400.522 321.288 399.226 320.208 399.226 318.408C399.226 316.44 400.954 315.648 403.546 315.12L406.33 314.544V314.016C406.33 312.432 405.394 311.448 403.762 311.448C402.082 311.448 401.146 312.432 400.786 313.776L399.538 313.536C399.946 311.664 401.482 310.296 403.738 310.296C406.33 310.296 407.722 311.664 407.722 314.232ZM415.479 305.88H416.943V321H415.479V305.88ZM419.815 310.584H421.279V321H419.815V310.584ZM419.767 307.824V305.88H421.327V307.824H419.767ZM432.431 312.6C432.983 311.28 434.279 310.296 435.911 310.296C438.599 310.296 439.583 312.144 439.583 314.544V321H438.119V314.496C438.119 312.648 437.279 311.448 435.551 311.448C433.991 311.448 432.599 312.744 432.599 314.76V321H431.135V314.496C431.135 312.648 430.295 311.448 428.567 311.448C427.007 311.448 425.615 312.744 425.615 314.76V321H424.151V310.584H425.615V312.504C426.119 311.232 427.367 310.296 428.975 310.296C430.823 310.296 431.975 311.208 432.431 312.6ZM442.338 310.584H443.802V321H442.338V310.584ZM442.29 307.824V305.88H443.85V307.824H442.29ZM447.034 318.696V311.664H445.426V310.944L446.05 310.824C447.01 310.632 447.202 310.176 447.418 309.168L447.73 307.68H448.474V310.584H451.498V311.664H448.474V318.72C448.474 319.656 448.858 320.112 449.818 320.112C450.538 320.112 451.258 319.752 451.858 319.392V320.424C451.114 321 450.37 321.288 449.314 321.288C447.922 321.288 447.034 320.592 447.034 318.696ZM460.283 316.272V315.624L457.739 316.176C455.843 316.584 454.667 316.968 454.667 318.36C454.667 319.344 455.315 320.16 456.683 320.16C458.723 320.16 460.283 318.6 460.283 316.272ZM461.675 314.232V319.248C461.675 319.8 462.011 320.064 462.539 320.064C462.779 320.064 463.187 319.968 463.475 319.8V320.592C463.163 320.952 462.827 321.216 462.107 321.216C461.075 321.216 460.331 320.328 460.283 319.008C459.731 320.232 458.195 321.288 456.419 321.288C454.475 321.288 453.179 320.208 453.179 318.408C453.179 316.44 454.907 315.648 457.499 315.12L460.283 314.544V314.016C460.283 312.432 459.347 311.448 457.715 311.448C456.035 311.448 455.099 312.432 454.739 313.776L453.491 313.536C453.899 311.664 455.435 310.296 457.691 310.296C460.283 310.296 461.675 311.664 461.675 314.232ZM465.363 318.696V311.664H463.755V310.944L464.379 310.824C465.339 310.632 465.531 310.176 465.747 309.168L466.059 307.68H466.803V310.584H469.827V311.664H466.803V318.72C466.803 319.656 467.187 320.112 468.147 320.112C468.867 320.112 469.587 319.752 470.187 319.392V320.424C469.443 321 468.699 321.288 467.643 321.288C466.251 321.288 465.363 320.592 465.363 318.696ZM471.987 310.584H473.451V321H471.987V310.584ZM471.939 307.824V305.88H473.499V307.824H471.939ZM477.163 315.792C477.163 318.336 478.507 320.136 480.835 320.136C483.187 320.136 484.531 318.336 484.531 315.792C484.531 313.248 483.187 311.448 480.835 311.448C478.507 311.448 477.163 313.248 477.163 315.792ZM486.067 315.792C486.067 319.032 483.811 321.288 480.835 321.288C477.883 321.288 475.627 319.032 475.627 315.792C475.627 312.552 477.883 310.296 480.835 310.296C483.811 310.296 486.067 312.552 486.067 315.792ZM489.717 314.76V321H488.253V310.584H489.717V312.504C490.221 311.232 491.661 310.296 493.221 310.296C495.909 310.296 497.037 312.048 497.037 314.544V321H495.573V314.496C495.573 312.648 494.613 311.448 492.837 311.448C491.181 311.448 489.717 312.744 489.717 314.76ZM499.063 317.472L500.239 317.328C500.455 319.128 501.679 320.136 503.671 320.136C505.279 320.136 506.407 319.536 506.407 318.312C506.407 317.16 505.591 316.8 504.127 316.536L502.327 316.224C500.503 315.912 499.375 315.072 499.375 313.392C499.375 311.52 500.935 310.296 503.215 310.296C505.903 310.296 507.463 311.568 507.631 314.04L506.503 314.136C506.239 312.264 505.135 311.448 503.215 311.448C501.727 311.448 500.743 312.12 500.743 313.224C500.743 314.232 501.343 314.736 502.639 314.952L504.559 315.264C506.599 315.6 507.799 316.32 507.799 318.168C507.799 320.208 505.975 321.288 503.695 321.288C501.175 321.288 499.231 320.04 499.063 317.472ZM509.523 321V319.08H511.443V321H509.523ZM32.6882 342.576L34.0562 342.456C34.1762 345.456 36.1922 347.112 38.9522 347.112C41.4482 347.112 43.0082 346.008 43.0082 344.136C43.0082 342.6 42.0962 341.784 39.9122 341.352L36.8402 340.752C34.6802 340.32 33.1922 339.168 33.1922 336.888C33.1922 334.392 35.1842 332.592 38.3762 332.592C42.0482 332.592 44.2322 334.608 44.2322 338.016L42.8402 338.136C42.7922 335.376 41.1602 333.768 38.4002 333.768C36.0002 333.768 34.6562 334.944 34.6562 336.84C34.6562 338.544 35.7362 339.096 37.7282 339.48L40.4162 340.008C43.0802 340.536 44.4482 341.616 44.4482 344.016C44.4482 346.68 42.1442 348.288 38.9522 348.288C35.3522 348.288 32.6882 346.248 32.6882 342.576ZM47.132 345.696V338.664H45.524V337.944L46.148 337.824C47.108 337.632 47.3 337.176 47.516 336.168L47.828 334.68H48.572V337.584H51.596V338.664H48.572V345.72C48.572 346.656 48.956 347.112 49.916 347.112C50.636 347.112 51.356 346.752 51.956 346.392V347.424C51.212 348 50.468 348.288 49.412 348.288C48.02 348.288 47.132 347.592 47.132 345.696ZM59.7084 337.776L59.5404 339.048C58.9404 338.736 58.5804 338.64 57.9564 338.64C56.4444 338.64 55.2204 340.2 55.2204 342.288V348H53.7564V337.584H55.2204V339.768C55.6284 338.568 56.6844 337.296 58.2204 337.296C58.8684 337.296 59.3244 337.44 59.7084 337.776ZM69.0403 344.28L70.2883 344.448C69.7843 346.824 68.0563 348.288 65.5123 348.288C62.4883 348.288 60.2323 346.152 60.2323 342.936C60.2323 339.648 62.4643 337.296 65.4163 337.296C68.6803 337.296 70.3123 339.648 70.3123 342.48V343.152H61.7443C61.8403 345.456 63.4483 347.088 65.5123 347.088C67.4323 347.088 68.6083 346.128 69.0403 344.28ZM61.7683 342.12H68.7523C68.7043 340.2 67.6243 338.448 65.4163 338.448C63.3523 338.448 62.0083 340.176 61.7683 342.12ZM79.1304 343.272V342.624L76.5864 343.176C74.6904 343.584 73.5144 343.968 73.5144 345.36C73.5144 346.344 74.1624 347.16 75.5304 347.16C77.5704 347.16 79.1304 345.6 79.1304 343.272ZM80.5224 341.232V346.248C80.5224 346.8 80.8584 347.064 81.3864 347.064C81.6264 347.064 82.0344 346.968 82.3224 346.8V347.592C82.0104 347.952 81.6744 348.216 80.9544 348.216C79.9224 348.216 79.1784 347.328 79.1304 346.008C78.5784 347.232 77.0424 348.288 75.2664 348.288C73.3224 348.288 72.0264 347.208 72.0264 345.408C72.0264 343.44 73.7544 342.648 76.3464 342.12L79.1304 341.544V341.016C79.1304 339.432 78.1944 338.448 76.5624 338.448C74.8824 338.448 73.9464 339.432 73.5864 340.776L72.3384 340.536C72.7464 338.664 74.2824 337.296 76.5384 337.296C79.1304 337.296 80.5224 338.664 80.5224 341.232ZM92.2473 339.6C92.7993 338.28 94.0953 337.296 95.7273 337.296C98.4153 337.296 99.3993 339.144 99.3993 341.544V348H97.9353V341.496C97.9353 339.648 97.0953 338.448 95.3673 338.448C93.8073 338.448 92.4153 339.744 92.4153 341.76V348H90.9513V341.496C90.9513 339.648 90.1113 338.448 88.3833 338.448C86.8233 338.448 85.4313 339.744 85.4313 341.76V348H83.9673V337.584H85.4313V339.504C85.9353 338.232 87.1833 337.296 88.7913 337.296C90.6393 337.296 91.7913 338.208 92.2473 339.6ZM101.675 348V346.08H103.595V348.024C103.595 349.512 103.403 350.448 101.675 350.448V349.464C102.515 349.392 102.611 349.08 102.611 348H101.675ZM111.727 342.432V343.152C111.727 345.648 113.359 347.088 115.423 347.088C117.631 347.088 118.903 345.432 118.903 342.792C118.903 340.152 117.631 338.496 115.423 338.496C113.359 338.496 111.727 339.936 111.727 342.432ZM111.775 345.72L111.415 348H110.311V332.88H111.775V339.888C112.231 338.568 113.599 337.296 115.615 337.296C118.711 337.296 120.439 339.72 120.439 342.792C120.439 345.864 118.711 348.288 115.615 348.288C113.599 348.288 112.231 347.04 111.775 345.72ZM128.568 337.776L128.4 339.048C127.8 338.736 127.44 338.64 126.816 338.64C125.304 338.64 124.08 340.2 124.08 342.288V348H122.616V337.584H124.08V339.768C124.488 338.568 125.544 337.296 127.08 337.296C127.728 337.296 128.184 337.44 128.568 337.776ZM130.628 342.792C130.628 345.336 131.972 347.136 134.3 347.136C136.652 347.136 137.996 345.336 137.996 342.792C137.996 340.248 136.652 338.448 134.3 338.448C131.972 338.448 130.628 340.248 130.628 342.792ZM139.532 342.792C139.532 346.032 137.276 348.288 134.3 348.288C131.348 348.288 129.092 346.032 129.092 342.792C129.092 339.552 131.348 337.296 134.3 337.296C137.276 337.296 139.532 339.552 139.532 342.792ZM148.365 337.584L150.813 346.032H150.909L153.477 337.584H154.869L151.557 348H150.165L147.741 339.696H147.645L145.245 348H143.853L140.517 337.584H141.981L144.597 346.032H144.693L147.093 337.584H148.365ZM155.809 344.472L156.985 344.328C157.201 346.128 158.425 347.136 160.417 347.136C162.025 347.136 163.153 346.536 163.153 345.312C163.153 344.16 162.337 343.8 160.873 343.536L159.073 343.224C157.249 342.912 156.121 342.072 156.121 340.392C156.121 338.52 157.681 337.296 159.961 337.296C162.649 337.296 164.209 338.568 164.377 341.04L163.249 341.136C162.985 339.264 161.881 338.448 159.961 338.448C158.473 338.448 157.489 339.12 157.489 340.224C157.489 341.232 158.089 341.736 159.385 341.952L161.305 342.264C163.345 342.6 164.545 343.32 164.545 345.168C164.545 347.208 162.721 348.288 160.441 348.288C157.921 348.288 155.977 347.04 155.809 344.472ZM174.931 344.28L176.179 344.448C175.675 346.824 173.947 348.288 171.403 348.288C168.379 348.288 166.123 346.152 166.123 342.936C166.123 339.648 168.355 337.296 171.307 337.296C174.571 337.296 176.203 339.648 176.203 342.48V343.152H167.635C167.731 345.456 169.339 347.088 171.403 347.088C173.323 347.088 174.499 346.128 174.931 344.28ZM167.659 342.12H174.643C174.595 340.2 173.515 338.448 171.307 338.448C169.243 338.448 167.899 340.176 167.659 342.12ZM177.683 348V346.08H179.603V348.024C179.603 349.512 179.411 350.448 177.683 350.448V349.464C178.523 349.392 178.619 349.08 178.619 348H177.683ZM192.943 343.272V342.624L190.399 343.176C188.503 343.584 187.327 343.968 187.327 345.36C187.327 346.344 187.975 347.16 189.343 347.16C191.383 347.16 192.943 345.6 192.943 343.272ZM194.335 341.232V346.248C194.335 346.8 194.671 347.064 195.199 347.064C195.439 347.064 195.847 346.968 196.135 346.8V347.592C195.823 347.952 195.487 348.216 194.767 348.216C193.735 348.216 192.991 347.328 192.943 346.008C192.391 347.232 190.855 348.288 189.079 348.288C187.135 348.288 185.839 347.208 185.839 345.408C185.839 343.44 187.567 342.648 190.159 342.12L192.943 341.544V341.016C192.943 339.432 192.007 338.448 190.375 338.448C188.695 338.448 187.759 339.432 187.399 340.776L186.151 340.536C186.559 338.664 188.095 337.296 190.351 337.296C192.943 337.296 194.335 338.664 194.335 341.232ZM199.244 341.76V348H197.78V337.584H199.244V339.504C199.748 338.232 201.188 337.296 202.748 337.296C205.436 337.296 206.564 339.048 206.564 341.544V348H205.1V341.496C205.1 339.648 204.14 338.448 202.364 338.448C200.708 338.448 199.244 339.744 199.244 341.76ZM217.351 343.152V342.432C217.351 339.936 215.719 338.496 213.655 338.496C211.447 338.496 210.175 340.152 210.175 342.792C210.175 345.432 211.447 347.088 213.655 347.088C215.719 347.088 217.351 345.648 217.351 343.152ZM217.303 348V345.72C216.847 347.04 215.479 348.288 213.463 348.288C210.367 348.288 208.639 345.864 208.639 342.792C208.639 339.72 210.367 337.296 213.463 337.296C215.479 337.296 216.847 338.568 217.303 339.888V332.88H218.767V348H217.303ZM234.064 344.28L235.312 344.448C234.808 346.824 233.08 348.288 230.536 348.288C227.512 348.288 225.256 346.152 225.256 342.936C225.256 339.648 227.488 337.296 230.44 337.296C233.704 337.296 235.336 339.648 235.336 342.48V343.152H226.768C226.864 345.456 228.472 347.088 230.536 347.088C232.456 347.088 233.632 346.128 234.064 344.28ZM226.792 342.12H233.776C233.728 340.2 232.648 338.448 230.44 338.448C228.376 338.448 227.032 340.176 226.792 342.12ZM245.911 337.584L242.047 342.528L246.463 348H244.687L241.183 343.584L237.727 348H236.095L240.391 342.6L236.407 337.584H238.183L241.255 341.496L244.279 337.584H245.911ZM249.563 342.432V343.152C249.563 345.648 251.195 347.088 253.259 347.088C255.467 347.088 256.739 345.432 256.739 342.792C256.739 340.152 255.467 338.496 253.259 338.496C251.195 338.496 249.563 339.936 249.563 342.432ZM249.611 345.72V352.08H248.147V337.584H249.611V339.888C250.067 338.568 251.435 337.296 253.451 337.296C256.547 337.296 258.275 339.72 258.275 342.792C258.275 345.864 256.547 348.288 253.451 348.288C251.435 348.288 250.067 347.04 249.611 345.72ZM260.452 332.88H261.916V348H260.452V332.88ZM265.628 342.792C265.628 345.336 266.972 347.136 269.3 347.136C271.652 347.136 272.996 345.336 272.996 342.792C272.996 340.248 271.652 338.448 269.3 338.448C266.972 338.448 265.628 340.248 265.628 342.792ZM274.532 342.792C274.532 346.032 272.276 348.288 269.3 348.288C266.348 348.288 264.092 346.032 264.092 342.792C264.092 339.552 266.348 337.296 269.3 337.296C272.276 337.296 274.532 339.552 274.532 342.792ZM282.669 337.776L282.501 339.048C281.901 338.736 281.541 338.64 280.917 338.64C279.405 338.64 278.181 340.2 278.181 342.288V348H276.717V337.584H278.181V339.768C278.589 338.568 279.645 337.296 281.181 337.296C281.829 337.296 282.285 337.44 282.669 337.776ZM292.001 344.28L293.249 344.448C292.745 346.824 291.017 348.288 288.473 348.288C285.449 348.288 283.193 346.152 283.193 342.936C283.193 339.648 285.425 337.296 288.377 337.296C291.641 337.296 293.273 339.648 293.273 342.48V343.152H284.705C284.801 345.456 286.409 347.088 288.473 347.088C290.393 347.088 291.569 346.128 292.001 344.28ZM284.729 342.12H291.713C291.665 340.2 290.585 338.448 288.377 338.448C286.313 338.448 284.969 340.176 284.729 342.12ZM305.924 348H304.412V334.152H298.82V332.88H311.588V334.152H305.924V348ZM319.165 343.824V337.584H320.629V348H319.165V346.08C318.661 347.352 317.269 348.288 315.709 348.288C313.021 348.288 311.965 346.536 311.965 344.04V337.584H313.429V344.088C313.429 345.936 314.317 347.136 316.093 347.136C317.749 347.136 319.165 345.84 319.165 343.824ZM329.451 337.776L329.283 339.048C328.683 338.736 328.323 338.64 327.699 338.64C326.187 338.64 324.963 340.2 324.963 342.288V348H323.499V337.584H324.963V339.768C325.371 338.568 326.427 337.296 327.963 337.296C328.611 337.296 329.067 337.44 329.451 337.776ZM332.486 344.088V348H331.022V332.88H332.486V342.624L338.222 337.584H340.142L335.198 341.904L340.382 348H338.606L334.118 342.72L332.486 344.088ZM349.704 344.28L350.952 344.448C350.448 346.824 348.72 348.288 346.176 348.288C343.152 348.288 340.896 346.152 340.896 342.936C340.896 339.648 343.128 337.296 346.08 337.296C349.344 337.296 350.976 339.648 350.976 342.48V343.152H342.408C342.504 345.456 344.112 347.088 346.176 347.088C348.096 347.088 349.272 346.128 349.704 344.28ZM342.432 342.12H349.416C349.368 340.2 348.288 338.448 346.08 338.448C344.016 338.448 342.672 340.176 342.432 342.12ZM355.957 352.08H354.517L356.269 347.928L351.853 337.584H353.389L356.965 346.152H357.061L360.517 337.584H361.957L355.957 352.08ZM374.584 343.272V342.624L372.04 343.176C370.144 343.584 368.968 343.968 368.968 345.36C368.968 346.344 369.616 347.16 370.984 347.16C373.024 347.16 374.584 345.6 374.584 343.272ZM375.976 341.232V346.248C375.976 346.8 376.312 347.064 376.84 347.064C377.08 347.064 377.488 346.968 377.776 346.8V347.592C377.464 347.952 377.128 348.216 376.408 348.216C375.376 348.216 374.632 347.328 374.584 346.008C374.032 347.232 372.496 348.288 370.72 348.288C368.776 348.288 367.48 347.208 367.48 345.408C367.48 343.44 369.208 342.648 371.8 342.12L374.584 341.544V341.016C374.584 339.432 373.648 338.448 372.016 338.448C370.336 338.448 369.4 339.432 369.04 340.776L367.792 340.536C368.2 338.664 369.736 337.296 371.992 337.296C374.584 337.296 375.976 338.664 375.976 341.232ZM379.663 345.696V338.664H378.055V337.944L378.679 337.824C379.639 337.632 379.831 337.176 380.047 336.168L380.359 334.68H381.103V337.584H384.127V338.664H381.103V345.72C381.103 346.656 381.487 347.112 382.447 347.112C383.167 347.112 383.887 346.752 384.487 346.392V347.424C383.743 348 382.999 348.288 381.943 348.288C380.551 348.288 379.663 347.592 379.663 345.696ZM393.504 352.08H392.064L393.816 347.928L389.4 337.584H390.936L394.512 346.152H394.608L398.064 337.584H399.504L393.504 352.08ZM401.8 342.792C401.8 345.336 403.144 347.136 405.472 347.136C407.824 347.136 409.168 345.336 409.168 342.792C409.168 340.248 407.824 338.448 405.472 338.448C403.144 338.448 401.8 340.248 401.8 342.792ZM410.704 342.792C410.704 346.032 408.448 348.288 405.472 348.288C402.52 348.288 400.264 346.032 400.264 342.792C400.264 339.552 402.52 337.296 405.472 337.296C408.448 337.296 410.704 339.552 410.704 342.792ZM419.969 343.824V337.584H421.433V348H419.969V346.08C419.465 347.352 418.073 348.288 416.513 348.288C413.825 348.288 412.769 346.536 412.769 344.04V337.584H414.233V344.088C414.233 345.936 415.121 347.136 416.897 347.136C418.553 347.136 419.969 345.84 419.969 343.824ZM430.255 337.776L430.087 339.048C429.487 338.736 429.127 338.64 428.503 338.64C426.991 338.64 425.767 340.2 425.767 342.288V348H424.303V337.584H425.767V339.768C426.175 338.568 427.231 337.296 428.767 337.296C429.415 337.296 429.871 337.44 430.255 337.776ZM436.979 342.792C436.979 345.336 438.323 347.136 440.651 347.136C443.003 347.136 444.347 345.336 444.347 342.792C444.347 340.248 443.003 338.448 440.651 338.448C438.323 338.448 436.979 340.248 436.979 342.792ZM445.883 342.792C445.883 346.032 443.627 348.288 440.651 348.288C437.699 348.288 435.443 346.032 435.443 342.792C435.443 339.552 437.699 337.296 440.651 337.296C443.627 337.296 445.883 339.552 445.883 342.792ZM454.717 337.584L457.165 346.032H457.261L459.829 337.584H461.221L457.909 348H456.517L454.093 339.696H453.997L451.597 348H450.205L446.869 337.584H448.333L450.949 346.032H451.045L453.445 337.584H454.717ZM464.369 341.76V348H462.905V337.584H464.369V339.504C464.873 338.232 466.313 337.296 467.873 337.296C470.561 337.296 471.689 339.048 471.689 341.544V348H470.225V341.496C470.225 339.648 469.265 338.448 467.489 338.448C465.833 338.448 464.369 339.744 464.369 341.76ZM480.188 342.432V343.152C480.188 345.648 481.82 347.088 483.884 347.088C486.092 347.088 487.364 345.432 487.364 342.792C487.364 340.152 486.092 338.496 483.884 338.496C481.82 338.496 480.188 339.936 480.188 342.432ZM480.236 345.72V352.08H478.772V337.584H480.236V339.888C480.692 338.568 482.06 337.296 484.076 337.296C487.172 337.296 488.9 339.72 488.9 342.792C488.9 345.864 487.172 348.288 484.076 348.288C482.06 348.288 480.692 347.04 480.236 345.72ZM497.701 343.272V342.624L495.157 343.176C493.261 343.584 492.085 343.968 492.085 345.36C492.085 346.344 492.733 347.16 494.101 347.16C496.141 347.16 497.701 345.6 497.701 343.272ZM499.093 341.232V346.248C499.093 346.8 499.429 347.064 499.957 347.064C500.197 347.064 500.605 346.968 500.893 346.8V347.592C500.581 347.952 500.245 348.216 499.525 348.216C498.493 348.216 497.749 347.328 497.701 346.008C497.149 347.232 495.613 348.288 493.837 348.288C491.893 348.288 490.597 347.208 490.597 345.408C490.597 343.44 492.325 342.648 494.917 342.12L497.701 341.544V341.016C497.701 339.432 496.765 338.448 495.133 338.448C493.453 338.448 492.517 339.432 492.157 340.776L490.909 340.536C491.317 338.664 492.853 337.296 495.109 337.296C497.701 337.296 499.093 338.664 499.093 341.232ZM501.724 342.792C501.724 339.48 503.884 337.296 506.98 337.296C510.004 337.296 511.636 339.336 511.828 341.856L510.484 341.952C510.34 339.96 509.116 338.52 506.932 338.52C504.748 338.52 503.26 340.224 503.26 342.792C503.26 345.36 504.748 347.064 506.932 347.064C509.116 347.064 510.34 345.576 510.484 343.584L511.828 343.728C511.636 346.248 510.004 348.288 506.98 348.288C503.884 348.288 501.724 346.104 501.724 342.792ZM522.204 344.28L523.452 344.448C522.948 346.824 521.22 348.288 518.676 348.288C515.652 348.288 513.396 346.152 513.396 342.936C513.396 339.648 515.628 337.296 518.58 337.296C521.844 337.296 523.476 339.648 523.476 342.48V343.152H514.908C515.004 345.456 516.612 347.088 518.676 347.088C520.596 347.088 521.772 346.128 522.204 344.28ZM514.932 342.12H521.916C521.868 340.2 520.788 338.448 518.58 338.448C516.516 338.448 515.172 340.176 514.932 342.12ZM524.956 348V346.08H526.876V348H524.956Z" fill="#D0D5DD"/>
</g>
<g clip-path="url(#clip2_199_15422)">
<rect x="180" y="421" width="200" height="50" rx="25" fill="#101828"/>
<path d="M237.828 451.192C235.012 451.192 232.916 449.08 232.916 445.96C232.916 442.856 235.14 440.728 237.972 440.728C240.884 440.728 242.564 442.328 242.772 444.872L240.82 444.952C240.692 443.464 239.7 442.488 238.02 442.488C236.18 442.488 234.996 443.848 234.996 445.96C234.996 448.12 236.212 449.496 238.18 449.496C239.604 449.496 240.644 448.68 240.932 447.4H238.26V445.912H242.804V451H241.028V449.512C240.532 450.632 239.268 451.192 237.828 451.192ZM249.593 448.536L251.145 448.696C250.777 450.264 249.561 451.192 247.753 451.192C245.577 451.192 244.009 449.8 244.009 447.576C244.009 445.352 245.593 443.752 247.705 443.752C250.009 443.752 251.193 445.352 251.193 447.272V447.96H245.897C245.961 449 246.777 449.736 247.817 449.736C248.761 449.736 249.321 449.336 249.593 448.536ZM245.929 446.76H249.321C249.257 445.944 248.761 445.16 247.689 445.16C246.633 445.16 246.105 445.88 245.929 446.76ZM252.665 449.208V445.288H251.657V444.152L252.137 444.072C252.825 443.96 253.017 443.608 253.177 442.952L253.401 441.992H254.569V443.944H256.489V445.288H254.569V448.776C254.569 449.384 254.841 449.656 255.417 449.656C255.801 449.656 256.201 449.512 256.617 449.32V450.584C256.105 450.968 255.529 451.192 254.665 451.192C253.577 451.192 252.665 450.712 252.665 449.208ZM264.822 445.192L267.462 440.92H269.622L265.718 447.112V451H263.766V447.112L259.862 440.92H262.086L264.822 445.192ZM270.633 447.48C270.633 448.808 271.241 449.736 272.409 449.736C273.593 449.736 274.201 448.808 274.201 447.48C274.201 446.136 273.593 445.208 272.409 445.208C271.241 445.208 270.633 446.136 270.633 447.48ZM276.137 447.48C276.137 449.672 274.601 451.192 272.409 451.192C270.233 451.192 268.697 449.672 268.697 447.48C268.697 445.288 270.233 443.752 272.409 443.752C274.601 443.752 276.137 445.288 276.137 447.48ZM282.051 447.72V443.944H283.971V451H282.051V449.848C281.683 450.664 280.851 451.192 279.779 451.192C277.907 451.192 277.267 449.928 277.267 448.36V443.944H279.187V447.976C279.187 449.048 279.587 449.688 280.531 449.688C281.475 449.688 282.051 448.92 282.051 447.72ZM290.477 444.04L290.333 445.832C289.965 445.624 289.645 445.528 289.181 445.528C288.189 445.528 287.517 446.232 287.517 447.512V451H285.597V443.944H287.517V445.288C287.773 444.488 288.509 443.752 289.485 443.752C289.917 443.752 290.269 443.864 290.477 444.04ZM299.422 448.536L300.974 448.696C300.606 450.264 299.39 451.192 297.582 451.192C295.406 451.192 293.838 449.8 293.838 447.576C293.838 445.352 295.422 443.752 297.534 443.752C299.838 443.752 301.022 445.352 301.022 447.272V447.96H295.726C295.789 449 296.606 449.736 297.646 449.736C298.59 449.736 299.15 449.336 299.422 448.536ZM295.758 446.76H299.15C299.086 445.944 298.59 445.16 297.518 445.16C296.462 445.16 295.934 445.88 295.758 446.76ZM301.774 447.416L303.614 447.336C303.694 448.904 304.83 449.608 306.238 449.608C307.486 449.608 308.286 449.112 308.286 448.264C308.286 447.496 307.678 447.208 306.622 447L304.702 446.648C303.134 446.36 302.046 445.496 302.046 443.832C302.046 441.944 303.534 440.728 305.886 440.728C308.526 440.728 310.014 442.088 310.046 444.328L308.206 444.392C308.142 443.016 307.246 442.296 305.87 442.296C304.686 442.296 304.014 442.824 304.014 443.688C304.014 444.424 304.542 444.68 305.454 444.856L307.31 445.192C309.294 445.56 310.222 446.504 310.222 448.136C310.222 450.12 308.51 451.192 306.238 451.192C303.646 451.192 301.774 449.848 301.774 447.416ZM311.472 443.944H313.392V451H311.472V443.944ZM311.44 442.792V440.92H313.408V442.792H311.44ZM321.404 445.208C321.788 444.376 322.635 443.752 323.788 443.752C325.692 443.752 326.3 445.064 326.3 446.6V451H324.38V446.984C324.38 445.896 324.044 445.272 323.1 445.272C322.172 445.272 321.612 446.04 321.612 447.224V451H319.692V446.984C319.692 445.896 319.34 445.272 318.411 445.272C317.484 445.272 316.924 446.04 316.924 447.224V451H315.004V443.944H316.924V445.096C317.276 444.296 318.076 443.752 319.148 443.752C320.396 443.752 321.1 444.344 321.404 445.208Z" fill="white"/>
</g>
<circle cx="264" cy="519" r="4" fill="#475467"/>
<circle cx="280" cy="519" r="4" fill="#475467"/>
<circle cx="296" cy="519" r="4" fill="#0D1320"/>
</g>
<defs>
<clipPath id="clip0_199_15422">
<rect width="560" height="523" fill="white"/>
</clipPath>
<clipPath id="clip1_199_15422">
<rect width="560" height="309" fill="white" transform="translate(0 39)"/>
</clipPath>
<clipPath id="clip2_199_15422">
<rect x="180" y="421" width="200" height="50" rx="25" fill="white"/>
</clipPath>
</defs>
</svg>
