<svg width="10" height="318" viewBox="0 0 10 318" fill="none" xmlns="http://www.w3.org/2000/svg">
<path d="M5 0.407367C2.46356 0.407367 0.407367 2.46356 0.407367 5C0.407367 7.53644 2.46356 9.59263 5 9.59263C7.53644 9.59263 9.59263 7.53644 9.59263 5C9.59263 2.46356 7.53644 0.407367 5 0.407367ZM4.99999 308.407C2.46355 308.407 0.407354 310.464 0.407354 313C0.407354 315.536 2.46355 317.593 4.99999 317.593C7.53643 317.593 9.59262 315.536 9.59262 313C9.59262 310.464 7.53643 308.407 4.99999 308.407ZM4.13888 5L4.13887 313L5.86111 313L5.86112 5L4.13888 5Z" fill="#344054"/>
</svg>
